<?xml version="1.0" encoding="utf-8"?>
<!-- Generator: Adobe Illustrator 16.0.4, SVG Export Plug-In . SVG Version: 6.00 Build 0)  -->
<!DOCTYPE svg PUBLIC "-//W3C//DTD SVG 1.1//EN" "http://www.w3.org/Graphics/SVG/1.1/DTD/svg11.dtd">
<svg version="1.1" id="Layer_1" xmlns="http://www.w3.org/2000/svg" xmlns:xlink="http://www.w3.org/1999/xlink" x="0px" y="0px"
	 width="598.47px" height="22.951px" viewBox="0 0 598.47 22.951" enable-background="new 0 0 598.47 22.951" xml:space="preserve">
<g>
	<g>
		<g>
			<g>
				<path fill="#FF0000" d="M12.418,15.395c4.003-2.092,9.002-6.006,13.312-2.519c2.356,1.906,4.267,3.381,7.161,4.397
					c6.121,2.149,12.748-1.315,18.101-3.925c4.037-1.967,9.919-4.719,14.433-2.759c2.689,1.168,4.66,3.484,7.455,4.566
					c6.554,2.537,13.853,2.672,20.572,0.682c3.701-1.096,2.124-6.887-1.595-5.785c-7.377,2.185-14.988,1.382-21.212-3.231
					C64.672,2.394,57.09,3.985,50.749,6.868c-3.48,1.583-6.823,3.419-10.495,4.531c-5.305,1.606-7.985-1.473-11.964-4.105
					c-6.465-4.278-12.906-0.213-18.9,2.919C5.96,12.006,8.994,17.185,12.418,15.395L12.418,15.395z"/>
			</g>
		</g>
		<g>
			<g>
				<path fill="#FF0000" d="M96.418,15.395c4.003-2.092,9.002-6.006,13.312-2.519c2.356,1.906,4.267,3.381,7.161,4.397
					c6.121,2.149,12.748-1.315,18.101-3.925c4.037-1.967,9.919-4.719,14.433-2.759c2.689,1.168,4.66,3.484,7.455,4.566
					c6.554,2.537,13.853,2.672,20.572,0.682c3.701-1.096,2.124-6.887-1.595-5.785c-7.377,2.185-14.988,1.382-21.212-3.231
					c-5.972-4.427-13.554-2.835-19.896,0.048c-3.48,1.583-6.823,3.419-10.495,4.531c-5.305,1.606-7.985-1.473-11.964-4.105
					c-6.465-4.278-12.906-0.213-18.9,2.919C89.96,12.006,92.994,17.185,96.418,15.395L96.418,15.395z"/>
			</g>
		</g>
		<g>
			<g>
				<path fill="#FF0000" d="M178.418,15.395c4.003-2.092,9.002-6.006,13.312-2.519c2.356,1.906,4.267,3.381,7.161,4.397
					c6.121,2.149,12.748-1.315,18.101-3.925c4.037-1.967,9.919-4.719,14.433-2.759c2.689,1.168,4.66,3.484,7.455,4.566
					c6.554,2.537,13.853,2.672,20.572,0.682c3.701-1.096,2.124-6.887-1.595-5.785c-7.377,2.185-14.988,1.382-21.212-3.231
					c-5.972-4.427-13.554-2.835-19.896,0.048c-3.48,1.583-6.823,3.419-10.495,4.531c-5.305,1.606-7.985-1.473-11.964-4.105
					c-6.465-4.278-12.906-0.213-18.9,2.919C171.96,12.006,174.994,17.185,178.418,15.395L178.418,15.395z"/>
			</g>
		</g>
		<g>
			<g>
				<path fill="#FF0000" d="M262.418,15.395c4.003-2.092,9.002-6.006,13.312-2.519c2.356,1.906,4.267,3.381,7.161,4.397
					c6.121,2.149,12.749-1.315,18.101-3.925c4.038-1.967,9.919-4.719,14.433-2.759c2.688,1.167,4.658,3.485,7.454,4.566
					c6.555,2.537,13.853,2.672,20.572,0.682c3.7-1.096,2.124-6.887-1.596-5.785c-7.376,2.185-14.987,1.383-21.211-3.231
					c-5.972-4.427-13.555-2.835-19.896,0.048c-3.48,1.583-6.823,3.419-10.495,4.531c-5.305,1.606-7.985-1.473-11.964-4.105
					c-6.465-4.278-12.906-0.213-18.9,2.919C255.96,12.006,258.994,17.185,262.418,15.395L262.418,15.395z"/>
			</g>
		</g>
	</g>
	<g>
		<g>
			<g>
				<path fill="#FF0000" d="M344.417,15.395c4.004-2.092,9.003-6.006,13.312-2.519c2.356,1.906,4.267,3.381,7.16,4.397
					c6.122,2.149,12.749-1.315,18.102-3.925c4.037-1.967,9.92-4.719,14.434-2.759c2.688,1.167,4.658,3.485,7.454,4.566
					c6.555,2.537,13.853,2.672,20.572,0.682c3.7-1.096,2.124-6.887-1.596-5.785c-7.376,2.185-14.987,1.383-21.211-3.231
					c-5.972-4.427-13.555-2.835-19.896,0.048c-3.48,1.583-6.823,3.419-10.495,4.531c-5.306,1.607-7.985-1.473-11.964-4.105
					c-6.465-4.278-12.906-0.213-18.9,2.919C337.959,12.006,340.993,17.184,344.417,15.395L344.417,15.395z"/>
			</g>
		</g>
		<g>
			<g>
				<path fill="#FF0000" d="M428.417,15.395c4.004-2.092,9.003-6.006,13.312-2.519c2.356,1.906,4.267,3.381,7.16,4.397
					c6.122,2.149,12.749-1.315,18.102-3.925c4.037-1.967,9.92-4.719,14.434-2.759c2.688,1.167,4.658,3.485,7.454,4.566
					c6.555,2.537,13.853,2.672,20.572,0.682c3.7-1.096,2.124-6.887-1.596-5.785c-7.376,2.185-14.987,1.383-21.211-3.231
					c-5.972-4.427-13.555-2.835-19.896,0.048c-3.48,1.583-6.823,3.419-10.495,4.531c-5.306,1.607-7.985-1.473-11.964-4.105
					c-6.465-4.278-12.906-0.213-18.9,2.919C421.959,12.006,424.993,17.184,428.417,15.395L428.417,15.395z"/>
			</g>
		</g>
		<g>
			<g>
				<path fill="#FF0000" d="M510.417,15.395c4.004-2.092,9.003-6.006,13.312-2.519c2.356,1.906,4.267,3.381,7.16,4.397
					c6.122,2.149,12.749-1.315,18.102-3.925c4.037-1.967,9.92-4.719,14.434-2.759c2.688,1.167,4.658,3.485,7.454,4.566
					c6.555,2.537,13.853,2.672,20.572,0.682c3.7-1.096,2.124-6.887-1.596-5.785c-7.376,2.185-14.987,1.383-21.211-3.231
					c-5.972-4.427-13.555-2.835-19.896,0.048c-3.48,1.583-6.823,3.419-10.495,4.531c-5.306,1.607-7.985-1.473-11.964-4.105
					c-6.465-4.278-12.906-0.213-18.9,2.919C503.959,12.006,506.993,17.184,510.417,15.395L510.417,15.395z"/>
			</g>
		</g>
	</g>
</g>
</svg>
