<?xml version="1.0" encoding="utf-8"?>
<!-- Generator: Adobe Illustrator 16.0.0, SVG Export Plug-In . SVG Version: 6.00 Build 0)  -->
<!DOCTYPE svg PUBLIC "-//W3C//DTD SVG 1.1//EN" "http://www.w3.org/Graphics/SVG/1.1/DTD/svg11.dtd">
<svg version="1.1" xmlns="http://www.w3.org/2000/svg" xmlns:xlink="http://www.w3.org/1999/xlink" x="0px" y="0px" width="32px"
	 height="32px" viewBox="0 0 32 32" enable-background="new 0 0 32 32" xml:space="preserve">
<g id="Layer_1" display="none">
	<g id="XMLID_6_" display="inline">
		<g>
			<rect x="20" y="1.0004883" fill="#A9C6C7" width="2.9375" height="29.9995117"/>
		</g>
		<g>
		</g>
	</g>
	<g id="XMLID_5_" display="inline">
		<g>
			<rect x="9" y="1.0004883" fill="#A9C6C7" width="2.9375" height="29.9995117"/>
		</g>
		<g>
		</g>
	</g>
	<rect x="1" y="9" display="inline" fill="#A9C6C7" width="30" height="3"/>
	<rect x="1" y="20" display="inline" fill="#A9C6C7" width="30" height="3"/>
</g>
<g id="Layer_2" display="none">
	<rect x="12" y="1" display="inline" fill="#A9C6C7" width="8" height="8"/>
	<rect x="1" y="1" display="inline" fill="#A9C6C7" width="8" height="8"/>
	<rect x="12" y="12" display="inline" fill="#A9C6C7" width="8" height="8"/>
	<rect x="1" y="12" display="inline" fill="#A9C6C7" width="8" height="8"/>
	<rect x="1" y="23" display="inline" fill="#A9C6C7" width="8" height="8"/>
	<rect x="12" y="23" display="inline" fill="#A9C6C7" width="8" height="8"/>
	<rect x="23" y="1" display="inline" fill="#A9C6C7" width="8" height="8"/>
	<rect x="23" y="12" display="inline" fill="#A9C6C7" width="8" height="8"/>
	<rect x="23" y="23" display="inline" fill="#A9C6C7" width="8" height="8"/>
</g>
<g id="Layer_3">
	<g>
		<g>
			<path fill="#A9C6C7" d="M1,1v30h30V1H1z M15,26H7v-8h8V26z M25,26h-8v-8h8V26z M25,15H7v-3h18V15z M25,10H7V7h18V10z"/>
		</g>
	</g>
</g>
</svg>
