<svg version="1.1" id="Layer_1" xmlns="http://www.w3.org/2000/svg" xmlns:xlink="http://www.w3.org/1999/xlink" x="0px" y="0px"
	 width="256px" height="256px" viewBox="0 0 1024 1024" enable-background="new 0 0 1024 1024" xml:space="preserve">

	<style>
		#texture_media {
			mix-blend-mode: lighten;
			opacity: 0.5;
		}
	</style>

	<filter id="colorMeMatrix">
		<feColorMatrix in="SourceGraphic" type="matrix" values="-1 0 0 0 1
                                                              0 -1 0 0 1
                                                              0 0 -1 0 1
                                                              0 0 0 1 0"/>
	 </filter>

<g>
	<g>
		<g>
			<path fill="#e079a1" d="M764.604,840.434c4.348-118.534-69.763-237.033-165.564-304.055
				c-93.772-64.536-188.83-26.995-288.269-27.701c-97.283-0.593-183.846,39.787-224.32,146.833
				C66.47,704.299,38.073,788.255,56.771,841.54c24.393,67.851,146.688,46.06,202.75,49.137
				c105.649,5.803,208.418-14.684,311.911-9.003C608.088,883.687,750.312,903.788,764.604,840.434z"/>
		</g>
		<g>
			<path fill="#e079a1" d="M351.893,256.729c143.895,159.524,287.635,311.685,427.02,478.217
				c32.379,38.687,112.569,163.125,162.598,161.702c76.207-2.173,32.894-253.899,21.322-300.144
				c-52.11-208.311-149.213-395.892-320.48-454.765C607.359,129.709,245.506,109.448,351.893,256.729z"/>
		</g>
	</g>
	<g id="texture_media" filter="url(#colorMeMatrix)">
		<defs>
			<path id="SVGID_9_" d="M943.987,613.58c-52.11-208.31-136.499-395.176-307.767-454.049
				c-34.993-12.029-399.055-51.944-292.667,95.337c86.772,142.008,122.717,161.593,227.485,255.871
				c-7.482-6.504,15.782,10.114,7.684,4.448c-93.773-64.536-186.271,12.517-285.711,11.811
				c-97.284-0.593-158.797,38.908-199.271,145.955C73.759,721.74,57.512,775.566,76.209,828.853
				c24.393,67.851,130.945,72.981,187.006,76.059c105.649,5.801,190.139-13.933,293.632-8.251
				c36.655,2.014,212.149,12.067,226.441-51.286c-6.862-78.476-18.502-115.549-91.95-212.751
				c26.057,40.33,28.633,49.295,62.731,90.036c32.378,38.687,141.552,176.452,191.581,175.028
				C1021.857,895.517,955.559,659.825,943.987,613.58z"/>
		</defs>
		<clipPath id="SVGID_2_">
			<use xlink:href="#SVGID_9_"  overflow="visible"/>
		</clipPath>
		<g id="DsD5mp_5_" clip-path="url(#SVGID_2_)">

				<image overflow="visible" width="826" height="662" id="DsD5mp_10_" xlink:href="/img/texture_paint.jpg"  transform="matrix(1.1529 0 0 1.1529 35.8262 151.2065)">
			</image>
		</g>
	</g>
</g>

<g class="extras border">
	<g>
		<path fill="#492DA0" d="M817.142,241.581c-33.927-33.65-69.321-67.087-111.019-90.998
			c-41.305-23.687-87.605-34.692-135.043-35.295c-40.656-0.517-81.922,0.047-122.261,5.462
			c-41.559,5.578-84.032,16.391-117.067,43.508c-39.571,32.481-47.299,87.143-49.48,135.29
			c-2.395,52.804,3.352,107.851-12.424,159.14c-2.809,9.131-5.58,15.532-11.021,24.054c-1.061,1.66-2.205,3.263-3.379,4.844
			c1.52-2.047-0.386,0.448-0.601,0.71c-0.593,0.723-1.21,1.425-1.827,2.126c-2.592,2.942-5.453,5.638-8.449,8.162
			c-0.339,0.285-2.684,2.143-0.482,0.442c-0.697,0.538-1.409,1.054-2.121,1.57c-1.42,1.03-2.885,1.997-4.359,2.945
			c-3.209,2.062-6.559,3.9-9.954,5.635c-3.192,1.631-6.458,3.115-9.744,4.547c-0.388,0.169-3.21,1.358-0.662,0.29
			c-0.848,0.355-1.698,0.703-2.548,1.052c-2.01,0.822-4.029,1.621-6.049,2.417c-16.262,6.409-32.645,12.577-47.973,21.062
			c-19.231,10.647-35.441,25.005-50.183,41.172c-35.368,38.789-60.805,84.62-75.546,134.957
			c-6.908,23.593-10.853,47.668-14.822,71.878c-3.291,20.068-7.014,40.222-7.76,60.587c-0.551,15.061,0.367,38.246,16.581,45.539
			c5.898,2.653,12.329,2.868,18.687,3.695c8.047,1.047,16.104,2.026,24.164,2.958c14.126,1.633,28.275,3.054,42.441,4.293
			c53.838,4.707,107.979,6.53,161.99,7.919c93.047,2.392,185.876-0.243,278.855-3.518c40.057-1.41,80.125-2.448,120.211-2.296
			c57.037,0.217,113.597,5.311,170.439,9.384c26.986,1.934,54.093,3.454,81.154,2.438c12.094-0.454,24.154-1.621,36.102-3.568
			c7.92-1.29,15.648-3.985,22.226-8.67c29.998-21.366,30.778-65.971,29.642-99.079c-1.388-40.431-8.887-80.312-12.738-120.514
			c-4.963-51.789-16.222-102.89-31.527-152.563c-31.496-102.219-80.184-201.452-147.781-284.715
			C820.943,246.138,819.047,243.855,817.142,241.581c-3.948-4.715-11.884-4.056-15.939,0c-4.629,4.628-3.94,11.234,0,15.939
			c33.126,39.56,60.876,83.479,84.831,129.11c25.1,47.81,45.688,97.928,61.863,149.436c15.285,48.669,26.701,98.972,31.682,149.654
			c3.95,40.198,11.225,80.088,12.738,120.514c0.368,9.813,0.326,19.646-0.311,29.446c-0.145,2.216-0.342,4.428-0.561,6.638
			c-0.107,1.081-0.233,2.16-0.36,3.239c-0.415,3.523,0.336-2.233-0.167,1.235c-0.633,4.367-1.508,8.697-2.597,12.974
			c-0.933,3.661-2.117,7.254-3.511,10.765c0.991-2.498-1.068,2.216-1.453,2.973c-0.903,1.78-1.932,3.493-3.019,5.167
			c-0.454,0.7-0.942,1.377-1.431,2.053c1.695-2.348,0.074-0.122-0.278,0.298c-1.04,1.244-2.18,2.399-3.353,3.517
			c-0.584,0.555-1.198,1.074-1.812,1.594c-2.111,1.781,1.973-1.421-0.281,0.184c-1.547,1.103-3.205,2.037-4.895,2.899
			c-0.486,0.249-3.072,1.333-0.346,0.219c-0.787,0.321-1.594,0.594-2.398,0.866c-1.67,0.565-3.389,0.975-5.111,1.336
			c-5.695,1.197-9.471,1.553-15.035,2.121c-12.178,1.244-24.441,1.577-36.677,1.573c-28.094-0.009-56.169-2.164-84.159-4.355
			c-30.387-2.379-60.758-5.003-91.206-6.49c-24.394-1.191-48.833-1.368-73.252-1.307c-39.719,0.099-79.417,1.371-119.106,2.81
			c-95.667,3.468-191.176,5.356-286.896,2.385c-53.279-1.654-106.597-3.854-159.655-9.144c-14.99-1.494-29.953-3.239-44.895-5.15
			c-3.121-0.399-6.258-0.747-9.365-1.245c-0.665-0.107-1.307-0.313-1.945-0.521c2.914,0.949,1.199,0.504,0.372,0.018
			c-2.001-1.175,1.987,1.759,0.257,0.185c-0.545-0.495-1.936-2.304,0.021,0.275c-0.672-0.885-2.696-5.401-1.562-2.489
			c-0.604-1.551-1.018-3.174-1.396-4.792c-0.204-0.877-0.357-1.766-0.514-2.652c-0.543-3.089,0.257,2.445-0.106-0.777
			c-0.517-4.574-0.538-9.203-0.437-13.8c0.104-4.727,0.467-9.447,0.908-14.153c0.473-5.057,1.188-10.604,1.69-14.141
			c6.579-46.261,14.178-92.796,32.143-136.199c9.464-22.864,22.305-44.429,37.02-64.276c13.564-18.296,30.784-37.787,48.067-50.443
			c7.578-5.549,15.684-10.345,24.041-14.614c3.725-1.902,7.521-3.664,11.342-5.362c0.932-0.414,1.868-0.818,2.805-1.223
			c3.08-1.33-2.053,0.851,1.021-0.434c2.136-0.891,4.283-1.755,6.432-2.613c14.867-5.936,30.145-11.206,44.128-19.099
			c14.587-8.233,26.741-19.865,35.43-34.193c11.974-19.744,15.851-42.352,19.39-64.764c8.66-54.829,0.522-110.783,8.983-165.601
			c2.063-13.374,5.284-26.561,9.892-39.288c1.846-5.1,4.014-10.041,6.648-14.783c1.111-2,2.326-3.94,3.572-5.858
			c0.618-0.952,1.269-1.881,1.919-2.811c0.224-0.319,2.696-3.591,1.626-2.231c12.076-15.353,26.037-24.71,43.758-33.117
			c7.823-3.711,17.182-7.062,26.768-9.934c10.019-3.001,20.237-5.316,30.514-7.242c19.939-3.737,39.779-5.563,60.961-6.679
			c18.973-1,37.977-1.174,56.971-1.189c24.223-0.02,47.857,0.165,71.355,4.808c72.601,14.347,127.511,63.671,178.942,114.682
			C811.529,267.764,827.474,251.828,817.142,241.581z"/>
	</g>
</g>
<g class="text">
	<g>
		<path fill="#492DA0" d="M616.946,286.636l18.991-65.75l-0.543-0.149l-34.331,61.522l-15.34-4.227l2.567-70.275l-0.408-0.112
			l-17.498,66.16l-19.685-5.423l26.48-96.109l27.421,7.555l-1.58,66.165l0.544,0.149l32.123-57.75l29.05,8.005l-26.48,96.109
			L616.946,286.636z"/>
		<path fill="#492DA0" d="M645.646,304.202l74.612-66.117l31.938,36.04l-14.859,13.168l-17.65-19.917l-14.648,12.981l16.25,18.336
			l-13.91,12.327l-16.249-18.336l-16.02,14.193l18.771,21.183l-15.175,13.448L645.646,304.202z"/>
		<path fill="#492DA0" d="M752.515,402.942c-7.239,2.001-14.017,3.021-20.335,3.064c-6.32,0.042-12.01-0.989-17.072-3.096
			c-5.062-2.107-9.419-5.359-13.067-9.756c-3.651-4.396-6.425-10.035-8.326-16.909l-7.466-27.008l96.088-26.56l7.465,27.008
			c1.9,6.875,2.414,13.138,1.541,18.785c-0.875,5.647-2.965,10.68-6.271,15.1s-7.707,8.241-13.193,11.463
			C766.388,398.254,759.934,400.892,752.515,402.942z M746.476,381.092c9.681-2.675,16.53-6.346,20.549-11.012
			c4.017-4.667,5.302-9.624,3.853-14.871l-1.463-5.292l-58.088,16.056l1.463,5.293c1.45,5.246,5.097,8.84,10.941,10.781
			C729.574,383.986,737.156,383.668,746.476,381.092z"/>
		<path fill="#492DA0" d="M696.146,429.124l99.25,9.364l-2.129,22.569l-99.251-9.364L696.146,429.124z"/>
		<path fill="#492DA0" d="M727.59,558.186l12.084-14.164l-13.432-17.912l-16.982,7.629l-13.515-18.024l94.29-40.428l16.979,22.645
			l-65.317,79.068L727.59,558.186z M781.049,499.448l-0.339-0.451l-38.978,18.666l10.221,13.633L781.049,499.448z"/>
	</g>
</g>
<g class="extras">
	<g>
		<path fill="#492DA0" d="M181.724,649.374c24.895,0.821,49.789,1.643,74.684,2.464c-3.286-5.727-6.572-11.453-9.858-17.18
			c-13.16,21.148-26.319,42.297-39.479,63.445c6.572,0,13.145,0,19.717,0c-11.735-21.97-23.47-43.939-35.204-65.909
			c-6.939-12.991-26.65-1.457-19.717,11.525c11.734,21.97,23.47,43.939,35.204,65.909c4.167,7.802,15.357,7.005,19.717,0
			c13.159-21.148,26.319-42.297,39.479-63.445c4.73-7.602-1.482-16.903-9.858-17.18c-24.895-0.821-49.789-1.643-74.684-2.464
			C166.991,626.054,167.038,648.89,181.724,649.374z"/>
	</g>
	<g>
		<path fill="#FFFFFF" d="M862.613,662.079c3.985-22.002,7.971-44.003,11.957-66.005c-6.36,1.68-12.721,3.358-19.082,5.038
			c17.063,14.452,34.127,28.904,51.19,43.356c1.68-6.361,3.358-12.722,5.038-19.082c-21.049,7.549-42.1,15.099-63.148,22.648
			c-5.852,2.099-9.719,7.699-7.975,14.044c1.557,5.656,8.183,10.076,14.045,7.974c21.049-7.549,42.1-15.099,63.148-22.648
			c7.379-2.646,12.114-13.089,5.038-19.082c-17.063-14.452-34.127-28.904-51.19-43.356c-5.923-5.017-17.42-4.135-19.082,5.038
			c-3.986,22.002-7.973,44.003-11.959,66.005c-1.107,6.118,1.578,12.285,7.975,14.044
			C854.157,671.591,861.502,668.208,862.613,662.079z"/>
	</g>
	<g>
		<path fill="#492DA0" d="M936.175,779.965c-2.03,19.467-4.06,38.933-6.09,58.399c5.727-3.286,11.453-6.572,17.179-9.858
			c-15.842-11.492-31.686-22.983-47.529-34.476c0,6.572,0,13.145,0,19.717c17.873-7.975,35.746-15.949,53.619-23.924
			c5.686-2.537,6.98-10.697,4.097-15.621c-3.397-5.8-9.938-6.632-15.62-4.096c-17.873,7.975-35.746,15.949-53.619,23.924
			c-8.621,3.847-6.131,15.27,0,19.717c15.842,11.491,31.686,22.983,47.529,34.476c7.749,5.621,16.381-2.213,17.179-9.858
			c2.03-19.467,4.06-38.933,6.09-58.399c0.646-6.202-5.683-11.417-11.417-11.417C940.88,768.548,936.82,773.777,936.175,779.965z"
			/>
	</g>
	<g>
		<path fill="#FFFFFF" d="M618.234,759.044c4.416,21.374,8.834,42.747,13.25,64.121c4.682-4.682,9.363-9.363,14.045-14.044
			c-20.717-6.861-41.436-13.723-62.152-20.583c1.68,6.36,3.358,12.721,5.038,19.082c16.3-14.513,32.601-29.025,48.901-43.538
			c4.65-4.141,4.207-11.938,0-16.146c-4.59-4.589-11.502-4.135-16.146,0c-16.301,14.513-32.601,29.025-48.901,43.538
			c-6.769,6.027-2.628,16.544,5.038,19.082c20.717,6.861,41.436,13.723,62.152,20.583c8.793,2.912,15.698-6.041,14.045-14.044
			c-4.418-21.374-8.834-42.747-13.252-64.121c-1.26-6.097-8.343-9.542-14.044-7.974
			C619.922,746.729,616.976,752.955,618.234,759.044z"/>
	</g>
	<g>
		<path fill="#FFFFFF" d="M581.211,425.121c23.035-0.534,40.506-19.103,41.003-41.9c0.497-22.795-18.714-41.381-41.003-41.897
			c-23.033-0.533-40.529,19.903-41.009,41.897C539.705,406.019,558.92,424.604,581.211,425.121
			c14.733,0.341,14.701-22.494,0-22.834c-10.235-0.237-17.945-8.558-18.175-19.066c-0.229-10.509,8.284-18.834,18.175-19.063
			c10.23-0.237,17.947,8.913,18.169,19.063c0.229,10.508-8.282,18.837-18.169,19.066
			C566.51,402.627,566.478,425.462,581.211,425.121z"/>
	</g>
	<g>
		<path fill="#FFFFFF" d="M394.896,563.305c-23.284-0.737-40.907,17.756-42.63,40.233c-1.763,23,17.302,41.753,39.288,43.474
			c23.215,1.816,40.972-18.565,42.632-40.23C435.949,583.779,416.886,565.025,394.896,563.305
			c-6.213-0.486-11.417,5.562-11.417,11.417c0,6.591,5.215,10.932,11.417,11.417c9.928,0.776,16.811,9.918,16.456,20.643
			c-0.346,10.487-9.885,17.711-19.798,17.396c-4.708-0.149-8.686-2.704-12.326-6.717c-2.939-3.239-4.299-8.755-4.128-13.923
			c0.345-10.487,9.885-17.714,19.796-17.399C409.629,586.605,409.584,563.771,394.896,563.305z"/>
	</g>
	<g>
		<path fill="#492DA0" d="M427.984,259.212c23.036-0.534,40.504-19.103,41.001-41.9c0.497-22.794-18.712-41.381-41.001-41.897
			c-23.033-0.533-40.527,19.903-41.007,41.897C386.48,240.109,405.693,258.696,427.984,259.212
			c14.733,0.341,14.701-22.494,0-22.834c-10.234-0.237-17.943-8.558-18.173-19.066s8.282-18.834,18.173-19.063
			c10.231-0.237,17.945,8.913,18.167,19.063c0.229,10.508-8.28,18.837-18.167,19.066
			C413.283,236.718,413.251,259.553,427.984,259.212z"/>
	</g>
	<g>
		<path fill="#492DA0" d="M395.381,764.776c-23.285-0.737-40.905,17.755-42.629,40.233c-1.764,23,17.299,41.754,39.287,43.473
			c23.215,1.815,40.971-18.562,42.632-40.229C436.434,785.252,417.37,766.497,395.381,764.776
			c-6.213-0.486-11.417,5.562-11.417,11.417c0,6.591,5.215,10.932,11.417,11.417c9.927,0.776,16.811,9.918,16.456,20.644
			c-0.346,10.486-9.886,17.709-19.798,17.395c-4.709-0.149-8.686-2.703-12.327-6.716c-2.939-3.239-4.297-8.755-4.126-13.923
			c0.347-10.488,9.881-17.714,19.795-17.399C410.113,788.077,410.068,765.242,395.381,764.776z"/>
	</g>
	<g>
		<path fill="#492DA0" d="M574.121,604.715c-23.286-0.739-40.898,17.758-42.629,40.232c-1.77,22.996,17.307,41.755,39.287,43.472
			c23.215,1.812,40.967-18.563,42.634-40.229C615.183,625.19,596.105,606.432,574.121,604.715
			c-6.213-0.485-11.417,5.561-11.417,11.417c0,6.59,5.215,10.933,11.417,11.417c9.928,0.775,16.812,9.917,16.458,20.642
			c-0.346,10.484-9.891,17.708-19.8,17.395c-4.707-0.148-8.684-2.702-12.325-6.716c-2.939-3.239-4.298-8.755-4.128-13.922
			c0.346-10.487,9.889-17.713,19.795-17.398C588.854,628.017,588.809,605.182,574.121,604.715z"/>
	</g>
	<g>
		<g>
			<path fill="#FFFFFF" d="M160.638,759.463c-19.953,19.954-39.907,39.907-59.86,59.86c-10.42,10.421,5.726,26.567,16.146,16.146
				c19.953-19.954,39.906-39.907,59.86-59.86C187.205,765.188,171.059,749.043,160.638,759.463L160.638,759.463z"/>
		</g>
		<g>
			<path fill="#FFFFFF" d="M176.784,820.821c-19.954-19.953-39.907-39.907-59.86-59.861c-10.421-10.421-26.566,5.726-16.146,16.146
				c19.953,19.953,39.907,39.907,59.86,59.861C171.059,847.389,187.205,831.242,176.784,820.821L176.784,820.821z"/>
		</g>
	</g>
</g>
</svg>
