<svg version="1.1" id="Layer_1" xmlns="http://www.w3.org/2000/svg" xmlns:xlink="http://www.w3.org/1999/xlink" x="0px" y="0px"
	 width="256px" height="256px" viewBox="0 0 1024 1024" enable-background="new 0 0 1024 1024" xml:space="preserve">

	<style>
		#texture_cycling {
			mix-blend-mode: multiply;
		}
	</style>

	<g>
		<path fill="#FFFFFF" d="M142.578,99c-49.283,6-89.328,6.052-117.045,55.331C7.051,191.29,19.369,246.675,53.25,268.232
			c49.285,30.807,311.088,3.054,286.449,107.779c-15.406,67.76-277.207,73.904-197.125,190.944
			c58.523,92.404,274.127-33.886,366.527,36.954C660.023,724.03,364.336,751.75,311.975,810.275
			c-95.479,104.717,163.244,126.277,221.764,123.195c58.523-6.156,120.129-15.396,178.648-9.239
			c52.359,6.158,98.557,27.722,147.84,30.798c86.242,6.162,252.562-36.955,107.803-117.041
			c-55.445-30.803-107.803-30.803-169.404-43.121c-58.525-9.236-61.602-33.879-27.721-83.158
			c18.477-30.805,89.324-86.248,80.084-129.365c-9.238-40.043-107.805-80.08-141.686-92.402
			c-40.039-18.479-144.76-18.479-169.398-46.199c-15.406-24.643-6.166-70.842,6.154-92.402
			c33.885-67.762,157.082-135.523,6.164-169.404c-83.164-18.479-150.922,9.354-234.084-33.765C262.699,117.37,222.658,99,154.896,99
			H142.578z"/>
	</g>

	<filter id="desaturate">
        <feColorMatrix type="matrix" values="0.3333 0.3333 0.3333 0 0
                                             0.3333 0.3333 0.3333 0 0
                                             0.3333 0.3333 0.3333 0 0
                                             0      0      0      1 0"/>
    </filter>

	<g id="texture_cycling" opacity="0.35" filter="url(#desaturate)">
		<defs>
			<path id="SVGID_10_" opacity="0.35" d="M126.578,99c-49.283,6-89.328,6.052-117.045,55.331
				C-8.949,191.29,3.369,246.675,37.25,268.232c49.285,30.807,311.088,3.054,286.449,107.779
				c-15.406,67.76-277.207,73.904-197.125,190.944c58.523,92.404,274.127-33.886,366.527,36.954
				C644.023,724.03,348.336,751.75,295.975,810.275c-95.479,104.717,163.244,126.277,221.764,123.195
				c58.523-6.156,120.129-15.396,178.648-9.239c52.359,6.158,98.557,27.722,147.84,30.798
				c86.242,6.162,252.562-36.955,107.803-117.041c-55.445-30.803-107.803-30.803-169.404-43.121
				c-58.525-9.236-61.602-33.879-27.721-83.158c18.477-30.805,89.324-86.248,80.084-129.365
				c-9.238-40.043-107.805-80.08-141.686-92.402c-40.039-18.479-144.76-18.479-169.398-46.199
				c-15.406-24.643-6.166-70.842,6.154-92.402c33.885-67.762,157.082-135.523,6.164-169.404
				c-83.164-18.479-150.922,9.354-234.084-33.765C246.699,117.37,206.658,99,138.896,99H126.578z"/>
		</defs>
		<clipPath id="texture_cycling_clip">
			<use xlink:href="#SVGID_10_"  overflow="visible"/>
		</clipPath>
		<g clip-path="url(#texture_cycling_clip)">

				<image overflow="visible" width="826" height="662" xlink:href="/img/texture_paint.jpg"  transform="matrix(1.3625 0 0 1.3625 -72.4492 85.1426)">
			</image>
		</g>
	</g>

	<g class="text">
		<g>
			<path fill="#0F9E5B" d="M360.793,265.544c-4.763,1.776-10.5,2.082-17.211,0.915c-5.703-0.991-10.655-3.156-14.857-6.491
				c-4.205-3.335-7.565-7.568-10.085-12.695c-2.519-5.127-4.151-11-4.895-17.619c-0.745-6.617-0.46-13.697,0.851-21.238
				c1.327-7.631,3.461-14.461,6.404-20.486c2.941-6.025,6.46-11.002,10.554-14.933c4.094-3.929,8.678-6.733,13.754-8.409
				c5.074-1.675,10.462-2.018,16.165-1.026c6.527,1.135,11.772,3.254,15.732,6.359c3.959,3.104,6.969,6.636,9.029,10.593
				l-14.644,13.938c-1.271-2.495-2.83-4.564-4.675-6.212c-1.846-1.646-4.333-2.743-7.458-3.286
				c-2.943-0.512-5.632-0.173-8.062,1.014c-2.434,1.189-4.644,3.007-6.633,5.455c-1.988,2.45-3.676,5.471-5.058,9.068
				c-1.385,3.596-2.442,7.511-3.178,11.739c-0.735,4.231-1.057,8.249-0.959,12.054c0.095,3.807,0.663,7.22,1.7,10.243
				c1.038,3.022,2.524,5.508,4.459,7.454c1.936,1.948,4.373,3.176,7.316,3.688c2.942,0.512,5.646,0.225,8.108-0.864
				c2.462-1.086,4.512-2.53,6.152-4.33l9.614,17.445C369.595,261.227,365.554,263.768,360.793,265.544z"/>
			<path fill="#0F9E5B" d="M434.841,261.672l-20.646,29.125l-17.932-12.712l20.646-29.124l16.233-66.231l19.759,14.007
				l-14.015,40.347l0.229,0.162l33.545-26.501l19.416,13.764L434.841,261.672z"/>
			<path fill="#0F9E5B" d="M452.935,361.69c-3.917-3.24-7.046-8.058-9.386-14.456c-1.988-5.436-2.585-10.808-1.794-16.114
				c0.791-5.309,2.78-10.333,5.965-15.076c3.185-4.742,7.458-9.088,12.822-13.037c5.361-3.95,11.638-7.237,18.826-9.867
				c7.274-2.66,14.258-4.222,20.947-4.679c6.689-0.459,12.758,0.104,18.208,1.689c5.447,1.585,10.166,4.157,14.152,7.719
				c3.984,3.56,6.972,8.058,8.959,13.494c2.276,6.223,3.058,11.825,2.346,16.807c-0.713,4.98-2.271,9.351-4.671,13.112
				l-19.387-5.729c1.526-2.347,2.541-4.73,3.049-7.152c0.505-2.421,0.213-5.123-0.876-8.102c-1.026-2.806-2.662-4.966-4.904-6.479
				c-2.245-1.515-4.924-2.522-8.037-3.023c-3.116-0.5-6.576-0.453-10.383,0.145c-3.807,0.596-7.727,1.633-11.758,3.107
				c-4.032,1.475-7.675,3.203-10.923,5.188c-3.25,1.983-5.925,4.179-8.025,6.587s-3.512,4.937-4.232,7.585
				c-0.722,2.649-0.568,5.374,0.458,8.181c1.025,2.804,2.624,5.003,4.796,6.594c2.171,1.591,4.445,2.646,6.824,3.169l-10.315,17.04
				C461.07,367.161,456.852,364.928,452.935,361.69z"/>
			<path fill="#0F9E5B" d="M455.865,400.407l94.027-31.363l7.176,21.515l-74.372,24.807l8.373,25.101l-19.656,6.556L455.865,400.407
				z"/>
			<path fill="#0F9E5B" d="M530.413,494.188l41.154-90.173l20.506,9.359l-41.154,90.172L530.413,494.188z"/>
			<path fill="#0F9E5B" d="M639.885,526.021l-14.005-63.023l-0.415-0.061l-8.16,59.788l-19.811-2.892l14.315-98.081l24.382,3.559
				l13.745,63.834l0.415,0.061l8.421-60.599l19.117,2.791l-14.315,98.081L639.885,526.021z"/>
			<path fill="#0F9E5B" d="M749.005,536.729c-4.66,0.76-9.986,0.66-15.976-0.305c-6.174-0.995-11.479-3.125-15.915-6.393
				c-4.438-3.268-7.979-7.405-10.621-12.417c-2.645-5.011-4.358-10.792-5.146-17.35c-0.788-6.555-0.565-13.655,0.666-21.305
				c1.232-7.647,3.255-14.482,6.069-20.506c2.813-6.021,6.246-11.047,10.298-15.074s8.604-6.91,13.659-8.648
				c5.053-1.738,10.437-2.147,16.151-1.227c6.634,1.068,12.002,3.092,16.109,6.069c4.104,2.979,7.173,6.38,9.204,10.204
				l-14.63,14.234c-2.59-5.144-6.754-8.178-12.492-9.103c-3.054-0.492-5.823-0.109-8.303,1.144c-2.482,1.255-4.686,3.145-6.612,5.67
				s-3.533,5.577-4.82,9.15c-1.289,3.575-2.266,7.435-2.934,11.581s-0.975,8.116-0.92,11.905c0.054,3.791,0.577,7.184,1.568,10.179
				s2.442,5.499,4.352,7.508c1.91,2.009,4.394,3.26,7.452,3.752c3.334,0.537,6.042,0.265,8.117-0.819l2.939-18.245l-10.505-1.692
				l3.095-19.212l29.855,4.809l-8.395,52.108C757.754,534.642,753.665,535.968,749.005,536.729z"/>
		</g>
	</g>

	<g class="extras border">
		<path fill="#0F9E5B" d="M747.467,120.07c5.959,0.018,11.902,0.482,17.821,1.149c0.814,0.092,1.629,0.193,2.442,0.294
			c2.863,0.354-2.553-0.359,0.349,0.042c1.728,0.239,3.45,0.505,5.172,0.779c3.936,0.626,7.853,1.359,11.758,2.153
			c16.324,3.319,32.416,8.037,47.839,14.348c3.096,1.267-2.037-0.885,1.024,0.437c0.921,0.397,1.835,0.809,2.749,1.22
			c1.812,0.816,3.605,1.674,5.392,2.548c3.778,1.85,7.472,3.868,11.089,6.017c3.204,1.904,6.309,3.972,9.325,6.161
			c0.334,0.243,2.751,2.104,0.6,0.425c0.701,0.547,1.388,1.114,2.073,1.681c1.566,1.295,3.068,2.664,4.537,4.067
			c1.224,1.169,2.389,2.397,3.528,3.647c0.562,0.615,3.737,4.589,1.899,2.167c2.08,2.741,3.852,5.703,5.352,8.796
			c0.268,0.553,1.262,3.042,0.101,0.162c0.29,0.717,0.54,1.45,0.791,2.181c0.502,1.465,0.883,2.967,1.22,4.477
			c0.17,0.759,0.296,1.528,0.422,2.295c-0.525-3.203-0.1-0.538-0.042,0.13c0.162,1.871,0.142,3.752,0.052,5.625
			c-0.039,0.828-0.125,1.652-0.211,2.476c0.322-3.089-0.002-0.213-0.106,0.37c-0.313,1.748-0.769,3.467-1.263,5.171
			c-0.525,1.81-1.188,3.578-1.887,5.327c0.953-2.387-0.355,0.679-0.484,0.951c-0.593,1.259-1.25,2.486-1.914,3.708
			c-1.059,1.95-2.238,3.833-3.445,5.694c-0.578,0.891-1.186,1.762-1.797,2.63c-0.266,0.377-2.055,2.663-0.344,0.497
			c-2.5,3.165-5.314,6.076-8.199,8.888c-12.776,12.455-27.624,22.623-41.188,34.171c-13.647,11.619-26.408,24.998-32.562,42.153
			c-6.615,18.438-0.393,38.602,10.879,53.774c10.365,13.953,24.809,24.2,38.967,33.99c14.694,10.161,32.096,21.245,44.383,31.124
			c6.796,5.464,13.248,11.384,18.949,17.994c0.645,0.748,1.268,1.516,1.889,2.284c2.039,2.52-1.301-1.77,0.603,0.815
			c1.13,1.534,2.174,3.128,3.181,4.744c0.985,1.58,1.869,3.219,2.712,4.878c0.415,0.818,0.791,1.655,1.166,2.492
			c-1.152-2.569,0.339,1.054,0.512,1.548c0.596,1.708,1.051,3.461,1.453,5.223c0.202,0.884,0.352,1.778,0.501,2.672
			c-0.482-2.88-0.022,0.129,0.021,0.636c0.16,1.856,0.15,3.723,0.084,5.583c-0.033,0.955-0.125,1.907-0.217,2.858
			c0.268-2.785-0.26,1.36-0.361,1.875c-0.401,2.038-0.98,4.036-1.607,6.013c-0.257,0.81-2.189,5.61-1,2.872
			c-1.438,3.308-3.245,6.444-5.24,9.443c-0.458,0.688-0.942,1.359-1.426,2.029c-1.655,2.295,1.509-1.868-0.257,0.348
			c-1.036,1.3-2.14,2.545-3.26,3.773c-2.464,2.7-5.152,5.189-7.926,7.566c-0.619,0.53-4.636,3.717-2.416,2.012
			c-1.384,1.062-2.799,2.082-4.223,3.088c-3.143,2.223-6.388,4.297-9.669,6.308c-12.949,7.94-26.66,14.547-39.922,21.932
			c-12.869,7.167-25.705,15.277-35.891,26.043c-10.951,11.573-17.252,25.736-18.624,41.575
			c-1.555,17.96,4.668,35.795,11.737,51.989c6.521,14.938,15.014,28.968,23.986,42.539c17.533,26.519,38.03,51.114,54.231,78.506
			c3.346,5.657,6.425,11.478,9.044,17.508c-1.386-3.19,0.463,1.231,0.761,2.021c0.493,1.31,0.941,2.635,1.37,3.966
			c0.882,2.737,1.574,5.531,2.097,8.358c0.115,0.625,0.209,1.254,0.303,1.882c-0.536-3.594-0.188-1.305-0.108-0.51
			c0.12,1.217,0.17,2.439,0.192,3.661c0.021,1.196-0.033,2.392-0.116,3.585c-0.041,0.59-0.109,1.177-0.178,1.764
			c0.454-3.89,0.096-0.969-0.078-0.094c-0.23,1.15-0.546,2.281-0.89,3.402c-0.173,0.563-0.375,1.117-0.577,1.671
			c-0.771,2.117,1.146-2.561,0.225-0.491c-1.09,2.449-2.523,4.73-4.115,6.88c2.201-2.971-0.608,0.591-1.227,1.26
			c-0.952,1.028-1.973,1.992-3.01,2.935c-0.612,0.557-4.365,3.502-1.778,1.55c-1.503,1.134-3.074,2.174-4.663,3.182
			c-3.037,1.927-6.232,3.597-9.471,5.153c-3.719,1.786-5.572,2.508-10.847,4.378c-23.208,8.228-47.66,11.404-71.896,14.953
			c-49.346,7.226-95.267,26.214-141.548,43.854c-46.809,17.842-94.331,31.376-144.841,30.871
			c-30.646-0.306-61.514-3.563-91.898-7.361c-30.662-3.834-61.139-9.303-91.266-16.157c-30.345-6.903-60.309-15.479-89.682-25.761
			c-17.582-6.155-33.145-12.073-49-19.699c-17.971-8.644-34.591-18.524-48.027-31.776c-6.72-6.627-10.561-11.608-14.938-20.544
			c-0.075-0.153-1.465-3.351-0.578-1.197c-0.404-0.981-0.759-1.982-1.113-2.982c-0.71-2.009-1.263-4.069-1.757-6.141
			c-1.025-4.291-1.196-6.531-1.068-12.274c0.177-7.938,2.774-17.599,6.013-23.988c0.944-1.865,2.027-3.655,3.153-5.415
			c0.556-0.869,1.154-1.709,1.752-2.55c1.951-2.743-1.366,1.64,0.749-0.966c2.796-3.444,6.012-6.531,9.396-9.389
			c0.147-0.125,2.817-2.215,0.962-0.803c0.827-0.629,1.677-1.229,2.525-1.828c1.716-1.211,3.492-2.334,5.282-3.431
			c3.973-2.435,8.139-4.546,12.362-6.506c0.995-0.462,2-0.901,3.005-1.341c-2.024,0.886,1.322-0.542,1.394-0.571
			c2.069-0.841,4.162-1.626,6.26-2.395c4.615-1.692,9.297-3.196,13.997-4.629c36.269-11.055,81.711-15.087,107.136-46.624
			c26.888-33.351,16.21-78.549-6.864-110.803c-13.661-19.097-32.031-33.561-48.918-49.624
			c-7.358-6.999-14.518-14.253-20.847-22.208c1.348,1.694-0.783-1.075-0.843-1.156c-0.618-0.843-1.211-1.705-1.802-2.566
			c-1.14-1.663-2.191-3.384-3.202-5.127c-0.967-1.668-1.827-3.395-2.641-5.142c-1.323-2.844,0.814,2.128-0.299-0.762
			c-0.439-1.14-0.806-2.307-1.16-3.476c-0.523-1.73-0.895-3.502-1.207-5.281c0.502,2.856-0.137-2.373-0.16-3.303
			c-0.046-1.851,0.089-3.701,0.279-5.54c-0.292,2.813,0.109-0.354,0.191-0.791c0.245-1.302,0.583-2.584,0.931-3.862
			c0.551-2.028,1.278-4.005,2.047-5.96c-0.812,2.064,0.652-1.353,0.679-1.409c0.502-1.064,1.053-2.104,1.602-3.143
			c2.685-5.08,5.98-9.825,9.441-14.401c8.537-11.288,19.376-20.539,29.206-30.625c9.177-9.415,17.479-20.054,23.575-31.73
			c9.911-18.978,12.538-40.419,6.593-61.05c-5.806-20.142-18.713-37.553-32.362-53.077c-14.687-16.704-31.343-31.584-47.559-46.762
			c-14.033-13.135-30.222-28.938-40.479-42.62c-5.461-7.282-10.406-14.953-14.738-22.958c-1.004-1.854-1.95-3.739-2.873-5.634
			c-0.454-0.934-0.888-1.877-1.32-2.82c-0.1-0.215-1.453-3.339-0.5-1.069c-1.656-3.945-3.05-7.996-4.211-12.113
			c-0.512-1.814-0.935-3.652-1.322-5.497c-0.189-0.901-0.347-1.809-0.502-2.716c-0.522-3.037,0.262,2.434-0.096-0.592
			c-0.441-3.738-0.473-7.513-0.158-11.26c0.243-2.886-0.418,2.508,0.027-0.333c0.129-0.82,0.303-1.631,0.479-2.442
			c0.347-1.61,0.835-3.186,1.372-4.742c0.184-0.533,1.303-3.08,0.1-0.36c0.334-0.755,0.717-1.489,1.099-2.221
			c0.908-1.739,2.003-3.373,3.162-4.953c-1.639,2.233,1.654-1.702,2.273-2.325c0.643-0.646,1.325-1.252,2.006-1.857
			c0.266-0.235,2.694-2.136,0.666-0.603c3.608-2.728,7.641-4.859,11.76-6.698c-1.902,0.85,1.678-0.618,1.639-0.603
			c1.145-0.431,2.309-0.813,3.471-1.196c2.479-0.816,5.006-1.48,7.539-2.104c5.727-1.411,11.447-2.281,17.164-2.86
			c23.506-2.379,45.979,0.368,68.587,5.96c46.526,11.509,89.563,33.655,135.29,47.68c23.709,7.271,48.274,12.112,73.102,12.929
			c28.173,0.927,56.518-4.85,84.353-8.504C602.533,129.103,674.854,120.151,747.467,120.07c14.509-0.016,14.51-22.516,0-22.5
			c-62.033,0.069-123.872,6.707-185.353,14.417c-30.027,3.766-60.004,8.594-90.107,11.683c-24.331,2.497-48.302,0.008-71.887-5.543
			c-46.869-11.032-90.125-33.094-135.874-47.605c-22.861-7.252-46.529-12.271-70.543-13.253
			c-23.352-0.955-48.455,1.776-69.54,12.434c-15.062,7.613-26.749,21.699-29.398,38.576c-2.79,17.77,2.223,34.978,9.59,51.034
			c16.959,36.958,48.22,64.214,77.298,91.463c8.144,7.632,16.201,15.358,23.945,23.397c6.984,7.25,14.416,15.706,19.629,22.842
			c2.812,3.849,5.41,7.85,7.821,11.961c1.166,1.989,2.245,4.028,3.286,6.084c0.514,1.013,0.992,2.042,1.471,3.07
			c0.312,0.682,0.617,1.368,0.913,2.057c-0.418-0.964-0.374-0.826,0.132,0.415c3.726,9.474,4.83,15.646,4.638,24.802
			c-0.108,5.159-0.349,6.203-1.687,11.588c-1.354,5.442-2.867,9.082-5.138,13.589c-5.658,11.233-13.75,20.854-22.567,29.726
			c-17.99,18.104-37.359,36.048-45.657,60.952c-13.649,40.964,24.863,73.215,51.608,97.564
			c16.514,15.033,30.382,28.4,40.446,48.094c2.446,4.784,3.078,6.4,4.758,11.188c1.599,4.558,2.794,9.248,3.674,13.994
			c0.036,0.196,0.573,3.743,0.251,1.297c0.14,1.064,0.237,2.133,0.334,3.202c0.191,2.112,0.251,4.233,0.262,6.354
			c0.01,2.092-0.119,4.181-0.3,6.264c-0.296,3.411,0.392-2.252-0.12,1.123c-0.206,1.361-0.49,2.71-0.786,4.054
			c-0.443,2.017-1.04,3.995-1.688,5.953c-0.325,0.982-0.703,1.947-1.079,2.912c0.869-2.226-0.46,0.922-0.554,1.119
			c-0.908,1.908-1.971,3.738-3.079,5.535c-0.563,0.915-1.178,1.799-1.79,2.682c-0.785,1.055-0.852,1.169-0.203,0.343
			c-0.457,0.578-0.926,1.148-1.403,1.71c-6.703,8.018-13.757,12.654-23.341,17.387c-15.994,7.897-34.376,11.425-51.525,15.915
			c-35.388,9.266-76.819,21.134-95.222,55.987c-9.508,18.007-11.938,40.357-5.454,59.741c6.521,19.498,20.842,34.759,36.865,47.03
			c32.564,24.94,73.246,38.916,111.88,51.403c59.822,19.335,121.858,31.281,184.289,38.171c29.831,3.292,60.19,6.205,90.228,5.224
			c26.078-0.853,52.035-5.176,77.216-11.911c46.444-12.425,89.987-33.423,135.688-48.103c24.948-8.014,50.26-13.393,76.196-16.965
			c22.741-3.133,45.833-7.403,67.212-16.022c14.657-5.91,28.174-13.751,37.712-26.625c6.897-9.31,9.435-21.703,8.02-33.076
			c-3.494-28.085-21.877-52.662-37.882-75.048c-19.113-26.733-39.527-52.97-53.891-82.692c-0.826-1.709-1.616-3.435-2.394-5.166
			c-0.385-0.859-0.757-1.724-1.129-2.588c1.062,2.468-0.154-0.411-0.299-0.768c-1.608-3.97-3.031-8.013-4.286-12.107
			c-1.299-4.234-2.284-8.56-3-12.929c-0.55-3.354,0.242,2.275-0.127-1.021c-0.109-0.97-0.18-1.942-0.249-2.915
			c-0.155-2.164-0.166-4.336-0.107-6.504c0.048-1.758,0.21-3.511,0.415-5.256c-0.371,3.155,0.443-1.941,0.639-2.791
			c0.362-1.581,0.835-3.134,1.344-4.673c0.25-0.756,0.535-1.5,0.82-2.243c0.707-1.844-0.934,1.985,0.443-0.921
			c1.338-2.822,2.989-5.488,4.785-8.039c0.33-0.471,1.988-2.604,0.125-0.225c0.484-0.619,0.992-1.221,1.5-1.821
			c1.196-1.417,2.475-2.764,3.777-4.082c2.287-2.318,4.752-4.458,7.279-6.509c0.395-0.32,2.646-2.042,0.35-0.29
			c0.669-0.51,1.349-1.006,2.028-1.502c1.608-1.174,3.254-2.296,4.91-3.4c6.143-4.1,12.582-7.744,19.06-11.282
			c13.312-7.27,26.956-13.959,39.761-22.122c27.625-17.611,51.311-46.066,43.341-80.996c-3.883-17.017-16.022-31.331-28.655-42.743
			c-14.22-12.847-30.412-23.413-46.271-34.086c-7.47-5.027-14.921-10.087-22.135-15.479c-0.177-0.132-2.866-2.19-0.957-0.711
			c-0.788-0.611-1.568-1.233-2.348-1.855c-1.516-1.211-3.002-2.458-4.475-3.723c-2.983-2.562-5.83-5.28-8.512-8.156
			c-1.147-1.23-2.234-2.516-3.291-3.823c1.838,2.273,0.141,0.149-0.183-0.299c-0.772-1.072-1.495-2.179-2.216-3.286
			c-3.104-4.768-4.45-7.62-5.822-11.902c-0.617-1.928-1.047-3.909-1.4-5.899c0.477,2.682-0.014-0.394-0.05-0.833
			c-0.077-0.936-0.088-1.875-0.099-2.812c-0.01-0.926,0.558-6.227,0.124-3.396c0.32-2.091,0.874-4.14,1.507-6.155
			c0.272-0.869,0.598-1.72,0.922-2.571c-0.971,2.549,0.149-0.286,0.335-0.682c0.795-1.696,1.723-3.327,2.681-4.934
			c0.986-1.653,2.081-3.237,3.201-4.8c1.888-2.635-1.401,1.714,0.634-0.854c0.831-1.049,1.703-2.066,2.579-3.08
			c5.785-6.697,12.456-12.608,19.223-18.285c13.553-11.37,28.234-21.513,40.737-34.088c12.74-12.814,21.755-29.09,23.972-47.109
			c1.928-15.675-4.797-30.51-14.543-42.339c-17.144-20.81-45.048-32.419-70.018-40.47c-23.317-7.518-48.629-12.896-73.221-12.969
			C732.955,97.527,732.959,120.027,747.467,120.07z"/>
	</g>

	<g class="extras">
		<g>
			<path fill="#0F9E5B" d="M920.555,279.553c5.299,20.026,10.598,40.052,15.896,60.078c4.612-4.613,9.226-9.226,13.838-13.839
				c-19.992-5.424-39.985-10.848-59.979-16.271c1.655,6.268,3.311,12.536,4.965,18.803c14.693-14.603,29.388-29.205,44.082-43.807
				c10.302-10.238-5.611-26.145-15.91-15.91c-14.693,14.603-29.388,29.205-44.082,43.807c-5.993,5.956-3.197,16.589,4.965,18.803
				c19.992,5.424,39.985,10.848,59.979,16.271c8.332,2.26,16.032-5.548,13.838-13.839c-5.299-20.026-10.598-40.052-15.896-60.078
				C938.542,259.557,916.838,265.51,920.555,279.553z"/>
		</g>
		<g>
			<path fill="#E36E5F" d="M534.389,687.814c-18.771-18.639-37.543-37.277-56.314-55.916c-4.338-4.307-11.58-4.361-15.91,0
				c-18.019,18.147-36.037,36.294-54.057,54.441c-10.229,10.303,5.677,26.217,15.91,15.91
				c18.019-18.147,36.037-36.294,54.057-54.441c-5.304,0-10.606,0-15.91,0c18.771,18.639,37.543,37.277,56.314,55.916
				C528.781,713.954,544.695,698.048,534.389,687.814L534.389,687.814z"/>
		</g>
		<g>
			<path fill="#0F9E5B" d="M814.953,758.555c-23.907,0.524-42.078,19.868-42.566,43.516c-0.488,23.646,19.395,43.005,42.566,43.514
				c23.904,0.524,42.096-20.656,42.568-43.514C858.01,778.423,838.126,759.063,814.953,758.555c-14.518-0.318-14.487,22.182,0,22.5
				c11.155,0.245,19.828,9.373,20.068,21.016c0.24,11.645-9.272,20.777-20.068,21.014c-11.156,0.245-19.834-9.741-20.066-21.014
				c-0.24-11.645,9.271-20.778,20.066-21.016C829.44,780.736,829.471,758.236,814.953,758.555z"/>
		</g>
		<g>
			<path fill="#0F9E5B" d="M257.453,433.555c-23.907,0.524-42.078,19.868-42.566,43.516c-0.488,23.646,19.395,43.005,42.566,43.514
				c23.904,0.524,42.096-20.657,42.568-43.514C300.51,453.423,280.626,434.063,257.453,433.555c-14.518-0.318-14.487,22.182,0,22.5
				c11.155,0.245,19.828,9.373,20.068,21.016c0.24,11.645-9.272,20.777-20.068,21.014c-11.156,0.245-19.834-9.741-20.066-21.014
				c-0.24-11.644,9.271-20.779,20.066-21.016C271.94,455.737,271.971,433.236,257.453,433.555z"/>
		</g>
		<g>
			<path fill="#E36E5F" d="M177.799,92.57c-23.906,0.524-42.079,19.868-42.568,43.516c-0.489,23.646,19.396,43.005,42.568,43.514
				c23.905,0.524,42.096-20.656,42.568-43.514C220.855,112.439,200.972,93.079,177.799,92.57c-14.518-0.318-14.487,22.182,0,22.5
				c11.155,0.245,19.828,9.373,20.068,21.016c0.24,11.646-9.272,20.777-20.068,21.014c-11.155,0.245-19.835-9.74-20.068-21.014
				c-0.24-11.644,9.275-20.779,20.068-21.016C192.286,114.752,192.316,92.252,177.799,92.57z"/>
		</g>
		<g>
			<path fill="#E36E5F" d="M805.299,157.57c-23.906,0.524-42.079,19.868-42.568,43.516c-0.489,23.646,19.396,43.005,42.568,43.514
				c23.905,0.524,42.096-20.656,42.568-43.514C848.355,177.439,828.472,158.079,805.299,157.57c-14.518-0.318-14.487,22.182,0,22.5
				c11.155,0.245,19.828,9.373,20.068,21.016c0.24,11.646-9.272,20.777-20.068,21.014c-11.155,0.245-19.835-9.74-20.068-21.014
				c-0.24-11.644,9.275-20.779,20.068-21.016C819.786,179.752,819.816,157.252,805.299,157.57z"/>
		</g>
		<g>
			<path fill="#E36E5F" d="M867.799,580.07c-23.906,0.524-42.079,19.868-42.568,43.516s19.396,43.004,42.568,43.512
				c23.906,0.524,42.096-20.653,42.568-43.512C910.855,599.938,890.972,580.579,867.799,580.07c-14.518-0.318-14.487,22.182,0,22.5
				c11.155,0.245,19.828,9.373,20.068,21.016c0.24,11.647-9.272,20.775-20.068,21.012c-11.155,0.244-19.835-9.736-20.068-21.012
				c-0.24-11.644,9.275-20.779,20.068-21.016C882.286,602.252,882.316,579.752,867.799,580.07z"/>
		</g>
		<g>
			<g>
				<path fill="#0F9E5B" d="M203.74,588.498c-19.131,19.131-38.262,38.262-57.393,57.393c-10.268,10.269,5.642,26.179,15.91,15.91
					c19.131-19.131,38.262-38.262,57.393-57.393C229.918,594.14,214.009,578.229,203.74,588.498L203.74,588.498z"/>
			</g>
			<g>
				<path fill="#0F9E5B" d="M219.65,647.326c-19.131-19.131-38.262-38.262-57.393-57.393c-10.269-10.269-26.178,5.642-15.91,15.91
					c19.131,19.131,38.262,38.262,57.393,57.393C214.009,673.505,229.918,657.595,219.65,647.326L219.65,647.326z"/>
			</g>
		</g>
		<g>
			<path fill="#E36E5F" d="M451.889,767.814c-18.771-18.639-37.543-37.277-56.314-55.916c-4.338-4.307-11.58-4.361-15.91,0
				c-18.019,18.147-36.037,36.294-54.057,54.441c-10.229,10.303,5.677,26.217,15.91,15.91
				c18.019-18.147,36.037-36.294,54.057-54.441c-5.304,0-10.606,0-15.91,0c18.771,18.639,37.543,37.277,56.314,55.916
				C446.281,793.954,462.195,778.048,451.889,767.814L451.889,767.814z"/>
		</g>
		<g>
			<path fill="#E36E5F" d="M369.389,850.314c-18.771-18.639-37.543-37.277-56.314-55.916c-4.338-4.307-11.58-4.361-15.91,0
				c-18.019,18.147-36.037,36.294-54.057,54.441c-10.229,10.303,5.677,26.217,15.91,15.91
				c18.019-18.147,36.037-36.294,54.057-54.441c-5.304,0-10.606,0-15.91,0c18.771,18.639,37.543,37.277,56.314,55.916
				C363.781,876.454,379.695,860.548,369.389,850.314L369.389,850.314z"/>
		</g>
	</g>
</svg>
