<svg version="1.1" xmlns="http://www.w3.org/2000/svg" xmlns:xlink="http://www.w3.org/1999/xlink" x="0px" y="0px"
	 width="256px" height="256px" viewBox="0 0 1024 1024" enable-background="new 0 0 1024 1024" xml:space="preserve">

	<style>
		#texture_coffee {
			mix-blend-mode: color-burn;
		}
	</style>

	<g>
		<path fill="#534741" d="M251.516,263.789C62.752,303.436-8.811,612.541,15.041,747.707
			c39.756,262.375,367.447,320.168,549.855,177.125c126.357-99.09,300.881-336.141,308.83-511.061
			c7.953-230.574-294.178-182.869-445.244-166.969c-79.508,7.953-77.752-17.893-149.311,5.957L251.516,263.789z"/>
	</g>

	<g id="texture_coffee">
		<defs>
			<path id="SVGID_8_" d="M270.062,274.391C81.303,314.037,9.738,623.141,33.592,758.307
				c39.756,262.375,367.447,320.168,549.854,177.125c126.359-99.09,300.881-336.141,308.832-511.061
				c7.953-230.572-294.18-182.867-445.244-166.969c-79.508,7.953-77.754-17.893-149.311,5.959L270.062,274.391z"/>
		</defs>
		<clipPath id="SVGID_3_">
			<use xlink:href="#SVGID_8_" overflow="visible"/>
		</clipPath>
		<g clip-path="url(#SVGID_3_)">
			<image overflow="visible" width="826" height="662" xlink:href="/img/texture_paint_orange.jpg"  transform="matrix(1.1664 0 0 1.1664 -43.6138 231.7139)"></image>
		</g>
	</g>

	<g class="text">
		<g>
			<path fill="#E36E5F" d="M334.8208,852.24707c-8.57617,16.49805-25.99951,25.12793-52.59033,17.83105
				c-30.70898-8.42676-40.73047-32.30469-34.24121-55.9541c6.23193-22.70801,27.02637-39.01562,59.0293-30.2334
				c28.12109,7.71582,37.29492,25.9209,35.31348,41.44434l-27.06201-7.4248c0.05029-4.79395-1.48926-12.55469-13.37305-15.81543
				c-12.58984-3.4541-21.41895,4.75-25.39111,19.22168c-3.61523,13.17773-2.03125,26.77051,11.85303,30.58008
				c10.00049,2.74414,15.34521-0.59668,19.63623-7.01074L334.8208,852.24707z"/>
			<path fill="#E36E5F" d="M451.0542,849.84082c-1.3501,24.11816-18.59521,44.04883-52.21533,42.16699
				c-30.94043-1.73145-46.89014-22.41992-45.48535-47.51367c1.32324-23.63086,19.06885-43.77734,51.71387-41.9502
				C436.00879,804.27539,452.41748,825.47852,451.0542,849.84082z M382.7373,845.65039
				c-0.83838,14.9834,4.5166,26.2793,18.52539,27.06445c14.49561,0.81055,19.70557-11.4834,20.42773-24.39551
				c0.83203-14.86133-3.79199-26.11719-18.2876-26.92871C389.63721,820.62012,383.52197,831.6416,382.7373,845.65039z"/>
			<path fill="#E36E5F" d="M457.68701,799.24023l69.38623-27.91504l7.37793,18.33691l-43.69238,17.57812l5.7373,14.26172
				l40.8623-16.43945l7.42285,18.4502l-40.86279,16.43945l11.47607,28.52441l-25.69531,10.33691L457.68701,799.24023z"/>
			<path fill="#E36E5F" d="M539.51367,766.45703l44.80859-59.87207l15.82227,11.8418l-28.21484,37.7002l12.30664,9.21094
				l26.3877-35.25977l15.9209,11.91504l-26.38867,35.25879l24.61328,18.4209l-16.59277,22.1709L539.51367,766.45703z"/>
			<path fill="#E36E5F" d="M656.4873,634.34961l-15.00586,43.34473l13.60254,4.70996l16.7627-48.41797l17.6377,9.46191
				l-24.7041,71.3584l-81.04199-28.05566l24.7832-71.58984l18.67578,6.46582l-15.80371,45.65137l11.29688,3.91113l15.00684-43.3457
				L656.4873,634.34961z"/>
			<path fill="#E36E5F" d="M688.95996,544.09375l-15.94531,43.01172l13.49902,5.00391l17.81055-48.04492l17.42969,9.84375
				l-26.24902,70.81055l-80.41992-29.8125l26.33496-71.03809l18.53125,6.86914l-16.79297,45.2998l11.21094,4.15625
				l15.94531-43.01172L688.95996,544.09375z"/>
		</g>
	</g>

	<g class="extras border">
		<path fill="#E36E5F" d="M52.993,242.25c9.099,72.188,1.217,145.578-6.036,217.565c-7.356,73.019-16.172,146.933-9.91,220.371
			c5.82,68.243,27.053,135.267,76.625,184.531c27.964,27.79,62.464,47.565,98.852,62.129c19.027,7.615,38.771,13.48,58.489,19.02
			c16.896,4.746,34.06,8.528,51.332,11.624c78.376,14.046,161.426,15.312,238.939-4.487c36.748-9.387,72.873-24.376,103.396-47.157
			c14.984-11.184,28.591-23.939,40.103-38.702c12.938-16.595,22.423-34.516,30.257-54.003
			c20.445-50.859,30.311-104.63,41.71-157.991c11.35-53.125,26.657-104.655,54.831-151.511
			c13.988-23.264,30.492-45.092,46.39-67.068c16.027-22.155,32.097-44.282,47.526-66.86c31.096-45.5,59.733-93.297,78.064-145.505
			c8.698-24.775,14.618-50.722,16.604-76.933c1.404-18.536-0.467-37.75-6.505-55.379c-10.821-31.596-34.977-56.173-65.197-69.835
			C917.234,7.938,882.021,4.025,848.125,7.728c-34.645,3.785-69.031,14.895-97.865,34.782c-9.848,6.792-18.87,14.751-28.271,22.13
			c-10.632,8.343-21.565,16.313-32.724,23.937c-19.117,13.061-39.172,24.881-60.398,34.187c-1.986,0.871-7.809,3.19-11.702,4.617
			c-4.682,1.715-9.429,3.245-14.213,4.643c-8.733,2.552-17.646,4.464-26.645,5.794c-3.504,0.518,2.468-0.302-1.035,0.135
			c-1.048,0.131-2.098,0.244-3.146,0.357c-2.09,0.225-4.185,0.398-6.28,0.553c-4.517,0.333-9.046,0.466-13.573,0.477
			c-8.759,0.021-17.51-0.625-26.197-1.707c-3.521-0.438,2.467,0.354-1.059-0.15c-1.062-0.152-2.122-0.318-3.183-0.484
			c-2.137-0.335-4.267-0.712-6.395-1.102c-4.702-0.861-9.374-1.878-14.026-2.975c-9.388-2.214-18.66-4.905-27.848-7.833
			c-20.671-6.587-40.878-14.586-60.931-22.84c-23.273-9.58-46.526-19.715-69.984-29.664c-18.144-7.695-36.258-14.333-55.579-18.435
			c-67.752-14.384-150.486-6.054-202.459,44.043c-17.292,16.667-29.58,38.274-35.166,61.614
			c-6.756,28.23-3.758,57.919,3.974,85.614c4.129,14.792,27.142,8.501,22.998-6.34c-5.562-19.926-8.093-36.666-6.436-57.661
			c0.084-1.062,0.193-2.123,0.303-3.183c0.039-0.38,0.481-3.879,0.09-1.005c0.279-2.049,0.632-4.086,1.012-6.119
			c0.799-4.277,1.879-8.499,3.14-12.662c0.568-1.875,1.207-3.727,1.87-5.57c0.304-0.845,2.416-6.026,1.303-3.432
			c1.625-3.788,3.505-7.461,5.537-11.044c1.853-3.268,3.909-6.417,6.077-9.483c0.541-0.764,1.099-1.514,1.658-2.265
			c1.886-2.534-1.539,1.931,0.428-0.54c1.358-1.707,2.784-3.358,4.234-4.987c2.494-2.8,5.149-5.454,7.886-8.015
			c1.376-1.288,2.794-2.529,4.225-3.755c0.718-0.615,1.449-1.215,2.18-1.814c0.41-0.337,3.681-2.873,1.316-1.067
			c6.389-4.879,13.242-9.133,20.325-12.924c3.48-1.862,7.042-3.568,10.643-5.183c0.909-0.408,1.825-0.801,2.74-1.193
			c-2.607,1.118,0.487-0.177,0.852-0.325c2.182-0.879,4.386-1.7,6.599-2.497c8.059-2.905,16.325-5.217,24.676-7.11
			c4.092-0.928,8.215-1.713,12.352-2.416c2.085-0.354,4.178-0.667,6.272-0.967c-2.828,0.404,0.682-0.084,1.043-0.129
			c1.41-0.177,2.823-0.333,4.235-0.485c17.912-1.934,36.029-1.851,53.953-0.123c2.166,0.209,4.328,0.457,6.487,0.717
			c0.318,0.038,3.9,0.516,1.143,0.138c1.077,0.147,2.152,0.308,3.227,0.468c4.65,0.694,9.277,1.538,13.883,2.477
			c8.789,1.791,17.473,4.083,26.023,6.789c21.854,6.915,42.096,16.786,63.659,25.981c40.622,17.323,81.58,35.486,124.629,45.961
			c36.295,8.832,73.582,10.207,109.917,0.847c44.703-11.516,84.896-37.131,121.404-64.577c5.998-4.509,11.921-9.119,17.804-13.777
			c2.899-2.295,5.776-4.619,8.646-6.95c1.225-0.995,2.444-1.999,3.668-2.996c0.398-0.325,3.7-2.883,1.381-1.111
			c6.479-4.951,13.384-9.332,20.51-13.286c3.48-1.93,7.038-3.716,10.634-5.418c1.811-0.857,3.642-1.671,5.479-2.472
			c3.079-1.342-2.254,0.924,0.857-0.356c1.242-0.512,2.494-1.001,3.746-1.488c7.886-3.062,15.98-5.572,24.176-7.659
			c3.955-1.007,7.944-1.874,11.95-2.656c2.004-0.392,4.016-0.741,6.029-1.076c1.006-0.167,2.016-0.321,3.024-0.474
			c0.672-0.101,1.345-0.198,2.019-0.293c-1.486,0.196-1.532,0.203-0.138,0.023c8.39-1.076,16.845-1.605,25.301-1.681
			c8.326-0.075,16.655,0.41,24.924,1.377c0.479,0.056,3.782,0.504,0.742,0.084c0.974,0.135,1.945,0.285,2.916,0.435
			c1.934,0.299,3.859,0.646,5.781,1.008c4.121,0.776,8.206,1.735,12.257,2.814c3.685,0.982,7.324,2.125,10.928,3.373
			c1.781,0.617,3.545,1.284,5.302,1.968c0.874,0.34,1.741,0.698,2.607,1.055c-2.881-1.188,0.911,0.429,1.428,0.662
			c6.975,3.153,13.645,6.964,19.932,11.326c0.713,0.494,5.067,3.773,2.681,1.913c1.424,1.11,2.808,2.272,4.177,3.451
			c2.961,2.552,5.749,5.298,8.409,8.161c1.23,1.324,2.408,2.697,3.567,4.084c0.581,0.696,1.144,1.407,1.705,2.118
			c-1.864-2.358,0.025,0.08,0.326,0.489c2.355,3.212,4.474,6.593,6.431,10.06c0.918,1.627,1.769,3.292,2.596,4.968
			c0.393,0.795,2.613,5.855,1.515,3.21c1.624,3.909,2.956,7.935,4.108,12.006c1.112,3.932,1.956,7.937,2.648,11.962
			c0.18,1.039,0.331,2.081,0.483,3.124c-0.412-2.821,0.062,0.725,0.103,1.078c0.284,2.547,0.462,5.105,0.601,7.664
			c1.246,23.037-3.267,45.907-9.354,68.043c-14.31,52.038-41.695,99.6-71.164,144.393c-29.539,44.9-62.507,87.395-92.915,131.69
			c-32.136,46.812-51.746,99.738-64.626,154.729c-12.234,52.237-20.507,105.294-37.894,156.219
			c-2.267,6.639-4.703,13.219-7.247,19.756c-1.304,3.35-2.663,6.678-4.041,9.997c0.925-2.227-0.553,1.219-0.608,1.346
			c-0.611,1.383-1.253,2.752-1.897,4.119c-3.944,8.363-8.584,16.389-13.736,24.062c-8.867,13.207-21.211,26.511-35.194,38.101
			c-0.832,0.688-1.674,1.365-2.517,2.041c-0.175,0.141-2.991,2.339-0.993,0.801c-1.718,1.323-3.465,2.606-5.222,3.877
			c-3.826,2.769-7.76,5.386-11.749,7.91c-7.778,4.923-15.871,9.337-24.137,13.382c-9.478,4.64-14.533,6.71-24.128,10.273
			c-9.005,3.345-18.174,6.236-27.426,8.814c-9.431,2.627-18.975,4.839-28.572,6.763c-4.662,0.934-9.344,1.771-14.033,2.554
			c-2.355,0.393-4.716,0.758-7.078,1.114c-1.184,0.179-2.368,0.348-3.553,0.518c-0.791,0.112-1.582,0.222-2.374,0.33
			c1.19-0.159,1.058-0.144-0.396,0.048c-19.941,2.599-40.043,3.901-60.145,4.248c-19.944,0.344-39.904-0.377-59.786-1.959
			c-9.687-0.771-19.353-1.787-28.994-2.997c-1.14-0.143-2.278-0.292-3.417-0.441c2.59,0.34-1.148-0.159-1.363-0.188
			c-2.251-0.312-4.5-0.641-6.747-0.977c-4.804-0.718-9.597-1.504-14.382-2.335c-37.172-6.452-74.407-16.42-109.586-30.075
			c-16.9-6.561-35.545-15.802-52.21-26.359c-15.494-9.814-26.53-18.547-39.975-32.028c-5.89-5.906-11.409-12.176-16.599-18.702
			c-0.244-0.307-2.258-2.923-0.553-0.698c-0.598-0.779-1.185-1.566-1.771-2.354c-1.17-1.569-2.309-3.162-3.437-4.762
			c-2.43-3.446-4.739-6.977-6.971-10.554c-4.266-6.838-8.12-13.928-11.652-21.169c-1.695-3.475-3.286-6.999-4.815-10.549
			c1.106,2.567-1.054-2.589-1.385-3.415c-0.84-2.103-1.642-4.221-2.428-6.344c-5.701-15.401-9.9-31.333-13.055-47.439
			c-0.774-3.951-1.465-7.919-2.109-11.894c-0.325-2.001-0.626-4.007-0.92-6.014c-0.147-1.007-0.287-2.015-0.427-3.022
			c0.418,3.01-0.172-1.365-0.239-1.892c-1.081-8.549-1.875-17.132-2.482-25.726c-2.548-36.056-1.344-72.303,1.093-108.328
			c5.069-74.912,16.181-149.354,18.885-224.436c1.164-32.304,0.66-64.765-3.387-96.867c-0.812-6.448-4.809-11.925-11.925-11.925
			C59.034,230.325,52.178,235.784,52.993,242.25z"/>

	</g>

	<g class="extras">
		<g>
			<path fill="#E36E5F" d="M491.5127,692.05859c-6.47705-24.47168-12.95459-48.94336-19.43164-73.41406
				c-4.88965,4.88965-9.7793,9.7793-14.66895,14.66895c24.43066,6.62793,48.86182,13.25488,73.29297,19.88281
				c-1.75391-6.64355-3.50781-13.28711-5.2627-19.93164c-17.95361,17.84375-35.90723,35.6875-53.86084,53.53125
				c-10.91943,10.85254,5.94824,27.71387,16.86426,16.86523c17.9541-17.84375,35.90771-35.6875,53.86182-53.53125
				c6.35254-6.31445,3.38867-17.58496-5.2627-19.93164c-24.43066-6.62793-48.86182-13.25488-73.29297-19.88281
				c-8.83154-2.39551-16.99512,5.88184-14.66895,14.66895c6.47705,24.47168,12.95459,48.94336,19.43164,73.41406
				C472.44678,713.25391,495.45264,706.94434,491.5127,692.05859z"/>
		</g>
		<g>
			<path fill="#FFFFFF" d="M559.5791,490.79102c4.05078-22.35986,8.10156-44.71973,12.15234-67.08008
				c-6.64355,1.75439-13.28711,3.5083-19.93164,5.26221c17.34082,14.68848,34.68164,29.37646,52.02148,44.06445
				c1.75488-6.64355,3.50879-13.2876,5.2627-19.93115c-21.3916,7.67188-42.7832,15.34375-64.17383,23.01562
				c-6.11328,2.19238-10.15234,8.04248-8.3291,14.66895c1.625,5.9082,8.5459,10.5249,14.66895,8.3291
				c21.3916-7.67188,42.7832-15.34375,64.17383-23.01562c7.70703-2.76416,12.65332-13.6709,5.2627-19.93115
				c-17.34082-14.68848-34.68164-29.37646-52.02148-44.06445c-6.18652-5.24023-18.19629-4.31934-19.93164,5.26221
				c-4.05078,22.35986-8.10156,44.71973-12.15234,67.08008c-1.15723,6.38965,1.64844,12.83105,8.3291,14.66895
				C550.74707,500.72559,558.41895,497.19287,559.5791,490.79102z"/>
		</g>
		<g>
			<path fill="#FFFFFF" d="M549.2666,282.30469c-5.08887-19.22949-10.17676-38.4585-15.26562-57.6875
				c-4.88965,4.88965-9.7793,9.7793-14.66895,14.66895c19.19531,5.2085,38.3916,10.4165,57.58789,15.625
				c-1.75391-6.64355-3.50781-13.2876-5.2627-19.93115c-14.10742,14.02051-28.21484,28.0415-42.32227,42.0625
				c-10.91895,10.85205,5.94824,27.71338,16.86523,16.86426c14.10742-14.02051,28.21484-28.0415,42.32227-42.0625
				c6.35254-6.31396,3.38867-17.58398-5.2627-19.93115c-19.19531-5.2085-38.3916-10.4165-57.58789-15.625
				c-8.83203-2.39648-16.99414,5.88184-14.66895,14.66895c5.08887,19.22949,10.17676,38.4585,15.26562,57.6875
				C530.19922,303.50049,553.20605,297.19043,549.2666,282.30469z"/>
		</g>
		<g>
			<path fill="#FFFFFF" d="M161.94629,628.95508c-5.67334-21.44238-11.34619-42.88477-17.01953-64.32617
				c-4.88965,4.88965-9.7793,9.7793-14.66895,14.66895c21.40479,5.80762,42.80957,11.61426,64.21484,17.42188
				c-1.75439-6.64355-3.5083-13.28711-5.26221-19.93164c-15.73193,15.63477-31.46387,31.26953-47.19531,46.9043
				c-10.91943,10.85254,5.94824,27.71387,16.86426,16.86523c15.73193-15.63477,31.46387-31.26953,47.19531-46.9043
				c6.35303-6.31445,3.38916-17.58496-5.26221-19.93164c-21.40479-5.80762-42.80957-11.61426-64.21484-17.42188
				c-8.83203-2.39648-16.99414,5.88184-14.66895,14.66895c5.67334,21.44238,11.34619,42.88477,17.01953,64.32617
				C142.87891,650.15137,165.88477,643.84082,161.94629,628.95508z"/>
		</g>
		<g>
			<path fill="#E36E5F" d="M842.83008,196.47363c23.58984-0.5459,41.48828-19.55713,41.99707-42.90527
				c0.50977-23.34473-19.17383-42.375-41.99707-42.90332c-23.58398-0.54639-41.50391,20.38281-41.99512,42.90332
				C800.3252,176.91357,820.00488,195.94531,842.83008,196.47363c15.38867,0.35645,15.35449-23.49414,0-23.84961
				c-10.21973-0.23682-17.91602-8.5498-18.14551-19.05566c-0.22852-10.50342,8.26953-18.82471,18.14551-19.05371
				c10.2207-0.23633,17.92578,8.90771,18.14746,19.05371c0.22949,10.50635-8.27148,18.82666-18.14746,19.05566
				C827.47559,172.97949,827.44141,196.83008,842.83008,196.47363z"/>
		</g>
		<g>
			<path fill="#FFFFFF" d="M180.37891,446.30762c23.58887-0.5459,41.48389-19.55664,41.99316-42.90332
				c0.50928-23.34424-19.16895-42.37305-41.99316-42.90137c-23.58594-0.54639-41.50391,20.37842-41.99512,42.90137
				C137.87451,426.75049,157.55322,445.7793,180.37891,446.30762c15.38916,0.35645,15.35449-23.49414,0-23.84961
				c-10.22119-0.23682-17.91602-8.54785-18.14551-19.05371c-0.229-10.50684,8.26807-18.82275,18.14551-19.05176
				c10.21924-0.23633,17.92188,8.90332,18.14355,19.05176c0.229,10.50635-8.26904,18.82471-18.14355,19.05371
				C165.02441,422.81348,164.98975,446.66406,180.37891,446.30762z"/>
		</g>
		<g>
			<path fill="#E36E5F" d="M377.00781,601.44824c23.58691-0.5459,41.48193-19.55859,41.99121-42.90332
				c0.50977-23.34277-19.16797-42.375-41.99121-42.90332c-23.58643-0.54688-41.50781,20.37988-41.99902,42.90332
				C334.49902,581.8916,354.18311,600.91992,377.00781,601.44824c15.38916,0.35645,15.35449-23.49414,0-23.84961
				c-10.22119-0.2373-17.91992-8.54883-18.14941-19.05371c-0.229-10.50684,8.27197-18.8252,18.14941-19.05371
				c10.21631-0.23633,17.91992,8.90527,18.1416,19.05371c0.229,10.50391-8.27051,18.8252-18.1416,19.05371
				C361.65332,577.9541,361.61865,601.80469,377.00781,601.44824z"/>
		</g>
		<g>
			<path fill="#FFFFFF" d="M317.11914,732.27051c23.58984-0.5459,41.48389-19.55762,41.99316-42.90527
				c0.50928-23.34473-19.16846-42.37305-41.99316-42.90137c-23.58545-0.5459-41.50586,20.37891-41.99707,42.90137
				C274.6123,712.71094,294.29395,731.74219,317.11914,732.27051c15.38916,0.35645,15.35449-23.49414,0-23.84961
				c-10.21973-0.2373-17.91797-8.5498-18.14746-19.05566c-0.229-10.50684,8.27148-18.82324,18.14746-19.05176
				c10.2207-0.23633,17.92188,8.90332,18.14355,19.05176c0.229,10.50586-8.26758,18.82715-18.14355,19.05566
				C301.76465,708.77637,301.72998,732.62695,317.11914,732.27051z"/>
		</g>
		<g>
			<path fill="#E36E5F" d="M739.18555,416.03223c23.58984-0.54639,41.48242-19.56104,41.99121-42.90723
				c0.50977-23.34277-19.16895-42.37109-41.99121-42.89941c-23.58398-0.54639-41.50391,20.37842-41.99512,42.89941
				C696.68066,396.47021,716.35938,415.50391,739.18555,416.03223c15.38867,0.35645,15.35449-23.49414,0-23.84961
				c-10.21973-0.23682-17.91602-8.55176-18.14551-19.05762c-0.22852-10.50342,8.27051-18.8208,18.14551-19.0498
				c10.21875-0.23633,17.91992,8.9043,18.1416,19.0498c0.22949,10.50586-8.2666,18.82861-18.1416,19.05762
				C723.83105,392.53809,723.79688,416.38867,739.18555,416.03223z"/>
		</g>
		<g>
			<path fill="#E36E5F" d="M385.62891,369.12988c23.58984-0.5459,41.48389-19.55811,41.99316-42.90527
				c0.50928-23.34473-19.16895-42.37305-41.99316-42.90137c-23.58447-0.54639-41.50391,20.37988-41.99512,42.90137
				C343.12402,349.56982,362.80322,368.60156,385.62891,369.12988c15.38916,0.35645,15.35449-23.49414,0-23.84961
				c-10.21973-0.23682-17.91602-8.5498-18.14551-19.05566c-0.229-10.50488,8.27002-18.82275,18.14551-19.05176
				c10.2207-0.23633,17.92188,8.9043,18.14355,19.05176c0.229,10.50635-8.26758,18.82666-18.14355,19.05566
				C370.27441,345.63574,370.23975,369.48633,385.62891,369.12988z"/>
		</g>
		<g>
			<path fill="#E36E5F" d="M210.47852,228.68066c23.58984-0.5459,41.48389-19.55811,41.99316-42.90527
				c0.50928-23.34521-19.16846-42.37305-41.99316-42.90137c-23.58545-0.54639-41.50391,20.37891-41.99512,42.90137
				C167.97412,209.12061,187.65283,228.15234,210.47852,228.68066c15.38916,0.35645,15.35449-23.49414,0-23.84961
				c-10.21973-0.23682-17.91602-8.5498-18.14551-19.05566c-0.229-10.50635,8.26953-18.82275,18.14551-19.05176
				c10.2207-0.23633,17.92188,8.90283,18.14355,19.05176c0.229,10.50635-8.26758,18.82666-18.14355,19.05566
				C195.12402,205.18652,195.08936,229.03711,210.47852,228.68066z"/>
		</g>
	</g>
</svg>
