<svg version="1.1" xmlns="http://www.w3.org/2000/svg" xmlns:xlink="http://www.w3.org/1999/xlink" x="0px" y="0px"
	 width="256px" height="256px" viewBox="0 0 1024 1024" enable-background="new 0 0 1024 1024" xml:space="preserve">

	<style>
		#texture_cycling {
			mix-blend-mode: multiply;
		}
	</style>

	<g>
		<path fill="#FFFFFF" d="M142.578,99c-49.283,6-89.328,6.052-117.045,55.331C7.051,191.29,19.369,246.675,53.25,268.232
			c49.285,30.807,311.088,3.054,286.449,107.779c-15.406,67.76-277.207,73.904-197.125,190.944
			c58.523,92.404,274.127-33.886,366.527,36.954C660.023,724.03,364.336,751.75,311.975,810.275
			c-95.479,104.717,163.244,126.277,221.764,123.195c58.523-6.156,120.129-15.396,178.648-9.239
			c52.359,6.158,98.557,27.722,147.84,30.798c86.242,6.162,252.562-36.955,107.803-117.041
			c-55.445-30.803-107.803-30.803-169.404-43.121c-58.525-9.236-61.602-33.879-27.721-83.158
			c18.477-30.805,89.324-86.248,80.084-129.365c-9.238-40.043-107.805-80.08-141.686-92.402
			c-40.039-18.479-144.76-18.479-169.398-46.199c-15.406-24.643-6.166-70.842,6.154-92.402
			c33.885-67.762,157.082-135.523,6.164-169.404c-83.164-18.479-150.922,9.354-234.084-33.765C262.699,117.37,222.658,99,154.896,99
			H142.578z"/>
	</g>

	<filter id="desaturate">
        <feColorMatrix type="matrix" values="0.3333 0.3333 0.3333 0 0
                                             0.3333 0.3333 0.3333 0 0
                                             0.3333 0.3333 0.3333 0 0
                                             0      0      0      1 0"/>
    </filter>

	<g id="texture_cycling" opacity="0.35" filter="url(#desaturate)">
		<defs>
			<path id="SVGID_10_" opacity="0.35" d="M126.578,99c-49.283,6-89.328,6.052-117.045,55.331
				C-8.949,191.29,3.369,246.675,37.25,268.232c49.285,30.807,311.088,3.054,286.449,107.779
				c-15.406,67.76-277.207,73.904-197.125,190.944c58.523,92.404,274.127-33.886,366.527,36.954
				C644.023,724.03,348.336,751.75,295.975,810.275c-95.479,104.717,163.244,126.277,221.764,123.195
				c58.523-6.156,120.129-15.396,178.648-9.239c52.359,6.158,98.557,27.722,147.84,30.798
				c86.242,6.162,252.562-36.955,107.803-117.041c-55.445-30.803-107.803-30.803-169.404-43.121
				c-58.525-9.236-61.602-33.879-27.721-83.158c18.477-30.805,89.324-86.248,80.084-129.365
				c-9.238-40.043-107.805-80.08-141.686-92.402c-40.039-18.479-144.76-18.479-169.398-46.199
				c-15.406-24.643-6.166-70.842,6.154-92.402c33.885-67.762,157.082-135.523,6.164-169.404
				c-83.164-18.479-150.922,9.354-234.084-33.765C246.699,117.37,206.658,99,138.896,99H126.578z"/>
		</defs>
		<clipPath id="texture_cycling_clip">
			<use xlink:href="#SVGID_10_"  overflow="visible"/>
		</clipPath>
		<g clip-path="url(#texture_cycling_clip)">

				<image overflow="visible" width="826" height="662" xlink:href="/img/texture_paint.jpg"  transform="matrix(1.3625 0 0 1.3625 -72.4492 85.1426)">
			</image>
		</g>
	</g>

	<g class="text">
		<g>
			<path fill="#0F9E5B" d="M348.30957,239.02197c-7.12305,15.51172-22.71094,24.20654-47.41992,18.70947
				c-28.53516-6.34814-38.79492-27.79248-33.90625-49.76758c4.69434-21.10059,23.03027-36.98633,52.76758-30.37061
				c26.12988,5.81348,35.3584,22.09424,34.2373,36.41699l-25.14551-5.59424c-0.16895-4.39795-1.92871-11.44434-12.97168-13.90088
				c-11.69824-2.60254-19.42578,5.31641-22.41797,18.76367c-2.72363,12.24512-0.66113,24.63672,12.23926,27.50684
				c9.29297,2.06738,14.04395-1.23584,17.68945-7.30908L348.30957,239.02197z"/>
			<path fill="#0F9E5B" d="M376.92676,270.01367l10.64844-25.16846c0.47949-1.13477,0.43262-1.88428,0.14648-3.22119
				l-10.33887-56.91113l27.64453,11.6958c1.47168,12.90576,2.93164,26.41406,3.16602,35.63428
				c6.64844-5.94336,17.58301-13.96484,28.08789-22.41113l25.375,10.73535L412.6875,253.0376
				c-0.67383,0.44434-1.03906,1.01953-1.5625,2.25732l-10.47363,24.75586L376.92676,270.01367z"/>
			<path fill="#0F9E5B" d="M480.75684,355.32178c-16.68262,3.61182-32.99316-3.63916-43.4248-26.70264
				c-12.04688-26.63574-1.05078-47.7124,19.46094-56.99023c19.69629-8.90869,43.40723-3.77539,55.96191,23.98242
				c11.03223,24.39014,3.54688,41.54346-8.58203,49.24219l-10.61621-23.47168c3.41602-2.77441,7.99609-8.41113,3.33398-18.71826
				c-4.93848-10.91943-15.91113-12.34863-28.46289-6.67139c-11.42969,5.16992-20.10449,14.25635-14.6582,26.29834
				c3.92383,8.67432,9.41699,10.49219,16.46289,9.76367L480.75684,355.32178z"/>
			<path fill="#0F9E5B" d="M528.79004,361.42578l6.15625,24.89648l-58.70801,14.51855l10.13672,40.98682l-18.44727,1.44678
				l-15.56738-62.94824L528.79004,361.42578z"/>
			<path fill="#0F9E5B" d="M570.08887,426.31641l-38.62695,68.60938l-22.25195-12.52783l38.62793-68.60938L570.08887,426.31641z"/>
			<path fill="#0F9E5B" d="M563.69434,510.91797l17.05664-76.86914l29.08496,6.45361
				c10.94434,31.33936,14.42188,42.55127,17.24414,53.61768l0.4375,0.09717c0.86035-7.49561,4.05078-21.3584,6.86523-34.04248
				l3.00781-13.55859l22.41602,4.97363l-17.05566,76.86914l-27.44531-6.08984c-3.63672-12.0498-15.29883-48.94092-17.80469-59.36377
				l-0.32812-0.07275c-1.28516,8.89307-3.45605,19.1958-6.80469,34.28516l-4.14844,18.69824L563.69434,510.91797z"/>
			<path fill="#0F9E5B" d="M752.66406,534.89355l-17.52148-1.48047c-0.41699-1.72168-0.73926-4.55859-0.95898-7.27441
				c-5.49414,5.15527-12.36133,7.94727-26.75781,6.73047c-25.89258-2.1875-38.70605-20.80469-36.77344-43.68311
				c1.88574-22.32031,17.7002-40.54199,48.61426-37.92969c24.8877,2.10303,36.87988,15.81738,38.11035,29.18457l-25.55664-2.15967
				c-0.91699-3.78662-3.8125-9.42627-14.0791-10.29395c-13.28125-1.12207-19.00391,9.40918-20.0791,22.13232
				c-1.16895,13.83838,3.40332,24.90283,16.57227,26.01514c11.16016,0.94336,15.71582-5.07861,16.22461-11.10498l0.06641-0.78125
				l-15.40137-1.30127l1.45215-17.18701l39.9541,3.37598L752.66406,534.89355z"/>
		</g>
	</g>

	<g class="extras border">
		<path fill="#0F9E5B" d="M747.4668,120.07031c5.95898,0.01758,11.90234,0.48193,17.82129,1.14941
				c0.81445,0.09229,1.62891,0.19287,2.44238,0.29395c2.86328,0.35449-2.55273-0.35938,0.34863,0.04199
				c1.72754,0.23877,3.4502,0.50488,5.17188,0.77881c3.93555,0.62598,7.85254,1.35938,11.75781,2.15332
				c16.32422,3.31934,32.41602,8.03711,47.83887,14.34766c3.0957,1.26709-2.03711-0.88525,1.02441,0.43701
				c0.9209,0.39746,1.83496,0.80908,2.74902,1.22021c1.8125,0.81592,3.60547,1.67432,5.3916,2.54834
				c3.77832,1.84961,7.47168,3.86816,11.08887,6.01709c3.2041,1.90381,6.30859,3.97217,9.3252,6.16113
				c0.33398,0.24268,2.75098,2.10449,0.59961,0.42529c0.70117,0.54736,1.3877,1.11426,2.07324,1.68115
				c1.56641,1.29492,3.06836,2.66406,4.53711,4.06689c1.22363,1.16895,2.38867,2.39697,3.52832,3.64697
				c0.56152,0.61523,3.7373,4.58887,1.89941,2.1665c2.08008,2.74121,3.85156,5.70264,5.35156,8.7959
				c0.26758,0.55273,1.26172,3.04248,0.10059,0.16162c0.29004,0.71729,0.54004,1.44971,0.79102,2.18115
				c0.50195,1.46484,0.88281,2.96729,1.21973,4.47705c0.16992,0.75928,0.2959,1.52783,0.42188,2.29541
				c-0.52539-3.20264-0.09961-0.5376-0.04199,0.13037c0.16211,1.87061,0.1416,3.75195,0.05176,5.62549
				c-0.03906,0.82764-0.125,1.65234-0.21094,2.47559c0.32227-3.08936-0.00195-0.21338-0.10645,0.37012
				c-0.31348,1.74805-0.76855,3.46729-1.2627,5.17139c-0.52539,1.81006-1.18848,3.57764-1.88672,5.32666
				c0.95312-2.38672-0.35547,0.67871-0.48438,0.95117c-0.59277,1.25879-1.25,2.48584-1.91406,3.7085
				c-1.05859,1.9502-2.23828,3.83301-3.44531,5.69385c-0.57812,0.89062-1.18555,1.76221-1.79688,2.63037
				c-0.26562,0.37695-2.05469,2.6626-0.34375,0.49658c-2.5,3.16455-5.31445,6.07617-8.19922,8.88818
				c-12.77637,12.45508-27.62402,22.62305-41.18848,34.17139c-13.64746,11.61914-26.4082,24.99805-32.56152,42.15283
				c-6.61523,18.43848-0.39258,38.60205,10.87891,53.77393c10.36523,13.95264,24.80859,24.2002,38.9668,33.99023
				c14.69434,10.16064,32.0957,21.24512,44.38281,31.12354c6.7959,5.46436,13.24805,11.38428,18.94922,17.99365
				c0.64453,0.74805,1.26758,1.51562,1.88867,2.28369c2.03906,2.52002-1.30078-1.76953,0.60254,0.81494
				c1.12988,1.53418,2.17383,3.12842,3.18066,4.74414c0.98535,1.57959,1.86914,3.21924,2.71191,4.87842
				c0.41504,0.81787,0.79102,1.65527,1.16602,2.4917c-1.15234-2.56934,0.33887,1.0542,0.51172,1.54785
				c0.5957,1.7085,1.05078,3.46094,1.45312,5.22314c0.20215,0.88379,0.35156,1.77832,0.50098,2.67188
				c-0.48242-2.87988-0.02246,0.12891,0.02148,0.63574c0.16016,1.85645,0.15039,3.72266,0.08398,5.58301
				c-0.0332,0.95508-0.125,1.90723-0.2168,2.85791c0.26758-2.78516-0.25977,1.36035-0.36133,1.875
				c-0.40137,2.0376-0.98047,4.03564-1.60742,6.01318c-0.25684,0.80957-2.18945,5.61035-1,2.87207
				c-1.4375,3.30762-3.24512,6.44385-5.24023,9.44287c-0.45801,0.68799-0.94238,1.35889-1.42578,2.0293
				c-1.65527,2.29541,1.50879-1.86816-0.25684,0.34766c-1.03613,1.30029-2.13965,2.54541-3.25977,3.77295
				c-2.46387,2.69971-5.15234,5.18945-7.92578,7.56592c-0.61914,0.53027-4.63574,3.7168-2.41602,2.01221
				c-1.38379,1.0625-2.79883,2.08154-4.22266,3.08838c-3.14258,2.22266-6.3877,4.29688-9.66895,6.30762
				c-12.94922,7.94043-26.66016,14.54688-39.92188,21.93164c-12.86914,7.16699-25.70508,15.27734-35.89062,26.04297
				c-10.95117,11.57324-17.25195,25.73633-18.62402,41.5752c-1.55469,17.95996,4.66797,35.79492,11.7373,51.98926
				c6.52051,14.93848,15.01367,28.96777,23.98633,42.53906c17.5332,26.51855,38.03027,51.11426,54.23145,78.50586
				c3.3457,5.65723,6.4248,11.47754,9.04395,17.50781c-1.38574-3.19043,0.46289,1.23145,0.76074,2.02148
				c0.49316,1.30957,0.94141,2.63477,1.37012,3.96582c0.88184,2.7373,1.57422,5.53125,2.09668,8.3584
				c0.11523,0.625,0.20898,1.25391,0.30273,1.88184c-0.53613-3.59375-0.1875-1.30469-0.1084-0.50977
				c0.12012,1.2168,0.16992,2.43945,0.19238,3.66113c0.02148,1.19629-0.0332,2.3916-0.11621,3.58496
				c-0.04102,0.58984-0.10938,1.17676-0.17773,1.76367c0.4541-3.88965,0.0957-0.96875-0.07812-0.09375
				c-0.23047,1.15039-0.5459,2.28125-0.88965,3.40234c-0.17285,0.56348-0.375,1.11719-0.57715,1.6709
				c-0.77148,2.11719,1.14551-2.56055,0.22461-0.49121c-1.08984,2.44922-2.52344,4.73047-4.11523,6.87988
				c2.20117-2.9707-0.6084,0.59082-1.22656,1.25977c-0.95215,1.02832-1.97266,1.99219-3.00977,2.93457
				c-0.6123,0.55664-4.36523,3.50195-1.77832,1.5498c-1.50293,1.13379-3.07422,2.17383-4.66309,3.18164
				c-3.03711,1.92676-6.23242,3.59668-9.4707,5.15332c-3.71875,1.78613-5.57227,2.50781-10.84668,4.37793
				c-23.20801,8.22754-47.66016,11.4043-71.89551,14.95312c-49.3457,7.22559-95.2666,26.21387-141.54785,43.85449
				c-46.80859,17.8418-94.33105,31.37598-144.84082,30.87109c-30.64648-0.30566-61.51367-3.56348-91.89844-7.36133
				c-30.66211-3.83398-61.13867-9.30273-91.26562-16.15723c-30.34473-6.90332-60.30859-15.47949-89.68164-25.76074
				c-17.58203-6.15527-33.14453-12.07324-49-19.69922c-17.9707-8.64355-34.59082-18.52441-48.02734-31.77637
				c-6.71973-6.62695-10.56055-11.6084-14.9375-20.54395c-0.0752-0.15332-1.46484-3.35059-0.57812-1.19727
				c-0.4043-0.98145-0.75879-1.98242-1.11328-2.98242c-0.70996-2.00879-1.2627-4.06934-1.75684-6.14062
				c-1.02539-4.29102-1.19629-6.53125-1.06836-12.27441c0.17676-7.93848,2.77441-17.59863,6.0127-23.98828
				c0.94434-1.86523,2.02734-3.65527,3.15332-5.41504c0.55566-0.86914,1.1543-1.70898,1.75195-2.5498
				c1.95117-2.74316-1.36621,1.63965,0.74902-0.96582c2.7959-3.44434,6.01172-6.53125,9.39551-9.38867
				c0.14746-0.125,2.81738-2.21484,0.96191-0.80273c0.82715-0.62891,1.67676-1.22852,2.52539-1.82812
				c1.71582-1.21094,3.49219-2.33398,5.28223-3.43066c3.97266-2.43457,8.13867-4.5459,12.3623-6.50586
				c0.99512-0.46191,2-0.90137,3.00488-1.34082c-2.02441,0.88574,1.32227-0.54199,1.39355-0.57129
				c2.06934-0.84082,4.16211-1.62598,6.25977-2.39453c4.61523-1.69238,9.29688-3.19629,13.99707-4.62891
				c36.26855-11.05469,81.71094-15.08691,107.13574-46.62402c26.8877-33.35059,16.20996-78.54883-6.86426-110.80273
				c-13.66113-19.09668-32.03125-33.56055-48.91797-49.62402c-7.3584-6.99902-14.51758-14.25293-20.84668-22.2085
				c1.34766,1.69385-0.7832-1.0752-0.84277-1.15576c-0.61816-0.84277-1.21094-1.70459-1.80176-2.56641
				c-1.13965-1.66309-2.19141-3.38379-3.20215-5.12744c-0.9668-1.66846-1.82715-3.39502-2.64062-5.14209
				c-1.32324-2.84375,0.81445,2.12842-0.29883-0.76221c-0.43945-1.14014-0.80566-2.30664-1.15918-3.47559
				c-0.52441-1.73047-0.89551-3.50195-1.20703-5.28076c0.50098,2.85547-0.1377-2.37256-0.16113-3.30322
				c-0.0459-1.85059,0.08887-3.70068,0.28027-5.53955c-0.29199,2.81348,0.10938-0.35449,0.19141-0.79102
				c0.24512-1.30176,0.58203-2.58398,0.92969-3.86133c0.55176-2.02881,1.27832-4.00586,2.04688-5.95996
				c-0.81152,2.06348,0.65234-1.35303,0.67969-1.40918c0.50098-1.06348,1.05176-2.10303,1.60156-3.14258
				c2.68457-5.08008,5.98047-9.82568,9.44141-14.40137c8.60156-11.37305,19.58105-20.58887,29.36426-30.86523
				c9.58301-10.06738,17.90918-21.68164,23.32812-34.51904c10.30566-24.41895,8.6709-49.52295-1.53027-73.64502
				c-11.05664-26.14648-32.23535-46.58643-51.66602-66.60498c-10.48828-10.80664-21.29102-21.3208-32.79883-31.04541
				c-9.85645-8.32959-20.55664-15.23584-30.06055-23.5957c-16.41797-14.44092-24.83008-31.13818-24.77051-53.51416
				c0.00684-2.25781,0.14258-4.5127,0.33105-6.76172c0.01953-0.23633,0.46777-3.77588,0.10742-1.25439
				c0.14648-1.02148,0.33789-2.03516,0.5293-3.04883c0.36914-1.94385,0.87109-3.85938,1.42285-5.7583
				c0.26562-0.91357,0.57617-1.81396,0.8877-2.71289c0.20801-0.58643,0.42578-1.16895,0.6543-1.74805
				c-0.55371,1.26416-0.57324,1.31543-0.05957,0.1543c1.43457-3.22266,3.27832-6.24756,5.35352-9.09326
				c-1.64746,2.25879,1.50684-1.66846,2.08887-2.29102c1.35352-1.44629,2.82617-2.7749,4.33594-4.05322
				c2.20117-1.86377-1.91602,1.39111,0.4043-0.33398c0.68555-0.51025,1.39453-0.98877,2.10352-1.46729
				c1.42969-0.96582,2.92285-1.83594,4.42969-2.67578c1.53125-0.85352,3.11426-1.61328,4.70703-2.34375
				c2.72461-1.24902-2.20703,0.87305,0.59375-0.25098c1.11719-0.44775,2.25195-0.85059,3.3877-1.24756
				c3.50293-1.22461,7.10254-2.16162,10.72461-2.96094c1.86719-0.41211,3.75-0.74951,5.63574-1.06543
				c0.95605-0.16064,1.91602-0.29785,2.87598-0.43555c-2.78223,0.39893,1.3916-0.13379,1.87793-0.18506
				c8.39453-0.88916,16.86816-0.95557,25.2959-0.604c4.12891,0.17236,8.25,0.49365,12.36328,0.89014
				c2.05273,0.19824,4.10156,0.43457,6.14941,0.68262c0.29883,0.03613,3.68457,0.48779,1.08008,0.13135
				c1.34863,0.18457,2.69531,0.38672,4.04102,0.59082c15.55469,2.36377,30.9082,6.0542,45.88086,10.87549
				c54.76953,17.63574,106.4375,44.20264,164.08008,51.76172c29.61816,3.88428,58.37598-0.7002,87.7168-4.58545
				c30.91406-4.09326,61.83984-8.11768,92.83594-11.55859C653.64453,123.97559,700.51855,120.12256,747.4668,120.07031
				c14.50879-0.01611,14.50977-22.51611,0-22.5c-62.0332,0.06885-123.87207,6.70703-185.35254,14.41748
				c-30.30469,3.80078-60.5791,8.81006-90.97656,11.76025c-28.16699,2.7334-56.09375-1.6748-83.18652-9.2373
				c-48.36035-13.49854-93.37402-37.37109-142.27441-49.01514c-32.7666-7.80225-69.78809-12.35352-102.59863-2.42432
				c-16.02734,4.8501-30.14062,14.00586-39.59375,27.97314c-11.3291,16.73975-12.21582,38.42432-9.29102,57.74609
				c3.51953,23.2373,18.19727,41.95752,36.03027,56.33887c10.6377,8.57861,21.76562,16.30469,31.97168,25.44092
				c11.23047,10.05322,21.76562,20.86816,32.17383,31.75977c17.99805,18.83545,36.4668,38.08984,43.86328,63.74561
				c6.43555,22.32568,0.03613,43.93408-14.17188,63.02686c-8.77441,11.79004-20.71191,21.04883-30.49219,31.97852
				c-7.9707,8.9082-15.44531,18.63135-20.72949,29.39893c-8.68164,17.69189-9.21777,36.08057-0.90137,53.9541
				c8.33594,17.91455,24.25195,32.33154,38.47266,45.55322c16.39648,15.24512,33.38379,29.21484,44.81445,47.53516
				c5.50293,8.81836,8.63184,15.67871,11.40234,24.88867c0.6416,2.13086,1.1709,4.29199,1.6582,6.46191
				c0.24023,1.07031,0.44043,2.14844,0.63965,3.22656c0.03613,0.19629,0.57324,3.74316,0.25098,1.29688
				c0.59961,4.55371,0.71289,9.16016,0.45898,13.74316c-0.05664,1.03906-0.16309,2.0752-0.26953,3.10938
				c0.2627-2.55957-0.13477,0.80957-0.18555,1.10938c-0.3418,2.03516-0.83594,4.04199-1.38086,6.03125
				c-1.45898,5.32129-1.79883,5.88574-4.5332,10.70215c-3.98828,7.02441-10.3623,13.32227-17.37695,18.02148
				c-15.47168,10.36621-34.35449,14.62988-52.13184,19.26758c-18.26562,4.76562-36.67871,9.33398-54.11719,16.68652
				c-18.09473,7.62891-34.27832,17.90332-46.05273,33.90332c-12.12598,16.47852-16.00293,38.50586-12.75293,58.40527
				c6.56543,40.21191,48.01562,65.54883,81.73145,81.30664c45.42871,21.23242,94.59668,35.50781,143.37207,46.49707
				c30.90332,6.96387,62.16895,12.14648,93.58789,16.13281c30.40332,3.85742,61.23633,6.8916,91.89844,7.36133
				c51.39062,0.78906,100.4873-12.6582,148.1582-30.66406c46.28125-17.48047,91.85156-36.48926,141.0127-44.375
				c24.59863-3.94531,49.17383-6.79688,72.93262-14.70117c15.12109-5.03125,30.68457-12.00586,41.85938-23.72656
				c8.77246-9.20117,13.59766-21.16895,13.5459-33.88574c-0.05371-12.96777-4.91113-25.46094-10.55566-36.91699
				c-13.55371-27.51172-33.82617-51.5625-51.3457-76.55957c-9.5-13.55566-18.60547-27.42871-26.37305-42.05957
				c-1.79883-3.38867-3.49609-6.82812-5.11719-10.30469c-0.79688-1.71094-1.55762-3.43848-2.30371-5.17188
				c1.06152,2.46777-0.1543-0.41113-0.29883-0.76758c-0.46484-1.14648-0.90723-2.30176-1.34473-3.45898
				c-1.49316-3.93848-2.78906-7.94727-3.89648-12.01074c-0.58203-2.13379-1.06152-4.29395-1.49805-6.46289
				c-0.20703-1.03027-0.37695-2.06738-0.54688-3.10352c-0.19922-1.34473-0.20508-1.35547-0.0166-0.03223
				c-0.07715-0.65527-0.14648-1.3125-0.20801-1.96973c-0.36426-3.68945-0.37207-7.40625-0.1084-11.10254
				c0.06152-0.86621,0.16309-1.72949,0.26465-2.5918c-0.3584,3.0498,0.01855,0.20898,0.12109-0.3584
				c0.33984-1.88477,0.82422-3.74023,1.36914-5.57617c0.45312-1.53027,1.01367-3.02637,1.60742-4.50684
				c-1.20508,3.00391,0.81641-1.52148,1.2168-2.27637c0.73047-1.37793,1.5498-2.70703,2.39453-4.01758
				c0.42383-0.65527,0.87305-1.29395,1.32227-1.93164c1.82617-2.59668-0.59863,0.6748,0.61621-0.83691
				c1.99512-2.48145,4.21191-4.77832,6.51465-6.97363c1.17871-1.12305,2.40527-2.19531,3.64258-3.25195
				c0.62793-0.53516,1.26758-1.05469,1.9082-1.57422c2.44727-1.98633-0.51074,0.35645,1.02051-0.79395
				c5.78613-4.34668,11.98145-8.13477,18.25-11.73535c25.7627-14.79883,55.80176-26.32617,75.09082-49.96191
				c10.71484-13.12939,17.75195-29.7251,16.61523-46.93115c-1.19824-18.13818-11.05957-33.63721-23.39648-46.41846
				c-13.10742-13.58154-29.08105-24.38672-44.64648-34.91748c-7.64844-5.17432-15.34766-10.27295-22.89844-15.59033
				c-1.72949-1.21777-3.44336-2.45459-5.15039-3.70215c-0.83691-0.61084-1.66602-1.23047-2.49609-1.85059
				c-0.17676-0.13184-2.86621-2.18994-0.95703-0.71094c-3.31152-2.56494-6.52734-5.25293-9.625-8.07275
				c-2.61328-2.37793-5.08789-4.9043-7.41016-7.56738c-0.54492-0.62598-1.06836-1.27148-1.58984-1.91699
				c1.83789,2.27344,0.14062,0.14893-0.18262-0.29883c-1.74512-2.42285-3.30762-4.9707-4.75977-7.57715
				c-2.18457-3.91895-2.83203-5.53369-4.08984-10.58545c-0.24023-0.96582-0.41504-1.9458-0.58887-2.9248
				c0.47656,2.68213-0.01367-0.39404-0.0498-0.83301c-0.17773-2.16113-0.10254-4.33447,0.07617-6.4917
				c0.25391-3.05957-0.42285,2.39893,0.10645-0.60986c0.1582-0.89209,0.37402-1.77246,0.58984-2.65137
				c0.43359-1.76562,1.03516-3.48535,1.68164-5.18213c-0.9707,2.54883,0.14941-0.28613,0.33496-0.68164
				c0.39551-0.84277,0.83398-1.66357,1.27246-2.48438c1.04395-1.95801,2.24512-3.82861,3.48828-5.66406
				c0.5459-0.80615,1.12402-1.58984,1.70117-2.37402c-1.47168,1.99951,0.50586-0.62451,0.68164-0.84082
				c1.27637-1.5752,2.62793-3.08789,3.99609-4.5835c3.08203-3.36914,6.39648-6.52246,9.77441-9.59131
				c25.9248-23.55078,60.5791-41.57227,70.42871-77.83105c9.20508-33.88818-15.81934-60.56396-43.26465-75.89551
				c-18.59375-10.38721-39.24219-17.36426-59.8877-22.34863c-17.2041-4.15332-35.2002-7.26318-52.94531-7.31592
				C732.95508,97.52686,732.95898,120.02686,747.4668,120.07031z"/>
	</g>

	<g class="extras">
		<g>
			<path fill="#0F9E5B" d="M920.555,279.553c5.299,20.026,10.598,40.052,15.896,60.078c4.612-4.613,9.226-9.226,13.838-13.839
				c-19.992-5.424-39.985-10.848-59.979-16.271c1.655,6.268,3.311,12.536,4.965,18.803c14.693-14.603,29.388-29.205,44.082-43.807
				c10.302-10.238-5.611-26.145-15.91-15.91c-14.693,14.603-29.388,29.205-44.082,43.807c-5.993,5.956-3.197,16.589,4.965,18.803
				c19.992,5.424,39.985,10.848,59.979,16.271c8.332,2.26,16.032-5.548,13.838-13.839c-5.299-20.026-10.598-40.052-15.896-60.078
				C938.542,259.557,916.838,265.51,920.555,279.553z"/>
		</g>
		<g>
			<path fill="#E36E5F" d="M534.389,687.814c-18.771-18.639-37.543-37.277-56.314-55.916c-4.338-4.307-11.58-4.361-15.91,0
				c-18.019,18.147-36.037,36.294-54.057,54.441c-10.229,10.303,5.677,26.217,15.91,15.91
				c18.019-18.147,36.037-36.294,54.057-54.441c-5.304,0-10.606,0-15.91,0c18.771,18.639,37.543,37.277,56.314,55.916
				C528.781,713.954,544.695,698.048,534.389,687.814L534.389,687.814z"/>
		</g>
		<g>
			<path fill="#0F9E5B" d="M814.953,758.555c-23.907,0.524-42.078,19.868-42.566,43.516c-0.488,23.646,19.395,43.005,42.566,43.514
				c23.904,0.524,42.096-20.656,42.568-43.514C858.01,778.423,838.126,759.063,814.953,758.555c-14.518-0.318-14.487,22.182,0,22.5
				c11.155,0.245,19.828,9.373,20.068,21.016c0.24,11.645-9.272,20.777-20.068,21.014c-11.156,0.245-19.834-9.741-20.066-21.014
				c-0.24-11.645,9.271-20.778,20.066-21.016C829.44,780.736,829.471,758.236,814.953,758.555z"/>
		</g>
		<g>
			<path fill="#0F9E5B" d="M257.453,433.555c-23.907,0.524-42.078,19.868-42.566,43.516c-0.488,23.646,19.395,43.005,42.566,43.514
				c23.904,0.524,42.096-20.657,42.568-43.514C300.51,453.423,280.626,434.063,257.453,433.555c-14.518-0.318-14.487,22.182,0,22.5
				c11.155,0.245,19.828,9.373,20.068,21.016c0.24,11.645-9.272,20.777-20.068,21.014c-11.156,0.245-19.834-9.741-20.066-21.014
				c-0.24-11.644,9.271-20.779,20.066-21.016C271.94,455.737,271.971,433.236,257.453,433.555z"/>
		</g>
		<g>
			<path fill="#E36E5F" d="M177.799,92.57c-23.906,0.524-42.079,19.868-42.568,43.516c-0.489,23.646,19.396,43.005,42.568,43.514
				c23.905,0.524,42.096-20.656,42.568-43.514C220.855,112.439,200.972,93.079,177.799,92.57c-14.518-0.318-14.487,22.182,0,22.5
				c11.155,0.245,19.828,9.373,20.068,21.016c0.24,11.646-9.272,20.777-20.068,21.014c-11.155,0.245-19.835-9.74-20.068-21.014
				c-0.24-11.644,9.275-20.779,20.068-21.016C192.286,114.752,192.316,92.252,177.799,92.57z"/>
		</g>
		<g>
			<path fill="#E36E5F" d="M805.299,157.57c-23.906,0.524-42.079,19.868-42.568,43.516c-0.489,23.646,19.396,43.005,42.568,43.514
				c23.905,0.524,42.096-20.656,42.568-43.514C848.355,177.439,828.472,158.079,805.299,157.57c-14.518-0.318-14.487,22.182,0,22.5
				c11.155,0.245,19.828,9.373,20.068,21.016c0.24,11.646-9.272,20.777-20.068,21.014c-11.155,0.245-19.835-9.74-20.068-21.014
				c-0.24-11.644,9.275-20.779,20.068-21.016C819.786,179.752,819.816,157.252,805.299,157.57z"/>
		</g>
		<g>
			<path fill="#E36E5F" d="M867.799,580.07c-23.906,0.524-42.079,19.868-42.568,43.516s19.396,43.004,42.568,43.512
				c23.906,0.524,42.096-20.653,42.568-43.512C910.855,599.938,890.972,580.579,867.799,580.07c-14.518-0.318-14.487,22.182,0,22.5
				c11.155,0.245,19.828,9.373,20.068,21.016c0.24,11.647-9.272,20.775-20.068,21.012c-11.155,0.244-19.835-9.736-20.068-21.012
				c-0.24-11.644,9.275-20.779,20.068-21.016C882.286,602.252,882.316,579.752,867.799,580.07z"/>
		</g>
		<g>
			<g>
				<path fill="#0F9E5B" d="M203.74,588.498c-19.131,19.131-38.262,38.262-57.393,57.393c-10.268,10.269,5.642,26.179,15.91,15.91
					c19.131-19.131,38.262-38.262,57.393-57.393C229.918,594.14,214.009,578.229,203.74,588.498L203.74,588.498z"/>
			</g>
			<g>
				<path fill="#0F9E5B" d="M219.65,647.326c-19.131-19.131-38.262-38.262-57.393-57.393c-10.269-10.269-26.178,5.642-15.91,15.91
					c19.131,19.131,38.262,38.262,57.393,57.393C214.009,673.505,229.918,657.595,219.65,647.326L219.65,647.326z"/>
			</g>
		</g>
		<g>
			<path fill="#E36E5F" d="M451.889,767.814c-18.771-18.639-37.543-37.277-56.314-55.916c-4.338-4.307-11.58-4.361-15.91,0
				c-18.019,18.147-36.037,36.294-54.057,54.441c-10.229,10.303,5.677,26.217,15.91,15.91
				c18.019-18.147,36.037-36.294,54.057-54.441c-5.304,0-10.606,0-15.91,0c18.771,18.639,37.543,37.277,56.314,55.916
				C446.281,793.954,462.195,778.048,451.889,767.814L451.889,767.814z"/>
		</g>
		<g>
			<path fill="#E36E5F" d="M369.389,850.314c-18.771-18.639-37.543-37.277-56.314-55.916c-4.338-4.307-11.58-4.361-15.91,0
				c-18.019,18.147-36.037,36.294-54.057,54.441c-10.229,10.303,5.677,26.217,15.91,15.91
				c18.019-18.147,36.037-36.294,54.057-54.441c-5.304,0-10.606,0-15.91,0c18.771,18.639,37.543,37.277,56.314,55.916
				C363.781,876.454,379.695,860.548,369.389,850.314L369.389,850.314z"/>
		</g>
	</g>
</svg>
