<svg version="1.1" id="Layer_1" xmlns="http://www.w3.org/2000/svg" xmlns:xlink="http://www.w3.org/1999/xlink" x="0px" y="0px"
	 width="256px" height="256px" viewBox="0 0 1024 1024" enable-background="new 0 0 1024 1024" xml:space="preserve">

	<style>
		#texture_coffee {
			mix-blend-mode: color-burn;
		}
	</style>

	<g>
		<path fill="#534741" d="M251.516,263.789C62.752,303.436-8.811,612.541,15.041,747.707
			c39.756,262.375,367.447,320.168,549.855,177.125c126.357-99.09,300.881-336.141,308.83-511.061
			c7.953-230.574-294.178-182.869-445.244-166.969c-79.508,7.953-77.752-17.893-149.311,5.957L251.516,263.789z"/>
	</g>

	<g id="texture_coffee">
		<defs>
			<path id="SVGID_8_" d="M270.062,274.391C81.303,314.037,9.738,623.141,33.592,758.307
				c39.756,262.375,367.447,320.168,549.854,177.125c126.359-99.09,300.881-336.141,308.832-511.061
				c7.953-230.572-294.18-182.867-445.244-166.969c-79.508,7.953-77.754-17.893-149.311,5.959L270.062,274.391z"/>
		</defs>
		<clipPath id="SVGID_3_">
			<use xlink:href="#SVGID_8_"  overflow="visible"/>
		</clipPath>
		<g clip-path="url(#SVGID_3_)">

				<image overflow="visible" width="826" height="662" xlink:href="/img/texture_paint.jpg"  transform="matrix(1.1664 0 0 1.1664 -43.6138 231.7139)"></image>
		</g>
	</g>

	<g class="text">
		<g>
			<path fill="#E36E5F" d="M248.013,856.909c-4.75,0.892-10.173,0.247-16.271-1.934c-5.181-1.854-9.468-4.684-12.864-8.489
				c-3.397-3.806-5.859-8.315-7.388-13.526c-1.528-5.212-2.105-10.977-1.729-17.298c0.375-6.319,1.79-12.904,4.241-19.756
				c2.48-6.934,5.585-12.984,9.32-18.15c3.732-5.167,7.835-9.258,12.307-12.276c4.472-3.017,9.22-4.9,14.247-5.646
				c5.024-0.747,10.127-0.193,15.308,1.66c5.93,2.121,10.5,4.957,13.707,8.508c3.204,3.549,5.451,7.346,6.739,11.386l-15.978,10.682
				c-0.786-2.543-1.91-4.734-3.371-6.577c-1.462-1.842-3.614-3.271-6.453-4.288c-2.674-0.956-5.248-1.075-7.717-0.356
				c-2.472,0.718-4.838,2.063-7.097,4.033c-2.261,1.972-4.33,4.529-6.208,7.673c-1.88,3.145-3.505,6.641-4.88,10.482
				s-2.328,7.555-2.853,11.135c-0.527,3.581-0.549,6.871-0.067,9.87s1.471,5.568,2.969,7.705c1.496,2.139,3.581,3.684,6.256,4.641
				c2.672,0.956,5.25,1.126,7.733,0.505c2.483-0.618,4.636-1.639,6.465-3.059l6.177,17.9
				C256.958,854.291,252.761,856.017,248.013,856.909z"/>
			<path fill="#E36E5F" d="M354.807,836.841c-1.697,7.258-4.069,13.696-7.114,19.317c-3.045,5.622-6.576,10.195-10.588,13.721
				c-4.016,3.526-8.477,5.945-13.384,7.258c-4.909,1.312-10.084,1.332-15.526,0.06c-5.443-1.272-10.075-3.586-13.891-6.938
				c-3.819-3.354-6.745-7.499-8.777-12.439c-2.035-4.939-3.172-10.604-3.407-16.994c-0.238-6.388,0.492-13.211,2.189-20.468
				c1.696-7.257,4.035-13.658,7.019-19.202c2.981-5.543,6.473-10.057,10.479-13.541c4.001-3.483,8.453-5.859,13.352-7.13
				c4.897-1.268,10.112-1.257,15.642,0.036c5.443,1.273,10.078,3.565,13.906,6.873c3.826,3.311,6.763,7.414,8.808,12.311
				c2.043,4.898,3.193,10.498,3.452,16.799C357.222,822.805,356.504,829.584,354.807,836.841z M333.554,831.871
				c0.929-3.973,1.489-7.736,1.683-11.292c0.192-3.554,0-6.719-0.58-9.498c-0.581-2.778-1.569-5.083-2.963-6.912
				c-1.396-1.829-3.259-3.018-5.591-3.562s-4.553-0.313-6.656,0.699c-2.105,1.011-4.033,2.634-5.785,4.866
				c-1.753,2.234-3.309,4.99-4.667,8.271c-1.362,3.282-2.504,6.91-3.434,10.883c-0.929,3.975-1.518,7.756-1.763,11.342
				c-0.247,3.588-0.08,6.771,0.501,9.548c0.58,2.779,1.583,5.11,3.012,6.992c1.425,1.884,3.308,3.097,5.64,3.642
				c2.333,0.546,4.534,0.287,6.607-0.778c2.07-1.064,3.983-2.712,5.736-4.946c1.751-2.231,3.333-5.006,4.747-8.32
				C331.452,839.491,332.625,835.847,333.554,831.871z"/>
			<path fill="#E36E5F" d="M399.971,814.768l-2.261,19.165l22.337,2.635l-2.136,18.107l-22.205-2.619l-4.396,37.273l-21.412-2.525
				l11.037-93.579l45.601,5.379l-2.246,19.033L399.971,814.768z"/>
			<path fill="#E36E5F" d="M460.598,815.739l1.638,19.229l22.41-1.908l1.547,18.167l-22.278,1.896l3.182,37.396l-21.482,1.828
				l-7.992-93.888l45.75-3.894l1.625,19.096L460.598,815.739z"/>
			<path fill="#E36E5F" d="M573.901,860.99l-59.245-73.271L550.05,759.1l11.799,14.592l-19.56,15.816l11.631,14.385l18.007-14.561
				l11.047,13.661l-18.008,14.562l12.72,15.729l20.801-16.819l12.051,14.902L573.901,860.99z"/>
			<path fill="#E36E5F" d="M646.923,760.487l-85.719-39.127l18.899-41.407l17.072,7.793l-10.445,22.883l16.829,7.682l9.615-21.066
				l15.981,7.295l-9.615,21.066l18.402,8.399l11.108-24.335l17.435,7.958L646.923,760.487z"/>
		</g>
	</g>

	<g class="extras border">
		<path fill="#E36E5F" d="M52.993,242.25c9.099,72.188,1.217,145.578-6.036,217.565c-7.356,73.019-16.172,146.933-9.91,220.371
			c5.82,68.243,27.053,135.267,76.625,184.531c27.964,27.79,62.464,47.565,98.852,62.129c19.027,7.615,38.771,13.48,58.489,19.02
			c16.896,4.746,34.06,8.528,51.332,11.624c78.376,14.046,161.426,15.312,238.939-4.487c36.748-9.387,72.873-24.376,103.396-47.157
			c14.984-11.184,28.591-23.939,40.103-38.702c12.938-16.595,22.423-34.516,30.257-54.003
			c20.445-50.859,30.311-104.63,41.71-157.991c11.35-53.125,26.657-104.655,54.831-151.511
			c13.988-23.264,30.492-45.092,46.39-67.068c16.027-22.155,32.097-44.282,47.526-66.86c31.096-45.5,59.733-93.297,78.064-145.505
			c8.698-24.775,14.618-50.722,16.604-76.933c1.404-18.536-0.467-37.75-6.505-55.379c-10.821-31.596-34.977-56.173-65.197-69.835
			C917.234,7.938,882.021,4.025,848.125,7.728c-34.645,3.785-69.031,14.895-97.865,34.782c-9.848,6.792-18.87,14.751-28.271,22.13
			c-10.632,8.343-21.565,16.313-32.724,23.937c-19.117,13.061-39.172,24.881-60.398,34.187c-1.986,0.871-7.809,3.19-11.702,4.617
			c-4.682,1.715-9.429,3.245-14.213,4.643c-8.733,2.552-17.646,4.464-26.645,5.794c-3.504,0.518,2.468-0.302-1.035,0.135
			c-1.048,0.131-2.098,0.244-3.146,0.357c-2.09,0.225-4.185,0.398-6.28,0.553c-4.517,0.333-9.046,0.466-13.573,0.477
			c-8.759,0.021-17.51-0.625-26.197-1.707c-3.521-0.438,2.467,0.354-1.059-0.15c-1.062-0.152-2.122-0.318-3.183-0.484
			c-2.137-0.335-4.267-0.712-6.395-1.102c-4.702-0.861-9.374-1.878-14.026-2.975c-9.388-2.214-18.66-4.905-27.848-7.833
			c-20.671-6.587-40.878-14.586-60.931-22.84c-23.273-9.58-46.526-19.715-69.984-29.664c-18.144-7.695-36.258-14.333-55.579-18.435
			c-67.752-14.384-150.486-6.054-202.459,44.043c-17.292,16.667-29.58,38.274-35.166,61.614
			c-6.756,28.23-3.758,57.919,3.974,85.614c4.129,14.792,27.142,8.501,22.998-6.34c-5.562-19.926-8.093-36.666-6.436-57.661
			c0.084-1.062,0.193-2.123,0.303-3.183c0.039-0.38,0.481-3.879,0.09-1.005c0.279-2.049,0.632-4.086,1.012-6.119
			c0.799-4.277,1.879-8.499,3.14-12.662c0.568-1.875,1.207-3.727,1.87-5.57c0.304-0.845,2.416-6.026,1.303-3.432
			c1.625-3.788,3.505-7.461,5.537-11.044c1.853-3.268,3.909-6.417,6.077-9.483c0.541-0.764,1.099-1.514,1.658-2.265
			c1.886-2.534-1.539,1.931,0.428-0.54c1.358-1.707,2.784-3.358,4.234-4.987c2.494-2.8,5.149-5.454,7.886-8.015
			c1.376-1.288,2.794-2.529,4.225-3.755c0.718-0.615,1.449-1.215,2.18-1.814c0.41-0.337,3.681-2.873,1.316-1.067
			c6.389-4.879,13.242-9.133,20.325-12.924c3.48-1.862,7.042-3.568,10.643-5.183c0.909-0.408,1.825-0.801,2.74-1.193
			c-2.607,1.118,0.487-0.177,0.852-0.325c2.182-0.879,4.386-1.7,6.599-2.497c8.059-2.905,16.325-5.217,24.676-7.11
			c4.092-0.928,8.215-1.713,12.352-2.416c2.085-0.354,4.178-0.667,6.272-0.967c-2.828,0.404,0.682-0.084,1.043-0.129
			c1.41-0.177,2.823-0.333,4.235-0.485c17.912-1.934,36.029-1.851,53.953-0.123c2.166,0.209,4.328,0.457,6.487,0.717
			c0.318,0.038,3.9,0.516,1.143,0.138c1.077,0.147,2.152,0.308,3.227,0.468c4.65,0.694,9.277,1.538,13.883,2.477
			c8.789,1.791,17.473,4.083,26.023,6.789c21.854,6.915,42.096,16.786,63.659,25.981c40.622,17.323,81.58,35.486,124.629,45.961
			c36.295,8.832,73.582,10.207,109.917,0.847c44.703-11.516,84.896-37.131,121.404-64.577c5.998-4.509,11.921-9.119,17.804-13.777
			c2.899-2.295,5.776-4.619,8.646-6.95c1.225-0.995,2.444-1.999,3.668-2.996c0.398-0.325,3.7-2.883,1.381-1.111
			c6.479-4.951,13.384-9.332,20.51-13.286c3.48-1.93,7.038-3.716,10.634-5.418c1.811-0.857,3.642-1.671,5.479-2.472
			c3.079-1.342-2.254,0.924,0.857-0.356c1.242-0.512,2.494-1.001,3.746-1.488c7.886-3.062,15.98-5.572,24.176-7.659
			c3.955-1.007,7.944-1.874,11.95-2.656c2.004-0.392,4.016-0.741,6.029-1.076c1.006-0.167,2.016-0.321,3.024-0.474
			c0.672-0.101,1.345-0.198,2.019-0.293c-1.486,0.196-1.532,0.203-0.138,0.023c8.39-1.076,16.845-1.605,25.301-1.681
			c8.326-0.075,16.655,0.41,24.924,1.377c0.479,0.056,3.782,0.504,0.742,0.084c0.974,0.135,1.945,0.285,2.916,0.435
			c1.934,0.299,3.859,0.646,5.781,1.008c4.121,0.776,8.206,1.735,12.257,2.814c3.685,0.982,7.324,2.125,10.928,3.373
			c1.781,0.617,3.545,1.284,5.302,1.968c0.874,0.34,1.741,0.698,2.607,1.055c-2.881-1.188,0.911,0.429,1.428,0.662
			c6.975,3.153,13.645,6.964,19.932,11.326c0.713,0.494,5.067,3.773,2.681,1.913c1.424,1.11,2.808,2.272,4.177,3.451
			c2.961,2.552,5.749,5.298,8.409,8.161c1.23,1.324,2.408,2.697,3.567,4.084c0.581,0.696,1.144,1.407,1.705,2.118
			c-1.864-2.358,0.025,0.08,0.326,0.489c2.355,3.212,4.474,6.593,6.431,10.06c0.918,1.627,1.769,3.292,2.596,4.968
			c0.393,0.795,2.613,5.855,1.515,3.21c1.624,3.909,2.956,7.935,4.108,12.006c1.112,3.932,1.956,7.937,2.648,11.962
			c0.18,1.039,0.331,2.081,0.483,3.124c-0.412-2.821,0.062,0.725,0.103,1.078c0.284,2.547,0.462,5.105,0.601,7.664
			c1.246,23.037-3.267,45.907-9.354,68.043c-14.31,52.038-41.695,99.6-71.164,144.393c-29.539,44.9-62.507,87.395-92.915,131.69
			c-32.136,46.812-51.746,99.738-64.626,154.729c-12.234,52.237-20.507,105.294-37.894,156.219
			c-2.267,6.639-4.703,13.219-7.247,19.756c-1.304,3.35-2.663,6.678-4.041,9.997c0.925-2.227-0.553,1.219-0.608,1.346
			c-0.611,1.383-1.253,2.752-1.897,4.119c-3.944,8.363-8.584,16.389-13.736,24.062c-8.867,13.207-21.211,26.511-35.194,38.101
			c-0.832,0.688-1.674,1.365-2.517,2.041c-0.175,0.141-2.991,2.339-0.993,0.801c-1.718,1.323-3.465,2.606-5.222,3.877
			c-3.826,2.769-7.76,5.386-11.749,7.91c-7.778,4.923-15.871,9.337-24.137,13.382c-9.478,4.64-14.533,6.71-24.128,10.273
			c-9.005,3.345-18.174,6.236-27.426,8.814c-9.431,2.627-18.975,4.839-28.572,6.763c-4.662,0.934-9.344,1.771-14.033,2.554
			c-2.355,0.393-4.716,0.758-7.078,1.114c-1.184,0.179-2.368,0.348-3.553,0.518c-0.791,0.112-1.582,0.222-2.374,0.33
			c1.19-0.159,1.058-0.144-0.396,0.048c-19.941,2.599-40.043,3.901-60.145,4.248c-19.944,0.344-39.904-0.377-59.786-1.959
			c-9.687-0.771-19.353-1.787-28.994-2.997c-1.14-0.143-2.278-0.292-3.417-0.441c2.59,0.34-1.148-0.159-1.363-0.188
			c-2.251-0.312-4.5-0.641-6.747-0.977c-4.804-0.718-9.597-1.504-14.382-2.335c-37.172-6.452-74.407-16.42-109.586-30.075
			c-16.9-6.561-35.545-15.802-52.21-26.359c-15.494-9.814-26.53-18.547-39.975-32.028c-5.89-5.906-11.409-12.176-16.599-18.702
			c-0.244-0.307-2.258-2.923-0.553-0.698c-0.598-0.779-1.185-1.566-1.771-2.354c-1.17-1.569-2.309-3.162-3.437-4.762
			c-2.43-3.446-4.739-6.977-6.971-10.554c-4.266-6.838-8.12-13.928-11.652-21.169c-1.695-3.475-3.286-6.999-4.815-10.549
			c1.106,2.567-1.054-2.589-1.385-3.415c-0.84-2.103-1.642-4.221-2.428-6.344c-5.701-15.401-9.9-31.333-13.055-47.439
			c-0.774-3.951-1.465-7.919-2.109-11.894c-0.325-2.001-0.626-4.007-0.92-6.014c-0.147-1.007-0.287-2.015-0.427-3.022
			c0.418,3.01-0.172-1.365-0.239-1.892c-1.081-8.549-1.875-17.132-2.482-25.726c-2.548-36.056-1.344-72.303,1.093-108.328
			c5.069-74.912,16.181-149.354,18.885-224.436c1.164-32.304,0.66-64.765-3.387-96.867c-0.812-6.448-4.809-11.925-11.925-11.925
			C59.034,230.325,52.178,235.784,52.993,242.25z"/>

	</g>

	<g class="extras">
		<g>
			<path fill="#FFFFFF" d="M660.513,623.059c-6.478-24.472-12.954-48.943-19.432-73.414c-4.89,4.89-9.779,9.779-14.669,14.669
				c24.431,6.628,48.861,13.255,73.293,19.883c-1.754-6.644-3.508-13.287-5.263-19.932c-17.953,17.844-35.907,35.688-53.861,53.531
				c-10.919,10.853,5.949,27.714,16.865,16.865c17.953-17.844,35.907-35.688,53.861-53.531c6.353-6.314,3.389-17.585-5.263-19.932
				c-24.431-6.628-48.861-13.255-73.293-19.883c-8.831-2.396-16.995,5.882-14.669,14.669c6.478,24.472,12.954,48.943,19.432,73.414
				C641.446,644.254,664.453,637.944,660.513,623.059z"/>
		</g>

		<g>
			<path fill="#FFFFFF" d="M482.579,490.791c4.051-22.36,8.102-44.72,12.152-67.08c-6.644,1.754-13.288,3.508-19.931,5.262
				c17.34,14.688,34.681,29.376,52.021,44.064c1.755-6.644,3.509-13.288,5.263-19.931c-21.392,7.672-42.783,15.344-64.174,23.016
				c-6.113,2.192-10.152,8.042-8.329,14.669c1.625,5.908,8.546,10.525,14.669,8.329c21.392-7.672,42.783-15.344,64.174-23.016
				c7.707-2.764,12.653-13.671,5.263-19.931c-17.341-14.688-34.681-29.376-52.022-44.064c-6.186-5.24-18.195-4.319-19.931,5.262
				c-4.051,22.36-8.102,44.72-12.152,67.08c-1.158,6.39,1.648,12.831,8.329,14.669C473.748,500.726,481.419,497.193,482.579,490.791
				z"/>
		</g>

		<g>
			<path fill="#E36E5F" d="M539.267,282.305c-5.089-19.229-10.177-38.458-15.266-57.688c-4.89,4.89-9.779,9.779-14.669,14.669
				c19.195,5.208,38.392,10.417,57.588,15.625c-1.754-6.644-3.508-13.288-5.263-19.931c-14.107,14.021-28.215,28.042-42.322,42.062
				c-10.919,10.852,5.948,27.713,16.865,16.864c14.107-14.021,28.215-28.042,42.322-42.062c6.353-6.314,3.389-17.584-5.263-19.931
				c-19.195-5.208-38.392-10.417-57.588-15.625c-8.832-2.396-16.994,5.882-14.669,14.669c5.088,19.229,10.177,38.458,15.266,57.688
				C520.199,303.5,543.206,297.19,539.267,282.305z"/>
		</g>

		<g>
			<path fill="#E36E5F" d="M161.946,686.955c-5.673-21.442-11.346-42.885-17.02-64.326c-4.89,4.89-9.779,9.779-14.669,14.669
				c21.405,5.808,42.81,11.614,64.215,17.422c-1.754-6.644-3.508-13.287-5.262-19.932c-15.732,15.635-31.464,31.27-47.195,46.904
				c-10.919,10.853,5.948,27.714,16.864,16.865c15.732-15.635,31.464-31.27,47.195-46.904c6.353-6.314,3.389-17.585-5.262-19.932
				c-21.405-5.808-42.81-11.614-64.215-17.422c-8.832-2.396-16.994,5.882-14.669,14.669c5.673,21.442,11.346,42.885,17.02,64.326
				C142.879,708.151,165.885,701.841,161.946,686.955z"/>
		</g>

		<g>
			<path fill="#FFFFFF" d="M842.83,196.474c23.59-0.546,41.488-19.557,41.997-42.905c0.51-23.345-19.174-42.375-41.997-42.903
				c-23.584-0.546-41.504,20.383-41.995,42.903C800.325,176.914,820.005,195.945,842.83,196.474c15.389,0.356,15.354-23.494,0-23.85
				c-10.22-0.237-17.916-8.55-18.146-19.056c-0.229-10.503,8.27-18.825,18.146-19.054c10.221-0.236,17.926,8.908,18.147,19.054
				c0.229,10.506-8.271,18.827-18.147,19.056C827.476,172.979,827.441,196.83,842.83,196.474z"/>
		</g>

		<g>
			<path fill="#FFFFFF" d="M180.379,446.308c23.589-0.546,41.484-19.557,41.993-42.903c0.509-23.344-19.169-42.373-41.993-42.901
				c-23.586-0.546-41.504,20.378-41.995,42.901C137.875,426.75,157.553,445.779,180.379,446.308c15.389,0.356,15.354-23.494,0-23.85
				c-10.221-0.237-17.916-8.548-18.146-19.054c-0.229-10.507,8.268-18.823,18.146-19.052c10.219-0.236,17.922,8.903,18.144,19.052
				c0.229,10.506-8.269,18.825-18.144,19.054C165.024,422.813,164.99,446.664,180.379,446.308z"/>
		</g>

		<g>
			<path fill="#E36E5F" d="M287.008,582.448c23.587-0.546,41.482-19.559,41.991-42.903c0.51-23.343-19.168-42.375-41.991-42.903
				c-23.586-0.546-41.508,20.38-41.999,42.903C244.499,562.892,264.183,581.92,287.008,582.448c15.389,0.356,15.354-23.494,0-23.85
				c-10.221-0.237-17.92-8.549-18.149-19.054c-0.229-10.507,8.272-18.825,18.149-19.054c10.216-0.236,17.92,8.905,18.142,19.054
				c0.229,10.504-8.271,18.825-18.142,19.054C271.653,558.954,271.619,582.805,287.008,582.448z"/>
		</g>

		<g>
			<path fill="#FFFFFF" d="M372.119,695.271c23.59-0.546,41.484-19.558,41.993-42.905c0.509-23.345-19.168-42.373-41.993-42.901
				c-23.585-0.546-41.506,20.379-41.997,42.901C329.612,675.711,349.294,694.742,372.119,695.271
				c15.389,0.356,15.354-23.494,0-23.85c-10.22-0.237-17.918-8.55-18.147-19.056c-0.229-10.507,8.271-18.823,18.147-19.052
				c10.221-0.236,17.922,8.903,18.144,19.052c0.229,10.506-8.268,18.827-18.144,19.056
				C356.765,671.776,356.73,695.627,372.119,695.271z"/>
		</g>

		<g>
			<path fill="#E36E5F" d="M729.186,416.032c23.59-0.546,41.482-19.561,41.991-42.907c0.51-23.343-19.169-42.371-41.991-42.899
				c-23.584-0.546-41.504,20.378-41.995,42.899C686.681,396.47,706.359,415.504,729.186,416.032c15.389,0.356,15.354-23.494,0-23.85
				c-10.22-0.237-17.916-8.552-18.146-19.058c-0.229-10.503,8.271-18.821,18.146-19.05c10.219-0.236,17.92,8.904,18.142,19.05
				c0.229,10.506-8.267,18.829-18.142,19.058C713.831,392.538,713.797,416.389,729.186,416.032z"/>
		</g>

		<g>
			<path fill="#FFFFFF" d="M345.629,369.13c23.59-0.546,41.484-19.558,41.993-42.905c0.509-23.345-19.169-42.373-41.993-42.901
				c-23.584-0.546-41.504,20.38-41.995,42.901C303.124,349.57,322.803,368.602,345.629,369.13c15.389,0.356,15.354-23.494,0-23.85
				c-10.22-0.237-17.916-8.55-18.146-19.056c-0.229-10.505,8.27-18.823,18.146-19.052c10.221-0.236,17.922,8.904,18.144,19.052
				c0.229,10.506-8.268,18.827-18.144,19.056C330.274,345.636,330.24,369.486,345.629,369.13z"/>
		</g>

		<g>
			<path fill="#FFFFFF" d="M210.479,228.681c23.59-0.546,41.484-19.558,41.993-42.905c0.509-23.345-19.168-42.373-41.993-42.901
				c-23.585-0.546-41.504,20.379-41.995,42.901C167.974,209.121,187.653,228.152,210.479,228.681
				c15.389,0.356,15.354-23.494,0-23.85c-10.22-0.237-17.916-8.55-18.146-19.056c-0.229-10.506,8.27-18.823,18.146-19.052
				c10.221-0.236,17.922,8.903,18.144,19.052c0.229,10.506-8.268,18.827-18.144,19.056
				C195.124,205.187,195.089,229.037,210.479,228.681z"/>
		</g>
	</g>
</svg>
