<svg version="1.1" id="Layer_1" xmlns="http://www.w3.org/2000/svg" xmlns:xlink="http://www.w3.org/1999/xlink" x="0px" y="0px"
	 width="256px" height="256px" viewBox="0 0 1024 1024" enable-background="new 0 0 1024 1024" xml:space="preserve">

	 <style>
		#texture_walking {
			mix-blend-mode: multiply;
			opacity: 0.75;
		}
	</style>

<g>
	<g>
		<g>
			<path fill="#b9ef95" d="M416.578,318.027c29.621-75.796,14.418-272.852,141.766-273.146c24.947-0.055,46.84-1.834,71.074-4.269
				c35.863-3.6,56.219,15.205,83.131,36.354c19.848,15.601,43.675,21.665,60.971,40.585c18.639,20.391,33.582,51.663,49.098,74.24
				c14.529,21.157,22.229,39.051,26.073,61.818c4.706,27.855,22.665,54.278,27.048,82.353c8.025,51.402,21.633,113.806,7.35,160.197
				c-17.239,56.007-43.65,113.428-79.474,159.209c-34.577,44.188-86.11,76.817-122.467,120.561
				c-63.118,75.927-129.12,188.828-244.76,211.46c-106.593,20.857-248.151-66.688-233.792-175.032
				c11.125-83.878,104.382-125.289,146.682-191.158c26.358-41.044,38.836-96.807,48.948-145.259
				C408.871,424.948,397.874,365.951,416.578,318.027C422.592,302.633,414.1,324.38,416.578,318.027z"/>
		</g>
		<g>
			<path fill="#b9ef95" d="M637.463,466.053c32.679-74.529,182.816-203.063,93.007-293.352
				c-17.595-17.686-31.812-34.429-47.218-53.292c-22.805-27.914-50.495-29.02-84.477-33.108
				c-25.064-3.012-46.196-15.58-71.807-14.441c-27.598,1.229-60.281,12.763-87.219,17.747
				c-25.236,4.677-43.335,11.879-62.157,25.253c-23.03,16.36-54.417,22.333-77.372,39.078
				c-42.035,30.657-95.793,65.143-118.514,108.035c-27.432,51.783-49.382,111.053-56.443,168.754
				c-6.816,55.693,6.528,115.209,1.285,171.847c-9.094,98.315-42.303,224.808,23.428,322.604
				c60.591,90.143,222.578,128.395,289.066,41.654c51.471-67.157,14.844-162.397,31.539-238.876
				c10.401-47.656,41.025-95.9,68.15-137.3C567.28,547.081,616.785,513.158,637.463,466.053
				C644.1,450.917,634.721,472.296,637.463,466.053z"/>
		</g>
	</g>
	<g id="texture_walking">
		<defs>
			<path id="SVGID_11_" d="M902.393,345.08c-4.382-28.075-22.342-54.497-27.047-82.353c-3.846-22.768-11.544-40.662-26.074-61.818
				c-15.514-22.578-30.458-53.85-49.096-74.241c-17.297-18.92-41.125-24.984-60.974-40.584
				c-26.911-21.148-47.268-39.954-83.13-36.354c-24.234,2.434-46.126,4.214-71.073,4.268c-32.807,0.076-56.155,13.21-73.243,33.966
				c-15.656,3.774-31.287,8.156-45.35,10.758c-25.236,4.677-43.336,11.879-62.16,25.253c-23.028,16.36-54.415,22.333-77.371,39.078
				c-42.033,30.657-95.794,65.143-118.514,108.036c-27.43,51.782-49.38,111.052-56.444,168.753
				c-6.815,55.693,6.531,115.209,1.286,171.847c-9.092,98.315-42.303,224.808,23.429,322.604
				c54.226,80.672,189.648,119.768,265.165,64.923c7.193-0.463,14.295-1.352,21.246-2.711
				c115.639-22.631,181.641-135.533,244.76-211.46c36.356-43.743,87.889-76.373,122.467-120.56
				c35.823-45.782,62.234-103.203,79.473-159.21C924.024,458.887,910.419,396.481,902.393,345.08z"/>
		</defs>
		<clipPath id="SVGID_2_">
			<use xlink:href="#SVGID_11_"  overflow="visible"/>
		</clipPath>
		<g id="DsD5mp_11_" clip-path="url(#SVGID_2_)">

				<image overflow="visible" width="826" height="662" id="DsD5mp_12_" xlink:href="/img/texture_paint.jpg"  transform="matrix(1.5329 0 0 1.5329 -56.875 43.209)">
			</image>
		</g>
	</g>
</g>
<g class="text">
	<g>
		<path fill="#662D91" d="M585.322,735.542l-14.982,18.491l-59.336-32.4l-0.177,0.219l44.089,51.218l-14.983,18.491l-88.735-47.932
			l14.367-17.73l60.059,35.51l0.353-0.436l-46.839-51.826l13.661-16.861l60.677,34.75l0.265-0.326l-47.28-51.282l13.661-16.86
			L585.322,735.542z"/>
		<path fill="#662D91" d="M637.123,683.793l-15.381-10.301l-16.142,15.33l9.493,15.891l-16.243,15.426l-50.796-88.456l20.405-19.378
			l85.616,55.387L637.123,683.793z M572.951,637.772l-0.406,0.386l22.928,36.34l12.283-11.666L572.951,637.772z"/>
		<path fill="#662D91" d="M670.15,659.117l-65.817-74.113l16.958-15.061l52.059,58.621l19.784-17.57l13.759,15.493L670.15,659.117z"
			/>
		<path fill="#662D91" d="M751.249,562.934l-50.079-7.781l-0.231,0.351l38.414,25.412l-12.436,18.8l-82.668-54.688l12.436-18.799
			l34.445,22.787l0.231-0.352l-23.168-39.834l13.828-20.9l23.771,46.278l59.745,7.125L751.249,562.934z"/>
		<path fill="#662D91" d="M775.857,520.596l-88.062-45.492l10.345-20.026l88.063,45.494L775.857,520.596z"/>
		<path fill="#662D91" d="M815.503,431.081l-64.551,1.113l-0.144,0.394l56.947,19.957l-6.796,18.832l-93.235-33.648l8.366-23.176
			l65.293-0.696l0.143-0.396l-57.689-20.372l6.558-18.174l93.234,33.648L815.503,431.081z"/>
		<path fill="#662D91" d="M831.357,308.631c1.695,4.407,2.686,9.641,2.963,15.701c0.287,6.247-0.715,11.875-3.008,16.886
			c-2.292,5.01-5.62,9.321-9.987,12.932c-4.364,3.612-9.675,6.471-15.934,8.58c-6.255,2.108-13.252,3.341-20.991,3.697
			c-7.738,0.355-14.842-0.229-21.313-1.754c-6.47-1.525-12.091-3.86-16.859-7.003c-4.769-3.145-8.521-7.013-11.255-11.607
			c-2.732-4.591-4.232-9.778-4.498-15.56c-0.309-6.712,0.577-12.382,2.652-17.009c2.078-4.626,4.782-8.325,8.109-11.095
			l16.923,11.416c-4.507,3.586-6.628,8.281-6.36,14.088c0.141,3.09,1.081,5.722,2.814,7.894c1.735,2.174,4.035,3.944,6.9,5.314
			c2.866,1.371,6.182,2.32,9.941,2.851c3.763,0.532,7.74,0.7,11.937,0.508c4.195-0.193,8.144-0.703,11.842-1.53
			c3.701-0.826,6.914-2.032,9.644-3.613c2.731-1.581,4.886-3.513,6.461-5.793c1.577-2.281,2.295-4.967,2.153-8.061
			c-0.155-3.374-0.976-5.969-2.46-7.78l-18.46,0.847l0.487,10.629l-19.439,0.893l-1.387-30.208l52.725-2.421
			C827.527,300.493,829.662,304.224,831.357,308.631z"/>
	</g>
</g>
<g class="extras border">
	<g>
		<path fill="#662D91" d="M476.367,204.055c21.476-37.362,43.934-74.367,72.547-105.687c27.941-30.585,61.259-53.648,100.758-65.34
			c22.971-6.799,46.084-9.331,70.004-9.332c11.551-0.001,22.142,0.863,32.822,2.98c9.582,1.9,21.076,5.448,28.707,8.749
			c37.086,16.042,63.256,45.624,81.528,81.148c17.811,34.627,27.098,75.513,28.6,114.18c1.019,26.2-1.424,53.007-4.653,78.982
			c-3.079,24.776-8.086,49.351-14.451,73.483c-25.325,96.031-76.549,182.928-141.04,257.83
			c-16.835,19.552-34.581,38.31-52.952,56.422c-13.57,13.379-27.511,26.312-40.699,40.077
			c-26.516,27.675-51.93,56.381-78.516,83.991c-28.561,29.661-59.802,59.811-91.674,83.862
			c-15.995,12.069-32.784,23.13-50.482,32.544c-16.805,8.938-31.694,15.049-50.704,19.778c-4.222,1.051-8.488,1.917-12.774,2.661
			c-5.195,0.901-6.075,0.982-11.994,1.465c-8.963,0.73-17.984,0.604-26.934-0.248c-4.416-0.421-5.684-0.634-11.084-1.68
			c-4.76-0.922-9.461-2.131-14.108-3.509c-10.002-2.967-16.687-5.843-25.591-10.45c-20.014-10.355-38.438-24.199-53.035-41.414
			c-6.706-7.907-12.374-17.94-15.585-26.751c-3.749-10.285-5.009-18.629-5.188-28.883c-0.354-20.016,5.791-40.831,13.959-59.324
			c9.318-21.095,21.5-40.852,34.284-59.993c11.913-17.836,24.657-35.093,36.799-52.771c15.578-22.682,30.305-46.01,44.747-69.427
			c30.729-49.826,58.709-101.292,83.039-154.549c5.977-13.083,12.127-26.199,16.871-39.789c3.842-11.002,6.801-22.303,9.465-33.64
			c5.831-24.818,9.957-50.006,14.949-74.998C450.849,270.041,458.881,234.798,476.367,204.055
			c7.185-12.631-12.257-23.964-19.428-11.356c-25.461,44.76-32.992,97.159-42.561,146.99c-4.525,23.564-9.334,47.245-17.392,69.898
			c-4.688,13.177-10.923,25.888-16.782,38.574c-6.283,13.603-12.828,27.083-19.576,40.461
			c-26.109,51.758-55.902,101.533-87.469,150.126c-24.787,38.157-53.312,74.045-75.713,113.711
			c-21.725,38.472-39.002,84.779-24.913,128.906c7.605,23.819,23.692,43.204,42.694,58.947
			c17.289,14.325,36.233,25.96,57.188,34.081c77.404,30.002,155.971-10.112,216.431-57.366
			c63.087-49.307,113.968-111.373,169.435-168.586c14.181-14.628,29.246-28.345,43.621-42.778
			c18.15-18.224,35.562-37.183,52.135-56.851c32.543-38.62,61.74-80.142,85.862-124.541c23.911-44.01,42.646-90.944,55.167-139.447
			c6.506-25.197,11.098-50.818,14.306-76.634c3.216-25.865,5.429-52.533,4.415-78.612c-3.133-80.663-37.89-171.258-113.459-209.92
			C757.527-2.238,707.003-2.528,660.776,7.049c-42.802,8.867-81.347,30.594-113.03,60.415
			c-37.707,35.49-65.201,80.687-90.807,125.235C449.695,205.3,469.141,216.628,476.367,204.055z"/>
	</g>
</g>
<g class="extras">
	<g>
		<g>
			<path fill="#662D91" d="M818.453,145.555c-23.907,0.524-42.078,19.868-42.566,43.516c-0.488,23.646,19.395,43.005,42.566,43.514
				c23.904,0.524,42.096-20.657,42.568-43.514C861.51,165.423,841.625,146.063,818.453,145.555c-14.518-0.318-14.487,22.182,0,22.5
				c11.155,0.245,19.828,9.373,20.068,21.016c0.24,11.645-9.272,20.777-20.068,21.014c-11.156,0.245-19.834-9.741-20.066-21.014
				c-0.24-11.644,9.271-20.779,20.066-21.016C832.94,167.737,832.971,145.236,818.453,145.555z"/>
		</g>
	</g>
	<g>
		<g>
			<path fill="#662D91" d="M608.453,374.555c-23.907,0.524-42.078,19.868-42.566,43.516c-0.488,23.646,19.395,43.005,42.566,43.514
				c23.904,0.524,42.096-20.657,42.568-43.514C651.51,394.423,631.625,375.063,608.453,374.555c-14.518-0.318-14.487,22.182,0,22.5
				c11.155,0.245,19.828,9.373,20.068,21.016c0.24,11.645-9.272,20.777-20.068,21.014c-11.156,0.245-19.834-9.741-20.066-21.014
				c-0.24-11.644,9.271-20.779,20.066-21.016C622.94,396.737,622.971,374.236,608.453,374.555z"/>
		</g>
	</g>
	<g>
		<g>
			<path fill="#FFFFFF" d="M211.453,474.555c-23.907,0.524-42.078,19.868-42.566,43.516c-0.488,23.646,19.395,43.005,42.566,43.514
				c23.904,0.524,42.096-20.656,42.568-43.514C254.51,494.423,234.625,475.063,211.453,474.555c-14.518-0.318-14.487,22.182,0,22.5
				c11.155,0.245,19.828,9.373,20.068,21.016c0.24,11.645-9.272,20.777-20.068,21.014c-11.156,0.245-19.834-9.741-20.066-21.014
				c-0.24-11.644,9.271-20.779,20.066-21.016C225.94,496.737,225.971,474.236,211.453,474.555z"/>
		</g>
	</g>
	<g>
		<g>
			<path fill="#FFFFFF" d="M293.453,828.555c-23.907,0.524-42.078,19.868-42.566,43.516c-0.488,23.646,19.395,43.005,42.566,43.514
				c23.904,0.524,42.096-20.656,42.568-43.514C336.51,848.423,316.625,829.063,293.453,828.555c-14.518-0.318-14.487,22.182,0,22.5
				c11.155,0.245,19.828,9.373,20.068,21.016c0.24,11.645-9.272,20.777-20.068,21.014c-11.156,0.245-19.834-9.741-20.066-21.014
				c-0.24-11.645,9.271-20.778,20.066-21.016C307.94,850.736,307.971,828.236,293.453,828.555z"/>
		</g>
	</g>
	<g>
		<g>
			<path fill="#FFFFFF" d="M647.299,70.57c-23.906,0.524-42.08,19.868-42.568,43.516c-0.488,23.646,19.396,43.005,42.568,43.514
				c23.905,0.524,42.096-20.656,42.568-43.514C690.355,90.439,670.471,71.079,647.299,70.57c-14.518-0.318-14.487,22.182,0,22.5
				c11.155,0.245,19.828,9.373,20.068,21.016c0.24,11.646-9.272,20.777-20.068,21.014c-11.154,0.245-19.836-9.74-20.068-21.014
				c-0.24-11.644,9.275-20.779,20.068-21.016C661.786,92.752,661.816,70.252,647.299,70.57z"/>
		</g>
	</g>
	<g>
		<g>
			<g>
				<path fill="#FFFFFF" d="M499.914,497.738c-25.048,10.228-50.096,20.456-75.143,30.684c-5.673,2.315-9.631,7.393-7.857,13.838
					c1.48,5.383,8.15,10.181,13.838,7.857c25.048-10.228,50.096-20.455,75.143-30.684c5.673-2.315,9.631-7.392,7.857-13.838
					C512.271,500.213,505.602,495.416,499.914,497.738L499.914,497.738z"/>
			</g>
		</g>
		<g>
			<g>
				<path fill="#FFFFFF" d="M490.967,559.832c-10.228-25.048-20.455-50.095-30.684-75.143c-2.316-5.672-7.393-9.63-13.838-7.857
					c-5.383,1.48-10.18,8.151-7.857,13.839c10.228,25.048,20.455,50.095,30.684,75.142c2.316,5.673,7.393,9.631,13.838,7.857
					C488.492,572.189,493.289,565.519,490.967,559.832L490.967,559.832z"/>
			</g>
		</g>
	</g>
	<g>
		<g>
			<path fill="#662D91" d="M340.953,662.73c8.481,20.109,16.964,40.219,25.445,60.328c3.617-4.746,7.232-9.493,10.849-14.24
				c-21.655-2.709-43.311-5.417-64.966-8.126c3.238,5.643,6.477,11.285,9.714,16.928c13.173-17.4,26.347-34.802,39.52-52.203
				c3.711-4.901,0.782-12.569-4.036-15.392c-5.766-3.378-11.698-0.843-15.392,4.036c-13.173,17.4-26.347,34.802-39.52,52.203
				c-5.796,7.655,2.4,16.013,9.714,16.928c21.655,2.709,43.311,5.417,64.966,8.126c6.753,0.845,13.508-7.935,10.849-14.24
				c-8.482-20.11-16.965-40.22-25.447-60.33c-2.381-5.646-7.341-9.645-13.838-7.857
				C343.479,650.357,338.564,657.067,340.953,662.73z"/>
		</g>
		<g>
			<path fill="#662D91" d="M337.122,443.794c-13.646-17.033-27.292-34.066-40.938-51.1c-1.654,6.268-3.31,12.536-4.965,18.803
				c21.573-3.301,43.146-6.603,64.719-9.904c-4.612-4.613-9.226-9.226-13.838-13.839c-7.928,20.335-15.854,40.669-23.781,61.004
				c-2.23,5.721,2.404,12.339,7.857,13.839c6.375,1.753,11.614-2.149,13.84-7.857c7.926-20.335,15.854-40.669,23.779-61.004
				c3.477-8.917-6.39-14.979-13.838-13.839c-21.573,3.301-43.146,6.603-64.719,9.904c-9.297,1.423-9.579,13.043-4.965,18.803
				c13.646,17.033,27.293,34.066,40.938,51.1c3.841,4.793,11.933,3.978,15.91,0C341.812,455.014,340.952,448.576,337.122,443.794z"
				/>
		</g>
	</g>
	<g>
		<g>
			<path fill="#FFFFFF" d="M591.52,260.013c-21.826-0.074-43.65-0.148-65.477-0.222c3.238,5.643,6.477,11.285,9.714,16.928
				c10.976-18.863,21.95-37.727,32.926-56.589c-6.476,0-12.952,0-19.428,0c10.851,18.937,21.7,37.874,32.551,56.811
				c7.21,12.583,26.653,1.254,19.428-11.356c-10.851-18.937-21.7-37.874-32.551-56.811c-4.204-7.338-15.204-7.259-19.428,0
				c-10.976,18.863-21.95,37.727-32.926,56.589c-4.302,7.393,1.183,16.899,9.714,16.928c21.826,0.074,43.65,0.148,65.477,0.222
				C606.031,282.562,606.026,260.062,591.52,260.013z"/>
		</g>
	</g>
	<g>
		<g>
			<path fill="#662D91" d="M175.997,359.756c26.313,0.295,52.626,0.591,78.938,0.887c6.185,0.069,11.182-5.171,11.25-11.25
				c0.246-22.069,0.492-44.138,0.739-66.207c-3.75,3.75-7.5,7.5-11.25,11.25c25.464,0.286,50.929,0.572,76.394,0.857
				c6.185,0.069,11.182-5.171,11.25-11.25c0.266-23.766,0.533-47.533,0.799-71.299c-3.75,3.75-7.5,7.5-11.25,11.25
				c25.463,0.287,50.928,0.574,76.391,0.861c6.186,0.07,11.182-5.171,11.25-11.25c0.277-24.617,0.555-49.233,0.833-73.85
				c0.163-14.516-22.337-14.5-22.5,0c-0.278,24.617-0.556,49.233-0.833,73.85c3.75-3.75,7.5-7.5,11.25-11.25
				c-25.463-0.287-50.928-0.574-76.391-0.861c-6.185-0.07-11.182,5.171-11.25,11.25c-0.266,23.766-0.533,47.533-0.799,71.299
				c3.75-3.75,7.5-7.5,11.25-11.25c-25.465-0.286-50.93-0.572-76.394-0.857c-6.185-0.069-11.183,5.171-11.25,11.25
				c-0.247,22.069-0.493,44.138-0.739,66.207c3.75-3.75,7.5-7.5,11.25-11.25c-26.312-0.295-52.625-0.591-78.938-0.887
				C161.481,337.093,161.497,359.593,175.997,359.756L175.997,359.756z"/>
		</g>
	</g>
</g>
</svg>
