<svg version="1.1" id="Layer_1" xmlns="http://www.w3.org/2000/svg" xmlns:xlink="http://www.w3.org/1999/xlink" x="0px" y="0px"
	 width="256px" height="256px" viewBox="0 0 1024 1024" enable-background="new 0 0 1024 1024" xml:space="preserve">

	<style>
		#texture_health {
			mix-blend-mode: overlay;
		}
	</style>

<g>
	<g>
		<path fill="#9AB6F4" d="M172.51562,215.55713C15.48145,170.11182,76.82227,367.2832,71.19531,495.96729
			C66.69043,598.9668-0.79883,784.20215,72.14062,869.66895c100.7998,118.1084,296.41602-30.20605,413.30664-38.28809
			c89.16211-6.16504,115.48242-6.35645,204.63867,0c55.47559,3.95508,122.38867,20.85449,175.91309-4.10156
			c122.42383-57.07715,50.01562-342.1333,55.90625-456.05762c7.63574-147.67041-105.74023-206.49268-218.07715-210.51123
			c-105.16211-3.76221-145.59082,23.14893-249.05469,40.07861c-62.16602,10.16797-72.17773,25.18115-179.18555,39.78174
			C252.8877,243.66846,194.60547,221.94922,172.51562,215.55713z"/>
	</g>
	<g opacity="0.5" id="texture_health">
		<defs>
			<path id="SVGID_7_" opacity="0.5" d="M158.76172,225.97021C28.8252,193.35889,97.49023,367.2832,91.86133,495.96729
				c-4.50684,102.99951-71.99414,288.23486,0.94531,373.70166c100.80078,118.1084,296.41211-30.20605,413.30664-38.28809
				c89.16211-6.16504,115.48242-6.35645,204.63672,0c55.47559,3.95508,122.38672,20.85449,175.91504-4.10156
				c122.4209-57.07715,50.0166-342.1333,55.9082-456.05762c7.63477-147.67041-105.74023-206.49268-218.08105-210.51123
				c-105.15918-3.76221-145.58789,23.14893-249.05176,40.07861c-62.16895,10.16797-136.42871,39.78174-199.85254,39.78174
				C243.66895,240.5708,203.61719,237.22754,158.76172,225.97021z"/>
		</defs>
		<clipPath id="HEALTH_CLIP_PATH">
			<use xlink:href="#SVGID_7_"  overflow="visible"/>
		</clipPath>
		<g id="G2PpH8_1_" clip-path="url(#HEALTH_CLIP_PATH)">
			<image overflow="visible" width="820" height="657" id="G2PpH8" xlink:href="/img/texture_paint_mauve.jpg"  transform="matrix(1.15341 0 0 1.23322 32.19531 133.41357)"></image>
		</g>
	</g>
</g>
<g>
	<g>
		<path fill="#9E005D" d="M215.70508,610.47266l20.91406-17.46191l19.45312,23.29883l23.2998-19.45312l-19.45312-23.29883
			l21.00684-17.53711l53.83887,64.48535l-21.00684,17.53809l-21.98047-26.32715l-23.29883,19.45215l21.97949,26.32715
			l-20.91309,17.46191L215.70508,610.47266z"/>
		<path fill="#9E005D" d="M421.94238,607.67676l-43.71582-10.36523l-3.25293,13.71973l48.83105,11.57715l-7.48828,18.11816
			l-71.96875-17.06348l19.37988-81.73438l72.20117,17.11816l-4.46582,18.83496l-46.04102-10.91602l-2.70215,11.39453
			l43.7168,10.36523L421.94238,607.67676z"/>
		<path fill="#9E005D" d="M475.90527,555.58301l-4.55664,15.91113l-27.32617,1.42188l27.37598-85.54102l35.55957-1.85107
			l38.13672,82.13232l-29.23535,1.52246l-6.54102-15.33496L475.90527,555.58301z M501.98145,534.72168
			c-6.27832-14.86914-9.99707-24.24805-12.38574-31.0625l-0.47754,0.02441c-1.42969,7.01367-4.50781,19.13965-8.37793,32.14355
			L501.98145,534.72168z"/>
		<path fill="#9E005D" d="M521.27344,469.06445l19.09863-19.59717l46.21094,45.03369l31.44043-32.2627l11.69824,15.90381
			l-48.28613,49.54932L521.27344,469.06445z"/>
		<path fill="#9E005D" d="M639.36328,431.16699l-22.16406,16.85254l-11.7168-15.40967l65.82617-50.05127l11.7168,15.40967
			l-21.97363,16.70752l39.12988,51.4624l-21.6875,16.49121L639.36328,431.16699z"/>
		<path fill="#9E005D" d="M684.22461,350.23975l22.04199-16.01562l17.8418,24.55566l24.55566-17.84229l-17.84277-24.55566
			l22.13867-16.08545l49.38086,67.96143l-22.1377,16.08643l-20.16016-27.74512l-24.55469,17.84229l20.16016,27.74414
			l-22.04199,16.01562L684.22461,350.23975z"/>
	</g>
</g>

<g class="extras border">
	<g>
		<path fill="#9E005D" d="M317.85742,864.40625c32.5625,4.92383,65.29102,9.23047,98.26562,9.69922
			c31.80566,0.45215,63.56641-2.68359,95.05469-6.90234c63.08887-8.45215,125.76953-21.81836,189.64551-22.57324
			c64.38672-0.76074,128.06738,11.10254,192.27539,13.91406c12.86133,0.56348,25.69434,0.61914,38.55762,0.26074
			c10.07227-0.28125,21.46094-0.30176,29.99609,1.35547c4.99707,0.96973,8.49219,2.17578,11.89258,4.05566
			c3.63867,2.01172,5.02246,3.47754,7.16113,7.19531c0.4502,0.78223,0.83301,1.59961,1.21582,2.41504
			c-1.16211-2.47461,0.04492,0.26953,0.19824,0.70801c0.61523,1.76074,1.03613,3.58594,1.40137,5.41211
			c0.08594,0.42676,0.46875,3.55273,0.15039,0.79199c0.1123,0.9668,0.16699,1.93945,0.22266,2.91016
			c0.13281,2.31836,0.05273,4.64551-0.09668,6.96094c-0.06543,1.0127-0.17969,2.02148-0.29395,3.0293
			c0.29492-2.61035-0.15918,0.75391-0.21289,1.06543c-0.35742,2.04199-0.84961,4.05957-1.38281,6.0625
			c-0.53516,2.01465-1.19727,3.99414-1.89844,5.95605c-0.34961,0.98047-0.74023,1.94629-1.13086,2.91113
			c0.86523-2.13965-0.82812,1.65625-1.00781,2.02246c-1.77246,3.62695-3.92188,7.05957-6.31738,10.30371
			c1.47559-1.99707-0.47949,0.5127-0.67871,0.74902c-0.61719,0.72559-1.27148,1.41699-1.92676,2.10742
			c-0.64355,0.67773-1.32324,1.31738-2.00488,1.95605c-0.37695,0.35254-3.4502,2.80859-1.22656,1.13281
			c-1.40137,1.05664-2.90625,1.96191-4.44531,2.7998c-0.46973,0.25488-3.10742,1.38379-0.40527,0.2832
			c-0.77637,0.31641-1.5791,0.5625-2.37988,0.80762c-0.79492,0.24316-1.61133,0.41113-2.42578,0.57715
			c-2.7832,0.56738,2.53223-0.20215-0.30762-0.01172c-0.83691,0.05566-1.67773,0.02441-2.51562-0.00684
			c-1.89551-0.07129,1.94141,0.48047-1.26855-0.21289c-0.87891-0.18945-1.73535-0.4707-2.58789-0.74902
			c-2.89453-0.94531,2.05078,1.0293-0.79199-0.33301c-1.8623-0.89258-3.58691-2.05078-5.25684-3.25684
			c1.70801,1.2334-1.24023-1.1582-1.2373-1.15625c-0.91895-0.82227-1.77539-1.71094-2.63281-2.5957
			c-2.25293-2.32422-2.83789-3.11816-4.21484-5.0752c-10.26758-14.58594-10.31152-31.82715-6.36816-49.01562
			c4.82227-21.01953,14.12793-39.20117,24.67578-58.07715c9.88086-17.68359,20.96484-34.64844,31.10059-52.17969
			c13.1084-22.6748,22.8916-47.28711,28.31738-72.92578c11.58984-54.75586,3.25391-111.38477-2.21484-166.35352
			c-3.08008-30.94629-6.57227-62.00781-14.01172-92.2583c-5.92773-24.09766-14.58398-47.54492-25.60449-69.7749
			c-21.76172-43.8999-54.79199-81.7207-95.85645-108.50537c-48.06738-31.35303-105.80762-46.8457-162.14746-54.33594
			c-58.93945-7.83594-119.24512-8.03418-178.60645-6.75635c-62.53906,1.3457-124.98633,8.70605-186.21777,21.43945
			c-30.25098,6.29053-60.19141,14.04785-89.74512,23.05469c-27.99023,8.52979-56.44336,17.52148-82.94043,30.04883
			c-45.63477,21.5752-84.41113,57.07959-112.48438,98.77734c-14.0498,20.86768-25.07324,43.86035-32.7793,67.79834
			c-7.46777,23.20068-10.55859,47.40527-11.75488,71.67529c-2.40625,48.80566,3.59961,98.4043,16.46484,145.49902
			c12.88281,47.15527,33.65039,92.49609,64.2627,130.79785c10.93066,13.67773,23.49707,25.61914,36.66406,37.10742
			c13.02441,11.36426,26.58887,20.19336,43.14746,25.4834c21.6709,6.92383,44.81836,9.92188,67.2627,13.17188
			C270.25,857.09766,294.04492,860.78418,317.85742,864.40625c6.05664,0.92188,12.07031-1.42969,13.83789-7.85742
			c1.48047-5.37891-1.78516-12.91504-7.85742-13.83789c-31.94629-4.86035-64.02051-9.19531-95.88867-14.53223
			c-14.83301-2.4834-29.83984-5.25391-44.1875-9.83789c-8.41895-2.68945-17.91895-7.93262-24.5625-13.16504
			c-37.2959-29.37305-64.25977-66.76465-83.47754-110c-19.47559-43.81641-30.17773-92.1084-33.80957-139.61621
			C38.2959,508.25,40.99707,460.7251,59.15234,416.51416c18.21191-44.34668,50.84277-83.63428,89.75293-111.35156
			c20.53809-14.62988,42.76855-25.19824,66.38965-33.7583c29.05176-10.52881,58.59668-19.68555,88.47461-27.56592
			c59.59082-15.7168,120.57617-25.83887,182.04102-30.26758c31.00879-2.23438,62.0332-2.60059,93.10938-2.50342
			c29.70215,0.09326,59.41504,0.55566,89.05957,2.521c57.19922,3.7915,114.47168,14.41309,166.5,39.29102
			c43.49414,20.79736,79.3916,53.38477,104.70215,94.28711c27.48047,44.40625,40.05859,94.87891,46.18945,146.31885
			c3.59375,30.15625,6.54395,60.48242,8.95898,90.75684c2.11133,26.45312,2.96973,53.08789-0.16797,79.49609
			c-3.125,26.29688-11.60547,51.88965-23.80469,75.32227c-8.95117,17.19141-19.8252,33.37109-29.66602,50.05566
			c-11.39648,19.32227-21.98242,39.29883-29.34766,60.54395c-6.71777,19.37988-10.05176,40.83105-4.63281,60.9375
			c5.0625,18.7832,20.23438,39.12891,40.13379,43.42578c19.22559,4.15039,35.49512-8.09473,45.8623-23.12402
			c10.66113-15.45605,15.4668-35.56836,12.95312-54.1084c-1.25391-9.24609-5.1543-17.72949-11.37695-24.68164
			c-7.30078-8.1543-18.625-12.24805-29.11719-14.10352c-11.07422-1.95703-22.30762-1.99609-33.50977-1.70117
			c-12.86816,0.33789-25.69141,0.2666-38.55762-0.26074c-32.14355-1.31641-64.13574-4.99121-96.125-8.22168
			c-31.95801-3.22754-64.00195-5.94824-96.15039-5.69238c-32.25684,0.25684-64.375,4.01172-96.2793,8.49902
			c-46.27051,6.50684-92.23828,15.25098-138.84961,19.1084c-47.72363,3.94922-94.62891,0.11328-141.85645-7.02637
			c-6.05762-0.91602-12.06934,1.42578-13.83789,7.85742C308.52148,855.94336,311.7832,863.48828,317.85742,864.40625z"/>
	</g>
</g>
<g class="extras">
	<g>
		<path fill="#FFFFFF" d="M715.79102,654.76562c-6.04688-22.84375-12.09277-45.68848-18.13867-68.5332
			c-4.61328,4.61328-9.22656,9.22656-13.83984,13.83984c22.80664,6.18652,45.6123,12.37402,68.41797,18.56055
			c-1.6543-6.26758-3.30859-12.53516-4.96387-18.80273c-16.75977,16.65723-33.51953,33.31445-50.2793,49.97168
			c-10.30078,10.23828,5.6123,26.14551,15.91016,15.91016c16.75977-16.65723,33.51953-33.31445,50.2793-49.97168
			c5.99316-5.95703,3.19727-16.58887-4.96387-18.80273c-22.80664-6.1875-45.6123-12.375-68.41797-18.5625
			c-8.33203-2.25977-16.0332,5.54883-13.83984,13.83984c6.04688,22.84375,12.09277,45.68848,18.13867,68.5332
			C697.80371,674.76172,719.50781,668.80957,715.79102,654.76562z"/>
	</g>
	<g>
		<path fill="#9E005D" d="M557.06641,681.44922c1.14746,21.18262,2.29395,42.36621,3.44141,63.54883
			c5.64258-3.23828,11.28516-6.47559,16.92773-9.71387c-18.91895-9.59863-37.83789-19.19727-56.75781-28.7959
			c0,6.47559,0,12.95215,0,19.42773c17.77246-11.58398,35.54492-23.16797,53.31641-34.75293
			c12.10254-7.88867,0.83984-27.37695-11.35547-19.42773c-17.77246,11.58398-35.54492,23.16895-53.31641,34.75293
			c-6.64844,4.33301-7.93262,15.40332,0,19.42773c18.91895,9.59863,37.83789,19.19727,56.75781,28.7959
			c7.14355,3.625,17.41602-0.6875,16.92773-9.71387c-1.14746-21.18262-2.29395-42.36621-3.44141-63.54883
			c-0.33203-6.12109-4.86621-11.25-11.25-11.25C562.43555,670.19922,556.73438,675.32031,557.06641,681.44922z"/>
	</g>
	<g>
		<path fill="#FFFFFF" d="M244.00391,380.64014c3.78125-20.87402,7.5625-41.74805,11.34375-62.62207
			c-6.26758,1.65479-12.53516,3.30957-18.80273,4.96436c16.1875,13.71191,32.37598,27.42383,48.56348,41.13574
			c1.65527-6.26758,3.30957-12.53564,4.96387-18.80322c-19.96875,7.16211-39.9375,14.32422-59.90625,21.48633
			c-5.76758,2.06836-9.57812,7.58691-7.85742,13.83887c1.5332,5.57373,8.0625,9.9292,13.83789,7.85742
			c19.96973-7.16211,39.93848-14.32422,59.9082-21.48633c7.27051-2.60791,11.93652-12.89697,4.96387-18.80322
			c-16.18848-13.71191-32.37598-27.42383-48.56348-41.13574c-5.83594-4.94336-17.16602-4.07422-18.80273,4.96436
			c-3.78125,20.87402-7.5625,41.74805-11.34375,62.62207c-1.09277,6.02832,1.55469,12.10498,7.85742,13.83887
			C235.67285,390.01221,242.91016,386.67969,244.00391,380.64014z"/>
	</g>
	<g>
		<path fill="#9E005D" d="M589.26465,302.59766c15.10938-10.79102,30.21875-21.58203,45.32812-32.37354
			c-5.64258-3.23779-11.28516-6.47607-16.92773-9.71387c1.79004,18.48096,3.58008,36.9624,5.37012,55.44336
			c5.64258-3.23779,11.28516-6.47607,16.92773-9.71387c-16.89941-7.68994-33.79883-15.37988-50.69824-23.06982
			c-5.58105-2.54004-12.06055-1.65039-15.3916,4.03564c-2.85938,4.88086-1.54688,12.85205,4.03613,15.39209
			c16.89941,7.68994,33.79883,15.37988,50.69824,23.06982c6.91113,3.14502,17.83398-0.36133,16.92773-9.71387
			c-1.79004-18.48096-3.58008-36.9624-5.37012-55.44336c-0.7373-7.61182-9.30176-15.16113-16.92773-9.71387
			c-15.10938,10.79102-30.21875,21.58203-45.32812,32.37354c-4.97949,3.55615-7.34961,9.73633-4.03613,15.39209
			C576.75977,303.48926,584.26562,306.16895,589.26465,302.59766z"/>
	</g>
	<g>
		<path fill="#9E005D" d="M131.83594,533.86328c-5.29688-20.01758-10.59375-40.03467-15.89062-60.05176
			c-4.6123,4.61279-9.22559,9.22607-13.83789,13.83887c19.98242,5.42139,39.96484,10.84229,59.94727,16.26367
			c-1.65527-6.26758-3.31055-12.53516-4.96484-18.80322c-14.68555,14.59619-29.37109,29.19189-44.05762,43.7876
			c-10.30078,10.23828,5.6123,26.14551,15.91016,15.91016c14.68555-14.5957,29.37207-29.19141,44.05762-43.7876
			c5.99316-5.95654,3.19727-16.58887-4.96484-18.80322c-19.98242-5.42139-39.96484-10.84229-59.94727-16.26367
			c-8.33203-2.26074-16.03223,5.54883-13.83789,13.83887c5.2959,20.01709,10.59277,40.03418,15.88867,60.05078
			C113.84766,553.85938,135.55176,547.90625,131.83594,533.86328z"/>
	</g>
	<g>
		<path fill="#FFFFFF" d="M459.69141,425.42627c22.10547-0.54199,38.81445-18.28711,39.32031-40.16846
			c0.50586-21.87793-17.97363-39.64355-39.32031-40.16699c-22.10352-0.54199-38.83691,19.10303-39.32324,40.16699
			C419.86328,407.13965,438.3418,424.90332,459.69141,425.42627c14.51758,0.35596,14.4834-22.14502,0-22.5
			c-9.42383-0.23096-16.59668-7.86084-16.82324-17.66846c-0.22656-9.80811,7.73926-17.44434,16.82324-17.66699
			c9.41797-0.23096,16.60156,8.20801,16.82031,17.66699c0.22656,9.80762-7.74219,17.4458-16.82031,17.66846
			C445.20801,403.28125,445.17383,425.78223,459.69141,425.42627z"/>
	</g>
	<g>
		<path fill="#9E005D" d="M849.88672,611.56055c22.10645-0.54199,38.81055-18.28809,39.31641-40.16895
			c0.50488-21.87793-17.96875-39.64355-39.31641-40.16699c-22.10156-0.54199-38.83789,19.10449-39.32422,40.16699
			C810.05664,593.27246,828.53906,611.03711,849.88672,611.56055c14.51758,0.35547,14.4834-22.14453,0-22.5
			c-9.4209-0.23047-16.59766-7.8623-16.82422-17.66895s7.74316-17.44434,16.82422-17.66699
			c9.41895-0.23047,16.59766,8.20898,16.81641,17.66699c0.22656,9.80664-7.7373,17.44629-16.81641,17.66895
			C835.40332,589.41602,835.36914,611.91602,849.88672,611.56055z"/>
	</g>
	<g>
		<path fill="#FFFFFF" d="M273.82324,795.68555c22.10645-0.54199,38.81152-18.28906,39.31641-40.16992
			c0.50488-21.87793-17.96875-39.64355-39.31641-40.16699c-22.10254-0.54199-38.83691,19.10352-39.32324,40.16699
			C233.99414,777.39648,252.47461,795.16211,273.82324,795.68555c14.51855,0.35547,14.4834-22.14453,0-22.5
			c-9.42285-0.23047-16.59668-7.86328-16.82324-17.66992c-0.22656-9.80762,7.74023-17.44434,16.82324-17.66699
			c9.41992-0.23047,16.59766,8.20801,16.81641,17.66699c0.22656,9.80664-7.73633,17.44727-16.81641,17.66992
			C259.33984,773.54102,259.30469,796.04102,273.82324,795.68555z"/>
	</g>
	<g>
		<path fill="#FFFFFF" d="M849.67871,766.01855c22.10645-0.54199,38.81152-18.28809,39.31738-40.16895
			c0.50586-21.87793-17.96973-39.64355-39.31738-40.16699c-22.10254-0.54199-38.83594,19.10352-39.32227,40.16699
			C809.85156,747.73047,828.33008,765.49512,849.67871,766.01855c14.51855,0.35547,14.4834-22.14453,0-22.5
			c-9.42285-0.23145-16.5957-7.86328-16.82227-17.66895c-0.22656-9.80762,7.73926-17.44434,16.82227-17.66699
			c9.41992-0.23047,16.59863,8.20801,16.81738,17.66699c0.22656,9.80664-7.7373,17.44629-16.81738,17.66895
			C835.19531,743.87402,835.16016,766.375,849.67871,766.01855z"/>
	</g>
	<g>
		<path fill="#9E005D" d="M905.86719,454.64453c22.10742-0.54199,38.8125-18.29004,39.31738-40.17188
			c0.50488-21.87891-17.96973-39.64258-39.31738-40.16602c-22.10156-0.5415-38.83398,19.104-39.32031,40.16602
			C866.04102,436.35156,884.51855,454.12109,905.86719,454.64453c14.51758,0.35596,14.4834-22.14502,0-22.5
			c-9.41992-0.23096-16.59375-7.86621-16.82031-17.67188c-0.22656-9.80762,7.74023-17.44336,16.82031-17.66602
			c9.42188-0.23096,16.59863,8.20703,16.81738,17.66602c0.22656,9.80664-7.73535,17.44922-16.81738,17.67188
			C891.38379,432.49951,891.34961,455.00049,905.86719,454.64453z"/>
	</g>
	<g>
		<path fill="#9E005D" d="M302.03711,512.11133c22.10645-0.54199,38.81055-18.29199,39.31641-40.17236
			c0.50586-21.87695-17.9707-39.64014-39.31641-40.16357c-22.10156-0.54199-38.83789,19.10059-39.32422,40.16357
			C262.20703,493.81934,280.6875,511.58789,302.03711,512.11133c14.51758,0.35596,14.4834-22.14502,0-22.5
			c-9.42188-0.23096-16.59766-7.86621-16.82422-17.67236s7.74219-17.44092,16.82422-17.66357
			c9.41797-0.23096,16.59766,8.20605,16.81641,17.66357c0.22656,9.80664-7.73828,17.44971-16.81641,17.67236
			C287.55371,489.9668,287.51953,512.46729,302.03711,512.11133z"/>
	</g>
	<g>
		<path fill="#9E005D" d="M46.48926,799.41797c-1.51855,25.69336-3.03809,51.3877-4.55664,77.08105
			c-0.37793,6.38867,5.41602,10.90527,11.25,11.25c24.83887,1.46875,49.67773,2.93652,74.5166,4.40527
			c6.12695,0.3623,11.25-5.3916,11.25-11.25c0-6.40625-5.13086-10.88867-11.25-11.25
			c-24.83887-1.46875-49.67773-2.93652-74.5166-4.40527c3.75,3.75,7.5,7.5,11.25,11.25
			c1.51855-25.69336,3.03809-51.3877,4.55664-77.08105c0.3623-6.12793-5.3916-11.25-11.25-11.25
			C51.33301,788.16797,46.85156,793.29883,46.48926,799.41797L46.48926,799.41797z"/>
	</g>
	<g>
		<path fill="#9E005D" d="M141.63281,208.54639c-25.63477-2.32373-51.26953-4.64795-76.9043-6.97168
			c-6.50586-0.58984-10.7373,5.59082-11.25,11.25c-2.16797,23.92529-4.33594,47.8501-6.50391,71.77539
			c-0.55469,6.11719,5.53711,11.25,11.25,11.25c6.55078,0,10.69727-5.14502,11.25-11.25
			c2.16797-23.92529,4.33594-47.8501,6.50391-71.77539c-3.75,3.75-7.5,7.5-11.25,11.25
			c25.63477,2.32373,51.26953,4.64795,76.9043,6.97168c6.11719,0.55469,11.25-5.53711,11.25-11.25
			C152.88281,213.24512,147.73828,209.09961,141.63281,208.54639L141.63281,208.54639z"/>
	</g>
	<g>
		<path fill="#9E005D" d="M964.49414,228.37256c-4.11719-20.80322-8.23242-41.60693-12.34961-62.41016
			c-1.24902-6.31641-8.18457-8.99316-13.83789-7.85742c-21.87109,4.39307-43.74219,8.78613-65.61328,13.1792
			c-6.01562,1.20801-9.39648,8.24609-7.85742,13.83887c1.70996,6.21875,7.83203,9.06396,13.83789,7.85742
			c21.87109-4.39307,43.74219-8.78613,65.61328-13.1792c-4.6123-2.61914-9.22559-5.23828-13.83789-7.85742
			c4.11523,20.80322,8.23242,41.60693,12.34766,62.41016c1.19141,6.01904,8.25977,9.39209,13.83984,7.85742
			C962.86816,240.49707,965.68262,234.38232,964.49414,228.37256L964.49414,228.37256z"/>
	</g>
</g>
</svg>
