<svg version="1.1" id="Layer_1" xmlns="http://www.w3.org/2000/svg" xmlns:xlink="http://www.w3.org/1999/xlink" x="0px" y="0px"
	 width="256px" height="256px" viewBox="0 0 1024 1024" enable-background="new 0 0 1024 1024" xml:space="preserve">

	<style>
		#texture_health {
			mix-blend-mode: lighten;
		}
	</style>

<g>
	<g>
		<path fill="#1AC6D8" d="M172.274,171.556C0.48,161.401,59.771,373.16,53.82,500.476c-4.766,101.905-76.158,285.17,1,369.728
			c106.628,116.854,313.556-29.885,437.206-37.881c94.318-6.1,122.161-6.289,216.473,0c58.684,3.913,129.465,20.633,186.085-4.058
			c129.503-56.471,52.908-338.496,59.14-451.209c8.077-146.101-111.855-204.297-230.688-208.273
			c-111.243-3.722-154.01,22.903-263.456,39.652c-65.761,10.06-134.868,18.477-200.961,6.938
			c-21.833-3.811-87.919-36.346-81.468-38.633"/>
	</g>
	<g opacity="0.5" id="texture_health">
		<defs>
			<path id="SVGID_7_" opacity="0.5" d="M177.416,171.278C5.462,164.302,81.636,373.16,75.682,500.476
				c-4.768,101.905-76.157,285.17,0.999,369.728c106.63,116.854,313.554-29.885,437.207-37.881c94.317-6.1,122.159-6.289,216.47,0
				c58.684,3.913,129.465,20.633,186.088-4.058c129.5-56.471,52.908-338.496,59.141-451.209
				c8.077-146.101-111.854-204.297-230.691-208.273c-111.24-3.722-154.007,22.903-263.453,39.652
				c-65.764,10.06-134.871,18.477-200.962,6.938c-21.833-3.811-62.952-24.496-81.471-38.633
				C191.859,171.283,185,171.585,177.416,171.278z"/>
		</defs>
		<clipPath id="SVGID_4_">
			<use xlink:href="#SVGID_7_"  overflow="visible"/>
		</clipPath>
		<g id="DsD5mp_1_" clip-path="url(#SVGID_4_)">
			<image overflow="visible" width="826" height="662" id="DsD5mp_4_" xlink:href="/img/texture_paint.jpg"  transform="matrix(1.2783 0 0 1.2783 -23.2422 92.8877)"></image>
		</g>
	</g>
</g>
<g>
	<g>
		<path fill="#9E005D" d="M338.21,454.768l12.806-39.413l-21.971-7.137L316.24,447.63l-21.171-6.877l30.627-94.271l21.171,6.878
			l-11.593,35.684l21.97,7.138l11.593-35.685l21.171,6.878l-30.627,94.271L338.21,454.768z"/>
		<path fill="#9E005D" d="M391.969,468.876l17.018-97.648l47.169,8.22l-3.389,19.446l-26.067-4.542l-3.341,19.171l23.999,4.183
			l-3.173,18.206l-23.999-4.183l-3.653,20.964l27.723,4.831l-3.462,19.861L391.969,468.876z"/>
		<path fill="#9E005D" d="M529.178,469.073l-8.126-16.632l-21.658,5.146l0.227,18.51l-21.794,5.179l0.511-102.002l27.379-6.506
			l46.207,90.9L529.178,469.073z M496.808,397.044l-0.545,0.129l1.57,42.941l16.48-3.917L496.808,397.044z"/>
		<path fill="#9E005D" d="M582.569,447.583L532.396,362.1l19.56-11.481l39.686,67.614l22.819-13.395l10.488,17.87L582.569,447.583z"
			/>
		<path fill="#9E005D" d="M621.866,325.234l42.987,67.563l-18.545,11.8l-42.988-67.564l-15.354,9.77l-10.222-16.063L627,299.4
			l10.222,16.064L621.866,325.234z"/>
		<path fill="#9E005D" d="M732.096,370.946l-8.913-40.471l-22.559,4.968l8.911,40.47l-21.738,4.788L666.479,283.9l21.739-4.788
			l8.068,36.642l22.561-4.967l-8.069-36.644l21.739-4.786l21.316,96.801L732.096,370.946z"/>
	</g>
</g>

<g class="extras border">
	<g>
		<path fill="#9E005D" d="M696.232,194.967c-64.681,9.289-130.341,5.146-195.423,7.623c-62.931,2.395-125.116,15.239-188.183,14.989
			c-15.079-0.06-30.245-0.902-45.189-2.963c-15.444-2.13-30.408-5.888-45.453-9.871c-21.697-5.744-44.278-9.419-66.766-9.287
			c-34.756,0.205-68.936,11.433-93.61,36.578c-24.046,24.503-36.226,58.4-41.887,91.651c-7.175,42.134-4.53,84.208-0.142,126.451
			c11.597,111.634-22.601,224.848,3.109,335.595c4.539,19.557,10.873,39.501,22.74,55.942c9.355,12.96,21.429,23.57,35.547,31.095
			c29.596,15.771,64.753,17.996,97.604,15.827c74.052-4.891,144.998-30.418,215.584-51.351c13.302-3.945,26.666-7.771,40.224-10.747
			c2.665-0.585,5.342-1.119,8.026-1.606c1.143-0.208,2.288-0.395,3.436-0.574c0.586-0.091,1.173-0.176,1.76-0.261
			c1.997-0.289-3.09,0.393,0.005,0.002c5.346-0.673,10.724-1.076,16.104-1.346c26.728-1.339,53.623,0.757,80.228,3.18
			c67.191,6.118,133.988,16.054,201.366,20.194c33.14,2.037,66.467,2.761,99.601,0.236c29.398-2.241,59.191-6.865,86.774-17.638
			c25.412-9.924,47.868-24.869,64.413-46.783c17.338-22.965,24.256-52.104,25.207-80.432
			c2.022-60.213-22.586-117.209-29.375-176.368c-3.474-30.263-3.191-60.987-5.777-91.353c-2.613-30.689-6.951-61.363-15.164-91.091
			c-13.439-48.651-38.215-95.891-78.814-127.106c-33.575-25.816-75.685-36.549-117.627-35.135
			C747.946,181.315,721.515,186.833,696.232,194.967c-13.754,4.425-7.87,26.153,5.982,21.696
			c41.104-13.225,84.68-19.068,125.732-8.117c9.916,2.646,18.029,5.745,26.316,9.8c9.035,4.42,17.568,9.821,25.584,15.887
			c15.561,11.776,30.033,29.25,40.772,46.714c30.473,49.553,39.863,108.522,44.046,165.597c2.254,30.771,2.188,61.778,6.562,92.353
			c4.348,30.377,12.612,60.035,19.111,89.982c5.648,26.022,9.865,52.484,8.145,79.189c-0.117,1.833-0.279,3.663-0.455,5.491
			c-0.082,0.854-0.745,6.246-0.336,3.229c-0.502,3.698-1.168,7.372-1.947,11.021c-1.406,6.584-3.351,13.049-5.774,19.328
			c-0.279,0.724-0.573,1.441-0.866,2.159c1.184-2.895,0.168-0.418-0.078,0.139c-0.612,1.392-1.268,2.764-1.936,4.129
			c-1.422,2.905-3,5.731-4.675,8.498c-1.518,2.509-3.163,4.938-4.881,7.313c-0.427,0.589-0.864,1.17-1.303,1.75
			c1.912-2.532,0.368-0.488-0.028,0.01c-1.054,1.318-2.151,2.603-3.266,3.87c-3.98,4.531-8.38,8.684-13.031,12.518
			c-0.562,0.463-1.132,0.916-1.702,1.368c-2.022,1.606,2.026-1.536-0.038,0.023c-1.17,0.885-2.364,1.738-3.565,2.581
			c-2.631,1.848-5.346,3.573-8.103,5.226c-5.453,3.268-11.147,6.121-16.959,8.69c-0.541,0.239-3.044,1.3-0.186,0.098
			c-0.725,0.305-1.453,0.601-2.182,0.896c-1.47,0.596-2.951,1.163-4.435,1.721c-3.272,1.231-6.586,2.354-9.917,3.414
			c-13.593,4.328-27.607,7.264-41.698,9.41c-1.778,0.271-3.56,0.521-5.342,0.766c2.918-0.399-2.474,0.298-3.322,0.4
			c-3.975,0.476-7.958,0.878-11.944,1.239c-7.884,0.715-15.787,1.196-23.696,1.533c-16.545,0.704-33.117,0.646-49.667,0.166
			c-68.43-1.987-136.345-11.521-204.336-18.78c-52.143-5.567-105.479-11.631-156.93,1.52c-31.782,8.123-62.939,18.649-94.378,27.976
			c-36.507,10.83-73.422,20.784-111.078,26.727c-2.207,0.348-4.418,0.674-6.63,0.99c-0.145,0.021-3.773,0.516-1.408,0.201
			c-1.095,0.146-2.191,0.283-3.287,0.42c-4.691,0.588-9.394,1.076-14.104,1.491c-8.75,0.771-17.531,1.179-26.314,1.188
			c-8.322,0.01-16.645-0.434-24.915-1.367c-0.96-0.108-1.918-0.232-2.876-0.355c2.781,0.358-0.396-0.078-0.803-0.14
			c-1.872-0.283-3.736-0.613-5.598-0.96c-3.944-0.736-7.852-1.659-11.723-2.717c-3.477-0.95-6.904-2.076-10.287-3.32
			c-0.784-0.289-5.637-2.292-3.059-1.182c-1.877-0.809-3.721-1.692-5.547-2.606c-3.102-1.553-6.102-3.301-9.022-5.169
			c-1.454-0.931-2.868-1.92-4.269-2.929c-0.38-0.274-2.697-2.059-0.475-0.325c-0.908-0.709-1.794-1.447-2.675-2.19
			c-2.665-2.248-5.163-4.688-7.546-7.231c-1.211-1.291-2.363-2.636-3.494-3.996c-0.27-0.323-2.12-2.69-0.464-0.532
			c-0.735-0.958-1.438-1.941-2.134-2.928c-2.151-3.041-4.074-6.239-5.861-9.505c-0.928-1.695-1.783-3.428-2.615-5.171
			c-0.425-0.891-0.826-1.791-1.227-2.692c-0.516-1.192-0.528-1.218-0.037-0.077c-0.255-0.626-0.505-1.254-0.749-1.884
			c-19.581-49.819-19.157-106.276-16.847-158.886c2.488-56.649,9.263-113.212,7.578-169.988
			c-0.719-24.239-4.438-48.197-5.806-72.389c-1.153-20.43-1.019-40.96,0.923-61.337c0.219-2.292,0.474-4.581,0.742-6.867
			c0.134-1.131,0.279-2.26,0.426-3.389c-0.297,2.291,0.204-1.374,0.22-1.479c0.688-4.734,1.524-9.445,2.469-14.134
			c1.728-8.58,3.973-17.054,6.732-25.359c1.262-3.798,2.677-7.543,4.193-11.247c-0.969,2.365,0.282-0.634,0.407-0.919
			c0.39-0.891,0.796-1.774,1.202-2.657c0.938-2.037,1.938-4.044,2.967-6.036c1.727-3.347,3.617-6.607,5.613-9.8
			c0.981-1.569,2.013-3.106,3.062-4.631c0.52-0.757,1.057-1.501,1.595-2.247c0.284-0.394,2.691-3.534,0.995-1.363
			c4.623-5.917,9.887-11.316,15.618-16.162c0.685-0.579,1.385-1.141,2.085-1.702c2.357-1.891-1.85,1.382,0.575-0.428
			c1.445-1.079,2.933-2.101,4.433-3.102c3.29-2.197,6.732-4.159,10.25-5.967c1.653-0.85,3.339-1.634,5.033-2.396
			c2.862-1.287-2.145,0.86,0.776-0.334c0.879-0.36,1.767-0.697,2.654-1.034c3.946-1.497,7.991-2.722,12.073-3.786
			c3.947-1.029,7.955-1.815,11.98-2.469c0.246-0.04,3.682-0.526,1.184-0.196c1.062-0.14,2.127-0.257,3.191-0.374
			c2.543-0.279,5.094-0.465,7.647-0.618c21.517-1.285,40.935,1.563,61.53,6.426c14.463,3.415,28.615,7.639,43.283,10.208
			c15.728,2.754,31.667,4.308,47.615,4.95c62.796,2.525,124.845-10.576,187.342-14.068c65.476-3.66,131.24,0.712,196.529-6.638
			c6.223-0.7,12.431-1.54,18.629-2.43c6.08-0.873,9.326-8.497,7.857-13.839C708.294,196.361,702.298,194.096,696.232,194.967z"/>
	</g>
</g>
<g class="extras">
	<g>
		<path fill="#FFFFFF" d="M852.736,512.077c-5.981-22.602-11.963-45.203-17.945-67.805c-4.612,4.613-9.226,9.226-13.838,13.839
			c22.562,6.122,45.127,12.243,67.689,18.364c-1.654-6.268-3.309-12.536-4.964-18.803c-16.581,16.48-33.163,32.96-49.745,49.44
			c-10.301,10.238,5.611,26.146,15.91,15.91c16.582-16.48,33.163-32.96,49.745-49.44c5.993-5.957,3.197-16.589-4.964-18.803
			c-22.564-6.122-45.127-12.243-67.691-18.364c-8.332-2.26-16.032,5.548-13.838,13.839c5.981,22.602,11.963,45.203,17.945,67.805
			C834.75,532.072,856.453,526.12,852.736,512.077z"/>
	</g>
	<g>
		<path fill="#FFFFFF" d="M583.158,769.406c3.741-20.651,7.482-41.304,11.223-61.955c-6.268,1.654-12.535,3.309-18.803,4.964
			c16.016,13.566,32.031,27.132,48.047,40.698c1.654-6.268,3.31-12.535,4.965-18.803c-19.757,7.086-39.514,14.172-59.27,21.258
			c-5.768,2.067-9.578,7.587-7.857,13.838c1.533,5.574,8.062,9.93,13.838,7.857c19.757-7.086,39.514-14.172,59.27-21.258
			c7.271-2.607,11.938-12.896,4.965-18.803c-16.016-13.566-32.031-27.132-48.047-40.698c-5.836-4.943-17.166-4.074-18.803,4.964
			c-3.741,20.652-7.482,41.305-11.223,61.957c-1.093,6.028,1.555,12.104,7.857,13.838
			C574.826,778.779,582.064,775.446,583.158,769.406z"/>
	</g>
	<g>
		<path fill="#9E005D" d="M841.104,302.603c-4.699-17.759-9.399-35.518-14.1-53.276c-4.612,4.613-9.226,9.226-13.838,13.839
			c17.729,4.81,35.458,9.621,53.188,14.431c-1.655-6.268-3.311-12.536-4.965-18.803c-13.029,12.949-26.059,25.897-39.088,38.846
			c-10.302,10.238,5.611,26.145,15.91,15.91c13.029-12.949,26.059-25.897,39.088-38.846c5.993-5.957,3.197-16.589-4.965-18.803
			c-17.729-4.81-35.458-9.621-53.188-14.431c-8.332-2.261-16.032,5.549-13.838,13.839c4.699,17.759,9.399,35.518,14.1,53.276
			C823.117,322.599,844.82,316.646,841.104,302.603z"/>
	</g>
	<g>
		<path fill="#9E005D" d="M233.182,624.938c-5.24-19.805-10.48-39.609-15.721-59.414c-4.612,4.613-9.226,9.227-13.838,13.84
			c19.77,5.363,39.539,10.727,59.309,16.09c-1.654-6.268-3.309-12.535-4.964-18.803c-14.529,14.44-29.06,28.882-43.589,43.322
			c-10.301,10.238,5.611,26.146,15.91,15.91c14.529-14.44,29.059-28.882,43.589-43.322c5.993-5.957,3.197-16.589-4.964-18.803
			c-19.771-5.364-39.54-10.728-59.311-16.092c-8.332-2.26-16.032,5.549-13.838,13.84c5.24,19.804,10.48,39.608,15.721,59.412
			C215.194,644.934,236.898,638.98,233.182,624.938z"/>
	</g>
	<g>
		<path fill="#FFFFFF" d="M438.437,620.805c21.937-0.538,38.52-18.146,39.021-39.861c0.501-21.712-17.838-39.34-39.021-39.859
			c-21.935-0.538-38.542,18.956-39.024,39.859C398.91,602.658,417.25,620.285,438.437,620.805c14.519,0.355,14.483-22.146,0-22.5
			c-9.251-0.227-16.302-7.716-16.524-17.361c-0.223-9.646,7.607-17.141,16.524-17.359c9.245-0.227,16.307,8.056,16.521,17.359
			c0.223,9.646-7.61,17.143-16.521,17.361C423.953,598.66,423.918,621.16,438.437,620.805z"/>
	</g>
	<g>
		<path fill="#9E005D" d="M813.483,726.96c21.938-0.538,38.517-18.146,39.019-39.861c0.502-21.711-17.835-39.34-39.019-39.859
			c-21.933-0.538-38.542,18.957-39.025,39.859C773.956,708.812,792.299,726.44,813.483,726.96c14.519,0.355,14.483-22.145,0-22.5
			c-9.248-0.227-16.303-7.717-16.525-17.361c-0.223-9.646,7.611-17.141,16.525-17.359c9.246-0.227,16.304,8.057,16.519,17.359
			c0.223,9.646-7.607,17.143-16.519,17.361C799,704.815,798.965,727.316,813.483,726.96z"/>
	</g>
	<g>
		<path fill="#FFFFFF" d="M118.683,784.659c21.938-0.538,38.517-18.147,39.019-39.862c0.502-21.712-17.834-39.34-39.019-39.859
			c-21.934-0.538-38.542,18.956-39.024,39.859C79.156,766.511,97.497,784.14,118.683,784.659c14.519,0.355,14.483-22.145,0-22.5
			c-9.249-0.227-16.302-7.718-16.524-17.362c-0.223-9.646,7.609-17.141,16.524-17.359c9.247-0.227,16.304,8.056,16.519,17.359
			c0.223,9.646-7.605,17.144-16.519,17.362C104.199,762.515,104.164,785.016,118.683,784.659z"/>
	</g>
	<g>
		<path fill="#9E005D" d="M685.869,575.712c21.938-0.538,38.518-18.149,39.019-39.864c0.501-21.712-17.834-39.339-39.019-39.858
			c-21.934-0.538-38.54,18.956-39.022,39.858C646.346,557.561,664.684,575.192,685.869,575.712c14.518,0.356,14.483-22.145,0-22.5
			c-9.248-0.227-16.3-7.721-16.522-17.364c-0.223-9.646,7.608-17.14,16.522-17.358c9.248-0.227,16.304,8.055,16.519,17.358
			c0.223,9.645-7.604,17.146-16.519,17.364C671.386,553.567,671.352,576.068,685.869,575.712z"/>
	</g>
	<g>
		<path fill="#9E005D" d="M355.458,786.196c21.938-0.538,38.517-18.151,39.019-39.865c0.502-21.711-17.836-39.337-39.019-39.856
			c-21.932-0.537-38.542,18.954-39.025,39.856C315.931,768.045,334.272,785.677,355.458,786.196c14.519,0.356,14.483-22.145,0-22.5
			c-9.248-0.227-16.303-7.721-16.525-17.365s7.612-17.138,16.525-17.356c9.246-0.227,16.304,8.055,16.519,17.356
			c0.223,9.646-7.606,17.146-16.519,17.365C340.975,764.052,340.939,786.553,355.458,786.196z"/>
	</g>
	<polyline fill="none" points="294.603,287.605 221.62,286.787 220.937,348 150.305,347.207 149.566,413.127 78.94,412.329
		78.17,480.607 	"/>
	<g>
		<path fill="#9E005D" d="M334.092,271.506c-26.312-0.295-52.625-0.59-78.938-0.886c-6.185-0.069-11.182,5.171-11.25,11.25
			c-0.247,22.069-0.493,44.139-0.74,66.208c3.75-3.75,7.5-7.5,11.25-11.25c-25.465-0.286-50.929-0.572-76.394-0.857
			c-6.185-0.069-11.182,5.171-11.25,11.25c-0.267,23.766-0.532,47.532-0.799,71.298c3.75-3.75,7.5-7.5,11.25-11.25
			c-25.463-0.288-50.927-0.575-76.39-0.862c-6.186-0.07-11.182,5.171-11.25,11.25c-0.278,24.616-0.556,49.232-0.834,73.849
			c-0.164,14.516,22.336,14.5,22.5,0c0.278-24.616,0.556-49.232,0.834-73.849c-3.75,3.75-7.5,7.5-11.25,11.25
			c25.463,0.288,50.927,0.575,76.39,0.862c6.185,0.07,11.182-5.171,11.25-11.25c0.267-23.766,0.532-47.532,0.799-71.298
			c-3.75,3.75-7.5,7.5-11.25,11.25c25.465,0.286,50.929,0.572,76.394,0.857c6.185,0.069,11.182-5.171,11.25-11.25
			c0.247-22.069,0.493-44.139,0.74-66.208c-3.75,3.75-7.5,7.5-11.25,11.25c26.312,0.295,52.625,0.59,78.938,0.886
			C348.607,294.169,348.592,271.668,334.092,271.506L334.092,271.506z"/>
	</g>
</g>
</svg>
