<svg version="1.1" id="Layer_1" xmlns="http://www.w3.org/2000/svg" xmlns:xlink="http://www.w3.org/1999/xlink" x="0px" y="0px"
	 width="256px" height="256px" viewBox="0 0 1024 1024" enable-background="new 0 0 1024 1024" xml:space="preserve">

	<style>
		#texture_beer {
			mix-blend-mode: multiply;
		}
	</style>

	<g>
		<path fill="#FEE922" d="M116.545,964.189c61.41,16.26,130.502,44.719,195.75,24.391c49.9-16.262,80.605-60.98,142.02-48.787
				c57.576,8.133,103.633,52.854,165.049,56.916c61.41,4.066,107.473-28.457,161.209-40.654
				c46.057-8.129,88.277,8.135,122.822-28.455c30.707-36.59,34.547-113.834,34.547-154.488
				c0-117.893-80.605-182.943-126.666-280.512c-23.029-56.914-38.383-105.701-42.221-170.748
				c-3.84-40.654,3.838-89.438-26.869-121.963C630.875,81.994,542.598,260.871,469.668,313.723
				c-46.061,28.457-95.959,24.391-142.016,48.783c-53.736,28.459-92.123,81.309-115.152,138.223
				c-38.383,93.508-38.383,199.205-80.604,292.711c-23.029,52.852-53.736,109.768-30.707,166.684"/>
	</g>

	<g>
		<g>
			<defs>
				<path id="SVGID_6_" d="M89.545,964.189c61.41,16.26,130.502,44.719,195.75,24.391
					c49.9-16.262,80.605-60.98,142.02-48.787c57.576,8.133,103.633,52.854,165.049,56.916
					c61.41,4.066,107.473-28.457,161.209-40.654c46.057-8.129,88.277,8.135,122.822-28.455
					c30.707-36.59,34.547-113.834,34.547-154.488c0-117.893-80.605-182.943-126.666-280.512
					c-23.029-56.914-38.383-105.701-42.221-170.748c-3.84-40.654,3.838-89.438-26.869-121.963
					C603.875,81.994,515.598,260.871,442.668,313.723c-46.061,28.457-95.959,24.391-142.016,48.783
					c-53.736,28.459-92.123,81.309-115.152,138.223c-38.383,93.508-38.383,199.205-80.604,292.711
					C81.867,846.291,51.16,903.207,74.189,960.123"/>
			</defs>
			<clipPath id="BEER_CLIP_PATH">
				<use xlink:href="#SVGID_6_" overflow="visible"/>
			</clipPath>
			<g id="texture_beer" clip-path="url(#BEER_CLIP_PATH)">
				<image overflow="visible" width="826" height="662" xlink:href="/img/texture_paint.jpg"  transform="matrix(1.2638 0 0 1.2638 -28.8047 160.4419)"></image>
			</g>
		</g>
	</g>

	<g class="text">
		<g>
			<path fill="#223BB9" d="M353.46484,716.03906l41.23828-33.02051c17.14355-13.72754,30.76855-11.35156,38.16504-2.11328
				c6.25391,7.80957,5.15234,16.19434,1.05762,22.59863c8.34473-3.24316,18.59668-3.32422,25.38281,5.15234
				c9.30469,11.61914,7.29199,26.67285-11.46973,41.69629l-40.7627,32.63965L353.46484,716.03906z M409.95996,713.00293
				c6-4.80371,5.6748-8.91992,3.08203-12.1582c-3.20312-3.99902-7.68164-3.54004-12.53809,0.34961l-14.76172,11.81934
				l9.45605,11.80957L409.95996,713.00293z M417.16113,752.25195l15.04688-12.04883
				c5.81152-4.65137,7.46582-9.41602,3.50098-14.36914c-3.28027-4.09473-8.00488-4.53027-14.00488,0.27344l-15.52441,12.43066
				L417.16113,752.25195z"/>
			<path fill="#223BB9" d="M509.33789,622.75781l-27.69922,36.56445l11.47461,8.69238l30.94043-40.84277l13.83887,14.46289
				l-45.60059,60.19434l-68.3623-51.78809l45.74609-60.38965l15.75488,11.93457l-29.17285,38.50879l9.53027,7.21973
				L493.48633,610.75L509.33789,622.75781z"/>
			<path fill="#223BB9" d="M583.80469,558.27734l-35.62695,28.8916l9.06738,11.18066l39.7959-32.27246l9.98535,17.34766
				l-58.65234,47.56445l-54.01953-66.6123l58.84277-47.71777l12.44727,15.35059l-37.52246,30.42773l7.53027,9.28613
				l35.62793-28.8916L583.80469,558.27734z"/>
			<path fill="#223BB9" d="M633.08398,536.66797l10.75391,29.71289l-25.81348,9.34082l-29.18555-80.64844l48.87109-17.68604
				c19.96094-7.22461,34.04395-1.29297,38.90137,12.12988c3.73633,10.32471-0.10059,18.71973-7.02051,24.33838
				c5.02344,0.25781,13.89258,1.45898,18.83203,15.11035l1.57812,4.36035c1.66016,4.58789,3.81934,10.55469,6.37891,14.03906
				l-26.15723,9.46582c-2.50684-2.98438-4.63672-7.79297-7.66699-16.16797l-0.9541-2.6377
				c-2.74023-7.57227-6.14648-9.45312-16.35742-5.75781L633.08398,536.66797z M627.02246,519.91895l16.06152-5.8125
				c7.1123-2.57422,10.17285-6.66602,8.09668-12.40234c-1.95117-5.3916-6.74316-7.16016-14.2002-4.46191l-16.06055,5.81299
				L627.02246,519.91895z"/>
		</g>
	</g>

	<g class="extras border">
		<g>
			<path fill="#223BB9" d="M970.117,928.717c-0.011-59.377-1.146-118.84-7.409-177.931c-3.197-30.163-7.731-60.218-14.227-89.854
				c-5.961-27.196-12.735-55.688-25.374-80.655c-19.9-39.313-58.086-59.961-93.927-82.336
				c-18.085-11.291-32.622-21.851-46.636-38.385c-5.87-6.925-9.633-14.04-11.736-23.135c-0.244-1.056-0.429-2.125-0.613-3.192
				c-0.61-3.52,0.246,2.505-0.109-1.034c-0.213-2.128-0.262-4.271-0.262-6.408c0-2.146,0.15-4.29,0.342-6.426
				c0.034-0.375,0.507-3.927,0.097-1.063c0.206-1.441,0.475-2.872,0.749-4.301c3.864-20.115,12.65-37.036,19.785-54.463
				c7.521-18.375,13.88-37.896,12.881-58.012c-1.06-21.302-10.915-42.389-26.203-57.209c-13.775-13.354-31.975-20.743-50.194-25.75
				c-17.435-4.792-35.378-7.532-52.638-12.995c-2.004-0.634-3.988-1.328-5.963-2.048c-0.979-0.357-1.949-0.738-2.919-1.119
				c-3.22-1.266,2.241,1-0.916-0.378c-4.066-1.774-7.981-3.874-11.735-6.235c-0.862-0.542-1.702-1.119-2.541-1.695
				c-0.31-0.212-3.029-2.245-0.819-0.53c-1.626-1.261-3.163-2.63-4.665-4.034c-1.53-1.431-2.954-2.97-4.337-4.542
				c-0.189-0.215-2.396-2.955-0.796-0.873c-0.893-1.161-1.716-2.374-2.528-3.591c-13.197-19.763-8.295-38.834-1.686-60.662
				c7.144-23.594,13.582-47.833,2.502-71.347c-7.695-16.33-24.762-25.866-41.108-31.465c-18.447-6.319-38.6-8.045-57.966-8.802
				c-18.127-0.708-36.268-0.011-54.381,0.719c-16.88,0.68-33.771,0.747-50.614,2.193c-40.132,3.446-87.932,13.749-108.945,52.234
				c-10.538,19.3-10.521,40.99-4.521,61.69c5.038,17.38,14.121,33.371,18.484,50.959c0.456,1.84,0.806,3.703,1.104,5.573
				c-0.535-3.366,0.086,2.133,0.111,3.097c0.025,0.991-0.482,6.492,0.027,2.896c-0.286,2.022-0.844,3.993-1.516,5.917
				c-0.997,2.854,1.145-2.378-0.201,0.38c-0.404,0.83-0.883,1.623-1.358,2.413c-0.494,0.821-1.059,1.597-1.62,2.371
				c1.691-2.331-0.399,0.314-0.69,0.635c-3.896,4.295-5.653,5.247-10.876,8.294c-2.207,1.288-4.498,2.456-6.77,3.627
				c-0.984,0.508-1.987,0.979-2.99,1.45c-0.25,0.118-3.594,1.544-1.12,0.521c-4.314,1.785-8.782,3.184-13.29,4.386
				c-4.1,1.094-8.268,1.927-12.446,2.653c-2.074,0.36-4.157,0.667-6.242,0.96c2.97-0.418-0.505,0.054-0.927,0.106
				c-1.381,0.171-2.764,0.326-4.146,0.479c-17.095,1.895-34.622,2.476-51.223,7.337c-17.934,5.252-32.667,16.369-42.327,32.397
				c-12.811,21.254-17.222,48.022-12.9,72.263c4.225,23.703,17.883,44.841,30.136,65.092c6.145,10.157,12.137,20.417,17,31.261
				c1.485,3.312,3.41,8.834,4.564,13.387c0.295,1.166,0.531,2.345,0.765,3.524c0.048,0.241,0.606,4.062,0.269,1.362
				c0.321,2.572,0.41,5.167,0.396,7.756c-0.007,1.074-0.073,2.147-0.14,3.219c-0.026,0.421-0.435,3.935-0.025,0.97
				c-0.284,2.06-0.738,4.093-1.245,6.108c-0.503,1.999-1.164,3.956-1.87,5.891c-0.135,0.371-1.485,3.509-0.344,0.912
				c-0.556,1.265-1.18,2.499-1.811,3.728c-1.928,3.756-4.256,7.299-6.732,10.712c-2.088,2.878,1.494-1.839-0.729,0.969
				c-0.678,0.856-1.382,1.692-2.084,2.528c-1.665,1.981-3.419,3.887-5.196,5.768c-13.339,14.105-29.184,25.633-44.284,37.734
				c-16.66,13.352-31.175,27.587-42.886,45.605C85.871,626.013,81.5,682.598,82.273,735.621c0.275,18.809,0.79,37.604,1.059,56.414
				c0.25,17.484,1.054,34.968,2.872,52.363c3.743,35.813,10.832,75.734,35.688,103.465c5.371,5.991,12.021,11.155,19.166,14.85
				c9.272,4.794,18.705,6.272,28.898,7.856c31.852,4.948,63.482,11.209,95.147,17.207c32.03,6.067,64.119,11.758,96.463,15.897
				c31.99,4.096,63.803,5.245,96.009,5.639c61.427,0.752,122.69,6.506,184.127,6.725c28.725,0.103,57.36-1.442,85.813-5.459
				c5.301-0.748,10.566-1.705,15.856-2.521c0.896-0.139,6.548-0.912,3.325-0.488c2.31-0.304,4.624-0.577,6.938-0.842
				c9.115-1.045,18.258-1.849,27.396-2.66c34.778-3.087,69.889-6.021,103.807-14.725c32.146-8.248,63.935-22.801,83.62-50.559
				c3.839-5.413,0.977-13.498-4.358-16.624c-6.094-3.569-12.801-1.032-16.624,4.358c-0.625,0.882-1.26,1.752-1.908,2.615
				c1.583-2.107-0.62,0.682-0.801,0.897c-1.384,1.651-2.864,3.221-4.37,4.76c-1.515,1.548-3.113,3.011-4.735,4.444
				c-0.816,0.722-1.657,1.415-2.498,2.107c-1.095,0.869-1.136,0.913-0.121,0.133c-0.584,0.445-1.173,0.883-1.766,1.315
				c-7.636,5.624-16.083,10.091-24.751,13.892c2.222-0.974-1.358,0.556-1.46,0.597c-1.104,0.447-2.219,0.873-3.332,1.299
				c-2.253,0.861-4.529,1.658-6.812,2.436c-5.051,1.721-10.181,3.208-15.336,4.582c-10.213,2.72-20.595,4.786-31.014,6.542
				c-11.266,1.898-18.387,2.771-29.729,4.027c-10.234,1.134-20.491,2.064-30.747,2.977c-18.277,1.626-36.627,3.041-54.743,6.054
				c-56.146,9.338-113.336,6.809-169.931,3.996c-31.375-1.559-62.744-3.276-94.153-3.975c-32.245-0.717-64.153-0.884-96.263-4.469
				c-63.551-7.095-125.915-22.108-188.966-32.395c-6.642-1.084-13.352-1.891-19.962-3.149c-1.815-0.346-3.602-0.827-5.372-1.354
				c-0.867-0.259-1.72-0.562-2.572-0.864c-3.261-1.158,0.657,0.372-1.22-0.48c-3.209-1.459-6.223-3.319-9.08-5.375
				c-2.451-1.764,2.022,1.646-0.321-0.27c-0.687-0.561-1.347-1.152-2.008-1.742c-1.559-1.395-3.015-2.899-4.431-4.438
				c-0.599-0.65-4.063-4.902-2.187-2.464c-1.141-1.482-2.202-3.024-3.239-4.579c-2.33-3.494-4.357-7.185-6.23-10.939
				c-0.896-1.798-1.723-3.628-2.529-5.467c1.161,2.647-0.197-0.498-0.348-0.871c-0.387-0.959-0.753-1.927-1.12-2.894
				c-1.628-4.294-3.022-8.675-4.303-13.084c-2.567-8.841-4.463-17.87-6.019-26.939c-0.381-2.217-0.725-4.438-1.059-6.663
				c-0.167-1.113-0.322-2.228-0.479-3.343c0.386,2.756-0.118-0.94-0.155-1.233c-0.613-4.811-1.114-9.636-1.557-14.466
				c-1.56-17.017-2.12-34.114-2.284-51.196c-0.438-45.926-4.222-92.629,5.934-137.544c5.593-24.738,15.687-48.567,31.653-68.464
				c11.667-14.539,26.958-25.874,41.483-37.359c29.334-23.197,63.954-52.075,60.303-93.62c-2.102-23.918-15.36-45.31-27.523-65.386
				c-11.643-19.216-24.449-39.646-26.762-60.497c-1.358-12.251,0.64-22.836,4.276-34.534c1.74-5.598,2.562-7.535,5.065-12.35
				c1.035-1.991,2.204-3.909,3.424-5.791c0.58-0.895,1.204-1.76,1.828-2.624c-1.596,2.209,0.983-1.155,1.311-1.534
				c1.282-1.484,2.679-2.865,4.11-4.204c0.696-0.65,1.426-1.264,2.155-1.876c2.436-2.045-2.035,1.471,0.514-0.383
				c3.224-2.344,6.754-4.241,10.384-5.872c-2.913,1.309,2.233-0.796,3.101-1.094c1.761-0.604,3.552-1.114,5.348-1.6
				c3.99-1.079,8.062-1.845,12.141-2.502c0.964-0.156,1.93-0.294,2.896-0.433c-3.154,0.455,0.16-0.018,0.677-0.082
				c1.98-0.249,3.966-0.464,5.95-0.674c4.392-0.466,8.79-0.859,13.187-1.282c9.406-0.905,18.818-1.978,28.111-3.712
				c19.405-3.62,40.18-11.74,54.368-25.858c30.163-30.012-0.194-70.708-8.562-103.003c-0.564-2.18-1.025-4.385-1.439-6.598
				c-0.057-0.3-0.612-3.976-0.246-1.206c-0.146-1.112-0.245-2.229-0.342-3.345c-0.194-2.239-0.228-4.487-0.197-6.732
				c0.015-1.13,0.092-2.259,0.169-3.386c0.06-0.756,0.133-1.511,0.221-2.264c-0.185,1.34-0.161,1.281,0.067-0.176
				c0.389-2.318,0.992-4.593,1.665-6.843c0.346-1.158,0.765-2.292,1.183-3.426c1.342-3.651-0.96,1.998,0.623-1.493
				c0.961-2.115,2.093-4.147,3.279-6.143c0.583-0.98,1.22-1.929,1.855-2.875c0.427-0.623,0.864-1.238,1.312-1.846
				c-0.763,0.961-0.702,0.892,0.181-0.206c6.583-8.138,11.487-11.525,20.334-16.399c8.31-4.579,15.57-7.05,25.956-9.803
				c19.75-5.233,36.497-6.508,57.498-7.344c15.896-0.633,31.815-1.088,47.717-1.583c19.162-0.596,38.4-0.592,57.484,1.438
				c1.153,0.123,2.306,0.262,3.457,0.401c3.788,0.459-2.422-0.356,1.334,0.18c2.248,0.321,4.486,0.699,6.721,1.101
				c4.676,0.839,9.307,1.916,13.878,3.203c2.021,0.568,4.019,1.216,6.004,1.896c0.97,0.332,1.929,0.694,2.888,1.056
				c0.402,0.151,3.526,1.463,0.82,0.3c3.822,1.644,7.483,3.642,10.95,5.94c0.767,0.508,1.508,1.053,2.248,1.599
				c-2.479-1.826-0.066,0.01,0.359,0.373c1.354,1.154,2.608,2.419,3.818,3.721c0.6,0.645,1.158,1.326,1.716,2.007
				c-1.999-2.44-0.169-0.129,0.174,0.373c1.165,1.706,2.133,3.536,3.012,5.401c-1.498-3.18,0.184,0.623,0.299,0.942
				c0.477,1.328,0.839,2.692,1.199,4.054c0.354,1.337,0.597,2.701,0.839,4.061c-0.35-1.964,0.186,2.385,0.172,2.194
				c0.439,5.996-0.205,11.051-1.122,15.845c-4.545,23.767-16.285,46.186-14.186,70.979c1.927,22.742,15.145,42.438,33.466,55.414
				c14.817,10.494,33.193,15.414,50.644,19.454c8.869,2.054,17.787,3.894,26.623,6.095c4.195,1.045,8.361,2.203,12.492,3.483
				c2.04,0.632,4.062,1.323,6.074,2.038c1,0.355,1.992,0.734,2.983,1.113c0.657,0.254,1.312,0.515,1.966,0.781
				c-1.278-0.551-1.275-0.549,0.009,0.008c3.842,1.669,7.554,3.62,11.139,5.783c1.791,1.08,3.518,2.263,5.216,3.481
				c2.822,2.024-1.844-1.52,0.868,0.669c1.1,0.888,2.152,1.833,3.196,2.784c1.594,1.453,3.084,3.014,4.533,4.608
				c0.74,0.813,1.441,1.662,2.142,2.51c2.321,2.812-1.351-1.883,0.817,1.115c3.062,4.236,5.425,8.852,7.674,13.552
				c0.942,1.969,2.87,7.864,3.774,11.973c0.249,1.131,0.438,2.274,0.629,3.416c-0.442-2.658,0.1,1.039,0.127,1.315
				c0.259,2.634,0.305,5.285,0.274,7.929c-0.025,2.262-0.199,4.52-0.413,6.77c-0.027,0.286-0.537,3.988-0.14,1.271
				c-0.165,1.127-0.369,2.248-0.572,3.369c-0.893,4.919-2.207,9.756-3.675,14.532c-2.899,9.433-6.7,18.572-10.525,27.658
				c0.924-2.194-0.599,1.414-0.631,1.489c-0.719,1.698-1.436,3.396-2.151,5.095c-0.922,2.185-1.839,4.372-2.745,6.563
				c-1.937,4.679-3.788,9.391-5.502,14.155c-6.672,18.549-10.207,38.621-4.952,57.986c5.776,21.283,22.428,38.414,39.092,51.959
				c16.344,13.284,34.503,23.827,52.422,34.783c8.546,5.225,16.98,10.635,25.047,16.579c0.023,0.018,3.161,2.396,1.363,1.004
				c0.95,0.735,1.887,1.489,2.822,2.243c1.876,1.512,3.705,3.081,5.515,4.673c3.97,3.491,7.712,7.231,11.268,11.141
				c6.711,7.381,12.015,15.39,17.042,25.322c5.523,10.911,9.151,23.715,12.768,36.099c8.284,28.375,14.143,57.427,18.545,86.642
				c10.563,70.109,11.743,141.433,11.756,212.203C945.819,944.387,970.119,944.387,970.117,928.717L970.117,928.717z"/>
		</g>
	</g>

	<g class="extras">
		<g>
			<path fill="#223BB9" d="M593.13,760.645c4.128-22.782,8.255-45.564,12.383-68.346c-6.769,1.787-13.538,3.574-20.308,5.361
				c17.668,14.965,35.336,29.93,53.004,44.895c1.787-6.77,3.574-13.539,5.361-20.308c-21.795,7.817-43.591,15.634-65.387,23.451
				c-6.228,2.233-10.343,8.194-8.485,14.946c1.655,6.02,8.707,10.723,14.946,8.485c21.795-7.817,43.591-15.634,65.387-23.451
				c7.852-2.816,12.892-13.929,5.361-20.308c-17.668-14.965-35.336-29.93-53.004-44.895c-6.304-5.338-18.539-4.4-20.308,5.361
				c-4.128,22.782-8.255,45.564-12.383,68.346c-1.18,6.511,1.679,13.074,8.485,14.946
				C584.132,770.766,591.948,767.167,593.13,760.645z"/>
		</g>
		<g>
			<path fill="#E36E5F" d="M615.788,378.122c-5.185-19.592-10.37-39.184-15.555-58.775c-4.981,4.982-9.964,9.964-14.946,14.946
				c19.559,5.307,39.117,10.613,58.676,15.92c-1.787-6.769-3.574-13.538-5.361-20.307c-14.373,14.285-28.747,28.57-43.121,42.855
				c-11.125,11.057,6.061,28.236,17.184,17.183c14.373-14.285,28.747-28.57,43.121-42.855c6.473-6.433,3.452-17.916-5.361-20.307
				c-19.559-5.307-39.117-10.613-58.676-15.92c-8.999-2.441-17.316,5.993-14.946,14.946c5.185,19.592,10.37,39.184,15.555,58.775
				C596.362,399.717,619.802,393.289,615.788,378.122z"/>
		</g>
		<g>
			<path fill="#E36E5F" d="M258.349,887.607c-5.78-21.847-11.562-43.693-17.342-65.541c-4.981,4.982-9.964,9.965-14.946,14.946
				c21.81,5.917,43.619,11.833,65.428,17.75c-1.787-6.769-3.574-13.538-5.361-20.308c-16.028,15.931-32.057,31.861-48.086,47.791
				c-11.125,11.058,6.061,28.237,17.184,17.184c16.028-15.931,32.057-31.861,48.086-47.791c6.473-6.434,3.453-17.916-5.361-20.308
				c-21.81-5.917-43.619-11.833-65.428-17.75c-8.999-2.441-17.315,5.992-14.946,14.946c5.78,21.847,11.562,43.693,17.342,65.541
				C238.922,909.204,262.362,902.775,258.349,887.607z"/>
		</g>
		<g>
			<path fill="#223BB9" d="M495.779,233.972c24.028-0.542,42.284-19.939,42.789-43.714c0.504-23.772-19.521-43.19-42.789-43.714
				c-24.024-0.542-42.301,20.756-42.789,43.714C452.486,214.031,472.512,233.448,495.779,233.972c15.68,0.354,15.646-23.947,0-24.3
				c-2.812-0.063-3.716-0.23-7.19-1.438c1.271,0.442-2.389-1.371-2.871-1.667c-1.278-0.784-0.886-0.537-2.558-2.123
				c-3.9-3.699-5.759-8.981-5.869-14.187c-0.229-10.769,8.577-19.191,18.488-19.415c10.256-0.231,18.268,8.997,18.488,19.415
				c0.229,10.77-8.577,19.191-18.488,19.415C480.134,210.025,480.1,234.326,495.779,233.972z"/>
		</g>
		<g>
			<path fill="#223BB9" d="M223.129,709.922c24.028-0.542,42.282-19.94,42.787-43.715c0.504-23.772-19.521-43.187-42.787-43.711
				c-24.025-0.541-42.301,20.751-42.789,43.711C179.836,689.981,199.859,709.397,223.129,709.922
				c15.68,0.353,15.646-23.948,0-24.301c-2.812-0.062-3.717-0.229-7.191-1.438c1.271,0.441-2.389-1.371-2.871-1.666
				c-1.278-0.784-0.886-0.537-2.558-2.123c-3.899-3.698-5.758-8.98-5.868-14.188c-0.229-10.771,8.576-19.188,18.488-19.41
				c10.255-0.231,18.266,8.991,18.486,19.41c0.229,10.771-8.576,19.191-18.486,19.414
				C207.483,685.974,207.449,710.274,223.129,709.922z"/>
		</g>
		<g>
			<path fill="#E36E5F" d="M385.77,530.029c24.027-0.542,42.28-19.942,42.785-43.715c0.504-23.771-19.518-43.188-42.785-43.712
				c-24.025-0.542-42.303,20.751-42.791,43.712C342.475,510.089,362.501,529.505,385.77,530.029c15.68,0.353,15.646-23.948,0-24.3
				c-2.812-0.063-3.717-0.23-7.191-1.438c1.27,0.442-2.39-1.371-2.871-1.667c-1.279-0.784-0.887-0.537-2.559-2.123
				c-3.9-3.699-5.759-8.981-5.869-14.187c-0.229-10.772,8.577-19.189,18.49-19.413c10.254-0.231,18.264,8.992,18.484,19.413
				c0.229,10.77-8.576,19.191-18.484,19.415C370.124,506.082,370.09,530.382,385.77,530.029z"/>
		</g>
		<g>
			<path fill="#223BB9" d="M472.486,896.08c24.028-0.542,42.282-19.94,42.787-43.715c0.504-23.772-19.52-43.187-42.787-43.711
				c-24.024-0.541-42.301,20.752-42.789,43.711C429.193,876.139,449.219,895.556,472.486,896.08c15.68,0.353,15.646-23.948,0-24.301
				c-2.812-0.062-3.716-0.229-7.19-1.438c1.271,0.441-2.389-1.371-2.871-1.667c-1.278-0.784-0.886-0.537-2.558-2.123
				c-3.9-3.698-5.759-8.98-5.869-14.187c-0.229-10.771,8.577-19.188,18.488-19.41c10.256-0.231,18.266,8.991,18.486,19.41
				c0.229,10.771-8.575,19.191-18.486,19.414C456.841,872.132,456.807,896.433,472.486,896.08z"/>
		</g>
		<g>
			<path fill="#E36E5F" d="M789.107,804.463c-20.661,20.662-41.322,41.323-61.984,61.984c-11.089,11.09,6.094,28.272,17.184,17.184
				c20.661-20.662,41.322-41.323,61.984-61.984C817.38,810.557,800.197,793.374,789.107,804.463L789.107,804.463z"/>
			<path fill="#E36E5F" d="M806.291,867.998c-20.662-20.661-41.323-41.322-61.984-61.984c-11.09-11.089-28.272,6.094-17.184,17.184
				c20.662,20.661,41.323,41.322,61.984,61.984C800.197,896.271,817.38,879.088,806.291,867.998L806.291,867.998z"/>
		</g>
		<g>
			<path fill="#223BB9" d="M349.008,304.961c-20.661,20.662-41.322,41.323-61.984,61.984c-11.089,11.09,6.094,28.272,17.184,17.183
				c20.661-20.662,41.322-41.323,61.984-61.984C377.28,311.054,360.098,293.872,349.008,304.961L349.008,304.961z"/>
			<path fill="#223BB9" d="M366.191,368.497c-20.662-20.662-41.323-41.323-61.984-61.984c-11.09-11.09-28.272,6.093-17.184,17.183
				c20.662,20.662,41.323,41.323,61.984,61.984C360.098,396.769,377.28,379.586,366.191,368.497L366.191,368.497z"/>
		</g>
		<g>
			<path fill="#223BB9" d="M793.321,671.305c-6.599-24.933-13.198-49.865-19.797-74.799c-4.981,4.982-9.964,9.965-14.946,14.946
				c24.892,6.753,49.783,13.505,74.674,20.258c-1.787-6.769-3.574-13.538-5.361-20.308c-18.292,18.181-36.584,36.361-54.877,54.541
				c-11.125,11.058,6.062,28.237,17.184,17.184c18.292-18.181,36.584-36.361,54.877-54.541c6.472-6.434,3.453-17.916-5.361-20.308
				c-24.892-6.753-49.783-13.505-74.674-20.258c-8.999-2.441-17.316,5.992-14.946,14.946c6.599,24.933,13.198,49.865,19.797,74.799
				C773.896,692.9,797.336,686.472,793.321,671.305z"/>
		</g>
	</g>
</svg>
