<svg version="1.1" xmlns="http://www.w3.org/2000/svg" xmlns:xlink="http://www.w3.org/1999/xlink" x="0px" y="0px"
	 width="256px" height="256px" viewBox="0 0 1024 1024" enable-background="new 0 0 1024 1024" xml:space="preserve">

	<style>
		#texture_media {
			mix-blend-mode: lighten;
			opacity: 0.5;
		}
	</style>

	<filter id="colorMeMatrix">
		<feColorMatrix in="SourceGraphic" type="matrix" values="-1 0 0 0 1
																0 -1 0 0 1
																0 0 -1 0 1
																0 0 0 1 0"/>
	 </filter>

<g>
	<g>
		<g>
			<path fill="#e079a1" d="M764.604,840.434c4.348-118.534-69.763-237.033-165.564-304.055
				c-93.772-64.536-188.83-26.995-288.269-27.701c-97.283-0.593-183.846,39.787-224.32,146.833
				C66.47,704.299,38.073,788.255,56.771,841.54c24.393,67.851,146.688,46.06,202.75,49.137
				c105.649,5.803,208.418-14.684,311.911-9.003C608.088,883.687,750.312,903.788,764.604,840.434z"/>
		</g>
		<g>
			<path fill="#e079a1" d="M351.893,256.729c143.895,159.524,287.635,311.685,427.02,478.217
				c32.379,38.687,112.569,163.125,162.598,161.702c76.207-2.173,32.894-253.899,21.322-300.144
				c-52.11-208.311-149.213-395.892-320.48-454.765C607.359,129.709,245.506,109.448,351.893,256.729z"/>
		</g>
	</g>
	<g id="texture_media" filter="url(#colorMeMatrix)">
		<defs>
			<path id="SVGID_9_" d="M943.987,613.58c-52.11-208.31-136.499-395.176-307.767-454.049
				c-34.993-12.029-399.055-51.944-292.667,95.337c86.772,142.008,122.717,161.593,227.485,255.871
				c-7.482-6.504,15.782,10.114,7.684,4.448c-93.773-64.536-186.271,12.517-285.711,11.811
				c-97.284-0.593-158.797,38.908-199.271,145.955C73.759,721.74,57.512,775.566,76.209,828.853
				c24.393,67.851,130.945,72.981,187.006,76.059c105.649,5.801,190.139-13.933,293.632-8.251
				c36.655,2.014,212.149,12.067,226.441-51.286c-6.862-78.476-18.502-115.549-91.95-212.751
				c26.057,40.33,28.633,49.295,62.731,90.036c32.378,38.687,141.552,176.452,191.581,175.028
				C1021.857,895.517,955.559,659.825,943.987,613.58z"/>
		</defs>
		<clipPath id="MEDIA_CLIP_PATH">
			<use xlink:href="#SVGID_9_"  overflow="visible"/>
		</clipPath>
		<g id="DsD5mp_5_" clip-path="url(#MEDIA_CLIP_PATH)">

				<image overflow="visible" width="826" height="662" id="DsD5mp_10_" xlink:href="/img/texture_paint.jpg"  transform="matrix(1.1529 0 0 1.1529 35.8262 151.2065)">
			</image>
		</g>
	</g>
</g>

<g class="extras border">
	<g>
		<path fill="#492DA0" d="M817.1416,241.58057c-33.92676-33.6499-69.32129-67.0874-111.01855-90.99805
				c-41.30469-23.68652-87.60547-34.69238-135.04297-35.29541c-40.65625-0.5166-81.92188,0.04736-122.26074,5.46191
				c-41.55859,5.57812-84.03223,16.39111-117.06738,43.5083c-39.57031,32.48096-47.29883,87.1416-49.48047,135.28857
				c-2.42383,53.44043,2.90234,108.146-13.15234,160.03467c-3.39062,10.95947-8.43555,21.65137-15.90039,30.44385
				c-8.58105,10.10791-19.87891,16.77393-31.77344,22.29785c-12.49414,5.80176-25.68945,10.01172-38.36133,15.40234
				c-11.19727,4.76367-21.79492,10.55273-31.74023,17.57324c-40.17871,28.36035-65.72656,72.00781-81.2207,117.88281
				c-7.9082,23.41504-12.51172,47.50586-16.20508,71.88867c-2.35742,15.57324-4.55859,31.17773-6.11719,46.85352
				c-0.75,7.53613-1.28711,15.09082-1.66602,22.65332c-0.28125,5.58203-0.70312,7.89258-1.40625,12.61523
				c-1.77344,11.92383-3.8125,23.82031-4.7793,35.84766c-0.83398,10.36914-0.92773,21.93262,3.10156,31.70117
				c8.77051,21.27051,33.73242,22.88867,53.74121,22c8.66504-0.38477,17.28027-1.49316,25.9502-1.76367
				c16.08691-0.50293,32.19629,0.40332,48.24023,1.49609c32.05273,2.18457,64.01758,3.92285,96.13672,4.82617
				c52.54102,1.47852,105.10742,1.7627,157.66113,0.79688c81.40039-1.49805,162.71387-6.45703,244.14551-6.38379
				c56.24023,0.05078,112.00391,4.53809,168.04492,8.75879c27.42773,2.06543,54.94727,3.8291,82.46777,3.30273
				c12.40137-0.23633,24.75586-1.13477,37.0459-2.81641c8.9668-1.22754,17.37109-2.9375,25.34473-7.43945
				c31.69727-17.89844,33.75879-63.30957,33.19824-95.21094c-0.70508-40.17676-8.92578-79.46484-12.25195-119.375
				c-8.82422-105.87988-43.12109-210.06152-90.59766-304.66699C886.00586,336.11328,854.63672,286.35693,817.1416,241.58057
				c-3.94824-4.71533-11.88379-4.05566-15.93945,0c-4.62891,4.62842-3.94043,11.23389,0,15.93945
				c33.12598,39.56006,60.87598,83.47949,84.83105,129.10986c25.09961,47.81006,45.6875,97.92822,61.86328,149.43555
				c15.28516,48.66895,26.70117,98.97168,31.68164,149.6543c3.9502,40.19824,11.22461,80.08789,12.73828,120.51367
				c0.36816,9.81348,0.32617,19.64551-0.31055,29.44629c-0.14453,2.21582-0.3418,4.42773-0.56055,6.6377
				c-0.10742,1.08105-0.23438,2.16016-0.36133,3.23926c-0.41406,3.52344,0.33691-2.2334-0.16602,1.23535
				c-0.63379,4.36719-1.50781,8.69727-2.59766,12.97363c-0.93164,3.66113-2.11719,7.25391-3.50977,10.76465
				c0.99023-2.49805-1.06934,2.21582-1.45312,2.97266c-0.9043,1.78027-1.93262,3.49316-3.01953,5.16699
				c-0.45312,0.7002-0.94141,1.37695-1.43066,2.05273c1.69629-2.34766,0.07324-0.12207-0.27832,0.29785
				c-1.03906,1.24414-2.17969,2.39941-3.35254,3.5166c-0.58301,0.55469-1.19824,1.07422-1.8125,1.59375
				c-2.11133,1.78125,1.97168-1.4209-0.28027,0.18359c-1.54688,1.10254-3.20508,2.03711-4.89453,2.89941
				c-0.4873,0.24902-3.07422,1.33301-0.34668,0.21875c-0.78711,0.32129-1.59375,0.59375-2.39844,0.86621
				c-1.66992,0.56543-3.3877,0.97461-5.1123,1.33594c-5.69531,1.19727-9.46875,1.55273-15.0332,2.12109
				C933.2207,895,920.95508,895.33301,908.7207,895.3291c-28.09375-0.00879-56.16797-2.16406-84.1582-4.35547
				c-30.38672-2.37891-60.75781-5.00293-91.20605-6.49023c-24.39355-1.19141-48.83301-1.36816-73.25195-1.30664
				c-39.71875,0.09863-79.41699,1.37109-119.10645,2.80957c-95.66699,3.46777-191.17578,5.35645-286.89551,2.38477
				c-32.30371-1.00293-64.42969-3.49121-96.68652-5.28711c-13.76562-0.7666-27.69531-1.30957-41.46289-0.30273
				c-9.16211,0.6709-18.28418,1.60938-27.48145,1.61328c-9.16016,0.00391-16.18457-0.47266-22.48535-4.65137
				c2.10645,1.39648-0.15625-0.2373-0.52539-0.5957c-2.0918-2.03027,1.13477,1.86719-0.49414-0.56738
				c-0.19922-0.29688-1.4834-2.99414-0.56445-0.7666c-0.39844-0.9668-0.68945-1.97656-0.98438-2.97852
				c-0.31055-1.05762-0.52441-2.14258-0.74219-3.22266c-0.72363-3.5918,0.16016,2.14941-0.24414-1.63281
				c-0.31445-2.93262-0.34473-5.89355-0.32227-8.83887c0.08398-11.41504,1.84668-21.68262,3.56445-32.77734
				c1.82227-11.76855,2.84863-23.37793,3.7041-35.24414c2.02441-28.05762,6.02734-56.41504,11.72168-83.96582
				c4.71094-22.79297,11.58984-45.5498,21.15625-66.57617c19.375-42.57812,50.07422-78.33398,94.07031-96.12305
				c25.97559-10.50391,53.65332-18.76465,72.83203-40.48975c17.57227-19.90381,24.36328-46.0376,28.85938-71.56641
				c9.69531-55.06689,2.66797-111.12549,9.2959-166.4458c2.83008-23.62109,8.7666-48.71826,22.34473-68.60156
				c9.61719-14.08203,24.30469-25.15674,40.74219-33.67627c34.91992-18.09912,77.81934-23.66016,117.36523-26.10791
				c19.29688-1.19434,38.6377-1.47949,57.9668-1.5293c23.39844-0.06006,46.95508-0.33594,69.66602,3.52148
				c43.50195,7.38916,82.27539,26.85889,116.80273,53.56641c24.54492,18.98535,46.99609,40.5708,69.00098,62.39502
				C811.5293,267.76367,827.47363,251.82764,817.1416,241.58057z"/>
	</g>
</g>
<g class="text">
	<g>
		<path fill="#492DA0" d="M625.01367,256.479c3.06738-12.16455,7.08887-26.74365,9.87695-35.51221l-0.21777-0.05469
			c-7.41504,13.83838-17.25781,32.26416-31.78516,57.3623l-20.30957-5.12012c0.24414-26.61914,0.69434-49.0293,0.78125-65.4082
			l-0.2168-0.05518c-1.70312,9.04199-4.55762,24.03076-7.87012,37.17188l-6.26855,24.87061l-22.1543-5.58496l19.24414-76.34814
			l35.51367,8.95264c0.56152,18.39111,0.71289,38.41113-0.3457,51.77441l0.10938,0.02686
			c6.32617-12.72754,15.70312-29.30615,25.21582-45.50439l35.40332,8.9248l-19.24609,76.34717l-24.21875-6.10449L625.01367,256.479
			z"/>
		<path fill="#492DA0" d="M715.11719,333.93701l-26.25391-32.92627l-10.33398,8.23975l29.32617,36.7793l-16,9.03467
			l-43.22266-54.20557l61.56055-49.0874l43.3623,54.38037l-14.18652,11.3125l-27.65039-34.67871l-8.58203,6.84326
			l26.25488,32.92676L715.11719,333.93701z"/>
		<path fill="#492DA0" d="M772.3418,362.77441l-0.15137,39.87158c-0.1084,28.44824-17.52344,42.71826-38.24316,42.63916
			c-24.30273-0.0918-40.58789-17.96143-40.49219-43.16113l0.15039-39.64893L772.3418,362.77441z M711.20508,388.07861
			l-0.04297,11.08789c-0.04688,12.65527,7.54297,19.06885,22.32812,19.12549c12.0957,0.04541,20.96289-4.96094,21.12695-18.95947
			l0.04297-11.08838L711.20508,388.07861z"/>
		<path fill="#492DA0" d="M775,482.32031l-77.01172,16.39844l-5.31836-24.97705l77.01172-16.39844L775,482.32031z"/>
		<path fill="#492DA0" d="M737.69727,545.57715l-14.95117,4.14062l-14.50391-21.1543l81.78809-19.95215l18.87305,27.52734
			l-47.01562,70.66699l-15.51758-22.63184l9.06152-12.73145L737.69727,545.57715z M767.13184,556.22266
			c8.81836-12.29297,14.49902-19.85352,18.78027-25.09766l-0.25391-0.36914c-6.30859,2.28809-17.50879,5.75781-29.80078,9.02539
			L767.13184,556.22266z"/>
	</g>
</g>
<g class="extras">
	<g>
		<path fill="#492DA0" d="M181.724,649.374c24.895,0.821,49.789,1.643,74.684,2.464c-3.286-5.727-6.572-11.453-9.858-17.18
			c-13.16,21.148-26.319,42.297-39.479,63.445c6.572,0,13.145,0,19.717,0c-11.735-21.97-23.47-43.939-35.204-65.909
			c-6.939-12.991-26.65-1.457-19.717,11.525c11.734,21.97,23.47,43.939,35.204,65.909c4.167,7.802,15.357,7.005,19.717,0
			c13.159-21.148,26.319-42.297,39.479-63.445c4.73-7.602-1.482-16.903-9.858-17.18c-24.895-0.821-49.789-1.643-74.684-2.464
			C166.991,626.054,167.038,648.89,181.724,649.374z"/>
	</g>
	<g>
		<path fill="#FFFFFF" d="M862.613,662.079c3.985-22.002,7.971-44.003,11.957-66.005c-6.36,1.68-12.721,3.358-19.082,5.038
			c17.063,14.452,34.127,28.904,51.19,43.356c1.68-6.361,3.358-12.722,5.038-19.082c-21.049,7.549-42.1,15.099-63.148,22.648
			c-5.852,2.099-9.719,7.699-7.975,14.044c1.557,5.656,8.183,10.076,14.045,7.974c21.049-7.549,42.1-15.099,63.148-22.648
			c7.379-2.646,12.114-13.089,5.038-19.082c-17.063-14.452-34.127-28.904-51.19-43.356c-5.923-5.017-17.42-4.135-19.082,5.038
			c-3.986,22.002-7.973,44.003-11.959,66.005c-1.107,6.118,1.578,12.285,7.975,14.044
			C854.157,671.591,861.502,668.208,862.613,662.079z"/>
	</g>
	<g>
		<path fill="#492DA0" d="M936.175,779.965c-2.03,19.467-4.06,38.933-6.09,58.399c5.727-3.286,11.453-6.572,17.179-9.858
			c-15.842-11.492-31.686-22.983-47.529-34.476c0,6.572,0,13.145,0,19.717c17.873-7.975,35.746-15.949,53.619-23.924
			c5.686-2.537,6.98-10.697,4.097-15.621c-3.397-5.8-9.938-6.632-15.62-4.096c-17.873,7.975-35.746,15.949-53.619,23.924
			c-8.621,3.847-6.131,15.27,0,19.717c15.842,11.491,31.686,22.983,47.529,34.476c7.749,5.621,16.381-2.213,17.179-9.858
			c2.03-19.467,4.06-38.933,6.09-58.399c0.646-6.202-5.683-11.417-11.417-11.417C940.88,768.548,936.82,773.777,936.175,779.965z"
			/>
	</g>
	<g>
		<path fill="#FFFFFF" d="M618.234,759.044c4.416,21.374,8.834,42.747,13.25,64.121c4.682-4.682,9.363-9.363,14.045-14.044
			c-20.717-6.861-41.436-13.723-62.152-20.583c1.68,6.36,3.358,12.721,5.038,19.082c16.3-14.513,32.601-29.025,48.901-43.538
			c4.65-4.141,4.207-11.938,0-16.146c-4.59-4.589-11.502-4.135-16.146,0c-16.301,14.513-32.601,29.025-48.901,43.538
			c-6.769,6.027-2.628,16.544,5.038,19.082c20.717,6.861,41.436,13.723,62.152,20.583c8.793,2.912,15.698-6.041,14.045-14.044
			c-4.418-21.374-8.834-42.747-13.252-64.121c-1.26-6.097-8.343-9.542-14.044-7.974
			C619.922,746.729,616.976,752.955,618.234,759.044z"/>
	</g>
	<g>
		<path fill="#FFFFFF" d="M581.211,425.121c23.035-0.534,40.506-19.103,41.003-41.9c0.497-22.795-18.714-41.381-41.003-41.897
			c-23.033-0.533-40.529,19.903-41.009,41.897C539.705,406.019,558.92,424.604,581.211,425.121
			c14.733,0.341,14.701-22.494,0-22.834c-10.235-0.237-17.945-8.558-18.175-19.066c-0.229-10.509,8.284-18.834,18.175-19.063
			c10.23-0.237,17.947,8.913,18.169,19.063c0.229,10.508-8.282,18.837-18.169,19.066
			C566.51,402.627,566.478,425.462,581.211,425.121z"/>
	</g>
	<g>
		<path fill="#FFFFFF" d="M394.896,563.305c-23.284-0.737-40.907,17.756-42.63,40.233c-1.763,23,17.302,41.753,39.288,43.474
			c23.215,1.816,40.972-18.565,42.632-40.23C435.949,583.779,416.886,565.025,394.896,563.305
			c-6.213-0.486-11.417,5.562-11.417,11.417c0,6.591,5.215,10.932,11.417,11.417c9.928,0.776,16.811,9.918,16.456,20.643
			c-0.346,10.487-9.885,17.711-19.798,17.396c-4.708-0.149-8.686-2.704-12.326-6.717c-2.939-3.239-4.299-8.755-4.128-13.923
			c0.345-10.487,9.885-17.714,19.796-17.399C409.629,586.605,409.584,563.771,394.896,563.305z"/>
	</g>
	<g>
		<path fill="#492DA0" d="M427.984,259.212c23.036-0.534,40.504-19.103,41.001-41.9c0.497-22.794-18.712-41.381-41.001-41.897
			c-23.033-0.533-40.527,19.903-41.007,41.897C386.48,240.109,405.693,258.696,427.984,259.212
			c14.733,0.341,14.701-22.494,0-22.834c-10.234-0.237-17.943-8.558-18.173-19.066s8.282-18.834,18.173-19.063
			c10.231-0.237,17.945,8.913,18.167,19.063c0.229,10.508-8.28,18.837-18.167,19.066
			C413.283,236.718,413.251,259.553,427.984,259.212z"/>
	</g>
	<g>
		<path fill="#492DA0" d="M395.381,764.776c-23.285-0.737-40.905,17.755-42.629,40.233c-1.764,23,17.299,41.754,39.287,43.473
			c23.215,1.815,40.971-18.562,42.632-40.229C436.434,785.252,417.37,766.497,395.381,764.776
			c-6.213-0.486-11.417,5.562-11.417,11.417c0,6.591,5.215,10.932,11.417,11.417c9.927,0.776,16.811,9.918,16.456,20.644
			c-0.346,10.486-9.886,17.709-19.798,17.395c-4.709-0.149-8.686-2.703-12.327-6.716c-2.939-3.239-4.297-8.755-4.126-13.923
			c0.347-10.488,9.881-17.714,19.795-17.399C410.113,788.077,410.068,765.242,395.381,764.776z"/>
	</g>
	<g>
		<path fill="#492DA0" d="M574.121,604.715c-23.286-0.739-40.898,17.758-42.629,40.232c-1.77,22.996,17.307,41.755,39.287,43.472
			c23.215,1.812,40.967-18.563,42.634-40.229C615.183,625.19,596.105,606.432,574.121,604.715
			c-6.213-0.485-11.417,5.561-11.417,11.417c0,6.59,5.215,10.933,11.417,11.417c9.928,0.775,16.812,9.917,16.458,20.642
			c-0.346,10.484-9.891,17.708-19.8,17.395c-4.707-0.148-8.684-2.702-12.325-6.716c-2.939-3.239-4.298-8.755-4.128-13.922
			c0.346-10.487,9.889-17.713,19.795-17.398C588.854,628.017,588.809,605.182,574.121,604.715z"/>
	</g>
	<g>
		<g>
			<path fill="#FFFFFF" d="M160.638,759.463c-19.953,19.954-39.907,39.907-59.86,59.86c-10.42,10.421,5.726,26.567,16.146,16.146
				c19.953-19.954,39.906-39.907,59.86-59.86C187.205,765.188,171.059,749.043,160.638,759.463L160.638,759.463z"/>
		</g>
		<g>
			<path fill="#FFFFFF" d="M176.784,820.821c-19.954-19.953-39.907-39.907-59.86-59.861c-10.421-10.421-26.566,5.726-16.146,16.146
				c19.953,19.953,39.907,39.907,59.86,59.861C171.059,847.389,187.205,831.242,176.784,820.821L176.784,820.821z"/>
		</g>
	</g>
</g>
</svg>
