<svg xmlns="http://www.w3.org/2000/svg" width="128" height="128" viewBox="0 0 128 128"><path opacity=".2" fill="#F0E6D8" d="M13.317 95.679l-.469 1.431 94.118-42.101.163-.073.452-1.414-94.102 42.084zM113.871 31.224l-6.347 18.887 1.381-.614 6.142-18.273zM82.017 31.224h-1.174l-11.867 36.216 1.37-.609zM65.786 68.771l-30.491-37.396-1.501-.053 30.939 37.919zM33.769 36.796l.067-.204-.833-1.048-18.241 55.899 1.374-.614zM91.908 96.487h1.177l12.745-37.599-1.385.616zM59.278 96.487h1.175l6.738-20.312-1.379.616z"/></svg>