<?xml version="1.0" encoding="utf-8"?>
<!-- Generator: Adobe Illustrator 16.0.0, SVG Export Plug-In . SVG Version: 6.00 Build 0)  -->
<!DOCTYPE svg PUBLIC "-//W3C//DTD SVG 1.1//EN" "http://www.w3.org/Graphics/SVG/1.1/DTD/svg11.dtd">
<svg version="1.1" xmlns="http://www.w3.org/2000/svg" xmlns:xlink="http://www.w3.org/1999/xlink" x="0px" y="0px" width="36px"
	 height="36px" viewBox="0 0 36 36" enable-background="new 0 0 36 36" xml:space="preserve">
<g id="Layer_1">
	<g id="XMLID_2_">
		<g>
			<rect x="0.0004883" y="5" fill="#343840" width="35.9995117" height="2.9375"/>
		</g>
		<g>
		</g>
	</g>
	<g id="XMLID_4_">
		<g>
			<rect x="0.0004883" y="27" fill="#343840" width="35.9995117" height="2.9375"/>
		</g>
		<g>
		</g>
	</g>
	<g id="XMLID_7_">
		<g>
			<rect x="27" fill="#343840" width="2.9375" height="36"/>
		</g>
		<g>
		</g>
	</g>
	<g id="XMLID_6_">
		<g>
			<rect x="16.03125" fill="#343840" width="2.9375" height="36"/>
		</g>
		<g>
		</g>
	</g>
	<g id="XMLID_1_">
		<g>
			<rect x="-0.0004883" y="16.0317383" fill="#343840" width="36.0004883" height="2.9375"/>
		</g>
		<g>
		</g>
	</g>
	<g id="XMLID_5_">
		<g>
			<rect x="5" fill="#343840" width="2.9375" height="36"/>
		</g>
		<g>
		</g>
	</g>
</g>
<g id="Layer_2" display="none">
	<rect x="8" y="8" display="inline" fill="#343840" width="8" height="8"/>
	<rect y="8" display="inline" fill="#343840" width="5" height="8"/>
	<rect x="8" display="inline" fill="#343840" width="8" height="5"/>
	<rect display="inline" fill="#343840" width="5" height="5"/>
	<rect x="8" y="19" display="inline" fill="#343840" width="8" height="8"/>
	<rect y="19" display="inline" fill="#343840" width="5" height="8"/>
	<rect y="30" display="inline" fill="#343840" width="5" height="6"/>
	<rect x="30" display="inline" fill="#343840" width="6" height="5"/>
	<rect x="8" y="30" display="inline" fill="#343840" width="8" height="6"/>
	<rect x="19" y="8" display="inline" fill="#343840" width="8" height="8"/>
	<rect x="30" y="8" display="inline" fill="#343840" width="6" height="8"/>
	<rect x="19" display="inline" fill="#343840" width="8" height="5"/>
	<rect x="19" y="19" display="inline" fill="#343840" width="8" height="8"/>
	<rect x="19" y="30" display="inline" fill="#343840" width="8" height="6"/>
	<rect x="30" y="30" display="inline" fill="#343840" width="6" height="6"/>
	<rect x="30" y="19" display="inline" fill="#343840" width="6" height="8"/>
</g>
</svg>
