<?xml version="1.0" encoding="utf-8"?>
<!-- Generator: Adobe Illustrator 16.0.0, SVG Export Plug-In . SVG Version: 6.00 Build 0)  -->
<!DOCTYPE svg PUBLIC "-//W3C//DTD SVG 1.1//EN" "http://www.w3.org/Graphics/SVG/1.1/DTD/svg11.dtd">
<svg version="1.1" xmlns="http://www.w3.org/2000/svg" xmlns:xlink="http://www.w3.org/1999/xlink" x="0px" y="0px" width="32px"
	 height="32px" viewBox="0 0 32 32" enable-background="new 0 0 32 32" xml:space="preserve">
<g id="Layer_1" display="none">
	<g id="XMLID_6_" display="inline">
		<g>
			<rect x="20" y="1.0004883" fill="#343840" width="2.9375" height="29.9995117"/>
		</g>
		<g>
		</g>
	</g>
	<g id="XMLID_5_" display="inline">
		<g>
			<rect x="9" y="1.0004883" fill="#343840" width="2.9375" height="29.9995117"/>
		</g>
		<g>
		</g>
	</g>
	<rect x="1" y="9" display="inline" fill="#343840" width="30" height="3"/>
	<rect x="1" y="20" display="inline" fill="#343840" width="30" height="3"/>
</g>
<g id="Layer_2" display="none">
	<rect x="12" y="1" display="inline" fill="#343840" width="8" height="8"/>
	<rect x="1" y="1" display="inline" fill="#343840" width="8" height="8"/>
	<rect x="12" y="12" display="inline" fill="#343840" width="8" height="8"/>
	<rect x="1" y="12" display="inline" fill="#343840" width="8" height="8"/>
	<rect x="1" y="23" display="inline" fill="#343840" width="8" height="8"/>
	<rect x="12" y="23" display="inline" fill="#343840" width="8" height="8"/>
	<rect x="23" y="1" display="inline" fill="#343840" width="8" height="8"/>
	<rect x="23" y="12" display="inline" fill="#343840" width="8" height="8"/>
	<rect x="23" y="23" display="inline" fill="#343840" width="8" height="8"/>
</g>
<g id="Layer_3" display="none">
	<g display="inline">
		
			<rect x="2.6564751" y="12.000082" transform="matrix(0.7070457 0.7071678 -0.7071678 0.7070457 13.2648048 -0.0201626)" fill="#343840" width="8.0005264" height="7.999836"/>
		
			<rect x="12.000082" y="2.6572371" transform="matrix(0.7070457 0.7071678 -0.7071678 0.7070457 9.3948717 -9.3644943)" fill="#343840" width="7.999836" height="7.9994907"/>
		
			<rect x="21.343832" y="12.0007725" transform="matrix(-0.7070457 -0.7071678 0.7071678 -0.7070457 31.9482536 45.2350159)" fill="#343840" width="7.999836" height="7.998455"/>
		
			<rect x="12.0004272" y="21.3425102" transform="matrix(-0.7071068 -0.7071068 0.7071068 -0.7071068 9.3936625 54.5765266)" fill="#343840" width="7.9991455" height="8.0005264"/>
	</g>
</g>
<g id="Layer_4">
	<g>
		
			<rect x="14.0207214" y="1.0211458" transform="matrix(0.7071068 -0.7071068 0.7071068 0.7071068 -6.6360855 16.0205803)" fill="#343840" width="3.9995728" height="29.9992123"/>
		
			<rect x="13.9797773" y="1.0207291" transform="matrix(0.7071678 0.7070457 -0.7070457 0.7071678 16.0066128 -6.6070843)" fill="#343840" width="3.999918" height="29.9995575"/>
	</g>
</g>
</svg>
